<svg width="1010.8" height="204.033" viewBox="0 0 1010.8 204.033" xmlns="http://www.w3.org/2000/svg"><g id="svgGroup" stroke-linecap="round" fill-rule="evenodd" font-size="9pt" stroke="#000" stroke-width="0.25mm" fill="#000" style="stroke:#000;stroke-width:0.25mm;fill:#000"><path d="M 367 184.017 L 367 183.817 A 18.857 18.857 0 0 0 367.922 181.399 Q 368.719 178.836 369.238 175.226 A 66.843 66.843 0 0 0 369.4 174.017 A 35.006 35.006 0 0 0 369.787 171.64 A 44.896 44.896 0 0 0 370 169.617 A 160.848 160.848 0 0 0 370.204 168.365 Q 370.6 165.867 370.6 165.217 Q 370.779 163.964 371.118 162.072 A 175.678 175.678 0 0 1 371.2 161.617 A 147.696 147.696 0 0 1 371.377 160.662 Q 371.599 159.481 371.743 158.857 A 12.916 12.916 0 0 1 371.8 158.617 Q 372.106 157.698 372.647 156.31 A 107.567 107.567 0 0 1 373 155.417 A 14.657 14.657 0 0 1 374.308 153.453 Q 375.131 152.422 376.055 151.728 A 7.459 7.459 0 0 1 377.2 151.017 A 9.845 9.845 0 0 1 379.218 150.297 Q 381.978 149.656 384.588 150.961 A 10.544 10.544 0 0 1 386 151.817 A 7.117 7.117 0 0 1 387.279 153.078 Q 388.106 154.114 388.8 155.617 Q 389.4 156.617 390.2 160.217 A 2.485 2.485 0 0 0 390.214 160.437 Q 390.275 161.067 390.6 163.017 L 397 179.617 A 17.672 17.672 0 0 0 398.261 181.353 Q 399.488 182.829 400.8 183.617 L 401.6 183.617 A 1.798 1.798 0 0 0 401.973 183.572 Q 402.528 183.453 403.4 183.017 Q 403.587 182.83 404.3 181.942 A 97.35 97.35 0 0 0 404.4 181.817 Q 405.014 181.049 405.51 179.222 A 23.041 23.041 0 0 0 405.8 178.017 A 40.363 40.363 0 0 0 406.433 174.251 Q 406.92 170.322 406.989 164.997 A 138.358 138.358 0 0 0 407 163.217 Q 406.6 152.417 405.4 142.017 A 115.306 115.306 0 0 0 405.18 139.574 Q 404.574 133.454 402.744 118.769 A 2916.921 2916.921 0 0 0 402.6 117.617 Q 402.4 116.817 402 113.817 Q 398.534 86.478 398.034 73.409 A 132.623 132.623 0 0 1 398 72.417 A 175.126 175.126 0 0 1 397.942 68.983 Q 397.819 51.21 401.603 41.657 A 28.366 28.366 0 0 1 402.6 39.417 A 7.308 7.308 0 0 1 406.907 35.648 A 8.969 8.969 0 0 1 407 35.617 A 8.012 8.012 0 0 1 408.836 35.228 Q 410.705 35.064 412.493 35.871 A 8.567 8.567 0 0 1 412.8 36.017 A 7.308 7.308 0 0 1 416.568 40.323 A 8.969 8.969 0 0 1 416.6 40.417 A 8.012 8.012 0 0 1 416.989 42.253 Q 417.153 44.122 416.346 45.91 A 8.567 8.567 0 0 1 416.2 46.217 A 21.227 21.227 0 0 0 414.708 50.351 Q 412.929 57.19 413.136 69.418 A 169.09 169.09 0 0 0 413.2 72.017 Q 413.568 83.067 416.65 107.687 A 1311.931 1311.931 0 0 0 417.2 112.017 Q 417.2 112.417 417.6 115.617 Q 420 132.817 420.6 140.417 Q 421.8 151.217 422.2 163.017 A 142.896 142.896 0 0 1 422.044 169.923 Q 421.7 177.004 420.6 181.817 Q 418 192.017 411.2 196.017 A 23.576 23.576 0 0 1 407.029 197.952 Q 400.714 200.124 394.851 197.44 A 18.07 18.07 0 0 1 394.8 197.417 A 20.909 20.909 0 0 1 388.697 193.296 Q 386.302 191.016 384.2 187.817 Q 383.8 187.417 383.3 186.417 L 382.6 185.017 L 381 189.817 Q 379.395 193.383 377.313 195.678 A 15.333 15.333 0 0 1 376.8 196.217 A 11.914 11.914 0 0 1 369.464 200.151 A 15.261 15.261 0 0 1 369 200.217 Q 361.6 201.417 356.2 195.017 Q 354.025 192.434 352.127 188.188 A 57.193 57.193 0 0 1 350.4 183.817 A 82.926 82.926 0 0 1 348.306 176.449 Q 346.317 168.122 344.986 156.663 A 269.419 269.419 0 0 1 344.8 155.017 Q 343.879 145.071 343.467 140.383 A 820.974 820.974 0 0 1 343.4 139.617 L 342.8 132.617 Q 342.473 129.349 342.413 127.95 A 12.784 12.784 0 0 1 342.4 127.417 A 0.51 0.51 0 0 0 342.295 127.581 Q 342.226 127.743 342.207 128.005 A 2.967 2.967 0 0 0 342.2 128.217 A 0.675 0.675 0 0 0 342 128.697 A 0.886 0.886 0 0 0 342 128.717 A 0.739 0.739 0 0 1 341.955 128.98 A 0.664 0.664 0 0 1 341.8 129.217 L 341.8 129.417 A 7.127 7.127 0 0 1 338.978 134.257 A 9.114 9.114 0 0 1 338.9 134.317 A 7.431 7.431 0 0 1 334.292 135.886 A 8.799 8.799 0 0 1 333.2 135.817 A 7.532 7.532 0 0 1 330.508 134.98 A 6.881 6.881 0 0 1 328.2 132.917 A 7.621 7.621 0 0 1 326.727 128.357 A 9.191 9.191 0 0 1 326.8 127.217 Q 328 119.017 333.8 110.417 A 19.967 19.967 0 0 1 335.178 108.514 Q 336.35 107.092 337.6 106.217 A 11.627 11.627 0 0 1 340.743 104.198 Q 342.846 103.305 345.2 103.417 A 9.065 9.065 0 0 1 351.916 106.765 A 13.64 13.64 0 0 1 353 108.217 A 11.524 11.524 0 0 1 353.932 109.77 Q 354.774 111.426 355.557 113.92 A 50.37 50.37 0 0 1 356 115.417 A 16.26 16.26 0 0 1 356.376 116.946 Q 356.945 119.76 357.4 125.217 Q 357.675 127.692 357.855 129.694 A 132.147 132.147 0 0 1 358 131.417 A 559.362 559.362 0 0 0 358.165 133.519 Q 358.379 136.159 358.52 137.51 A 36.352 36.352 0 0 0 358.6 138.217 Q 359.137 146.446 359.833 151.955 A 113.061 113.061 0 0 0 360 153.217 A 228.941 228.941 0 0 0 361.175 162.504 Q 362.477 171.251 364.216 177.154 A 55.648 55.648 0 0 0 364.8 179.017 Q 366.4 183.217 367 184.017 Z M 76.6 193.617 L 72.2 193.617 A 61.312 61.312 0 0 1 67.538 193.447 A 46.859 46.859 0 0 1 63.8 193.017 A 22.572 22.572 0 0 1 58.504 191.097 A 18.153 18.153 0 0 1 54 187.817 A 18.37 18.37 0 0 1 49.838 181.294 A 23.32 23.32 0 0 1 49 178.617 Q 48.246 176.355 47.606 171.706 A 127.052 127.052 0 0 1 47.2 168.417 Q 46.6 160.817 47.8 146.017 A 1.849 1.849 0 0 1 47.804 145.917 Q 47.818 145.669 47.888 145.029 A 68.709 68.709 0 0 1 47.9 144.917 A 20.454 20.454 0 0 0 47.959 144.309 Q 47.982 144.023 47.992 143.777 A 8.82 8.82 0 0 0 48 143.417 A 712.559 712.559 0 0 0 48.341 138.123 Q 48.8 130.503 48.8 127.017 A 69.523 69.523 0 0 0 48.827 125.556 Q 48.869 119.975 47.921 116.799 A 12.684 12.684 0 0 0 47.8 116.417 A 1.275 1.275 0 0 0 47.781 116.191 Q 47.739 115.956 47.6 115.817 Q 47.4 116.017 47 116.017 Q 46.693 116.17 46.503 116.206 A 0.564 0.564 0 0 1 46.4 116.217 A 32.529 32.529 0 0 0 43.187 117.82 A 41.933 41.933 0 0 0 40.6 119.417 Q 38 121.017 34.9 120.417 A 7.251 7.251 0 0 1 32.249 119.366 A 6.805 6.805 0 0 1 30.2 117.217 Q 28.428 114.657 28.982 111.613 A 8.756 8.756 0 0 1 29 111.517 A 7.251 7.251 0 0 1 30.05 108.865 A 6.805 6.805 0 0 1 32.2 106.817 A 53.095 53.095 0 0 1 37.259 103.78 Q 43.479 100.535 48.45 100.535 A 14.409 14.409 0 0 1 50 100.617 Q 54.8 101.217 58.2 104.617 A 14.413 14.413 0 0 1 60.034 106.904 Q 60.82 108.101 61.527 109.589 A 31.463 31.463 0 0 1 62.4 111.617 Q 64.2 118.217 64 127.217 Q 64 132.005 63.322 142.73 A 819.891 819.891 0 0 1 63.2 144.617 Q 63.066 145.289 63.022 146.231 A 21.155 21.155 0 0 0 63 147.217 A 267.445 267.445 0 0 0 62.578 152.58 Q 61.943 161.923 62.374 167.121 A 37.449 37.449 0 0 0 62.4 167.417 A 57.598 57.598 0 0 0 62.707 170.44 Q 63.272 174.773 64.366 176.468 A 3.311 3.311 0 0 0 64.8 177.017 Q 66 178.417 72 178.417 A 167.263 167.263 0 0 1 74.094 178.429 Q 76.732 178.462 78.096 178.586 A 15.398 15.398 0 0 1 78.4 178.617 A 180.754 180.754 0 0 0 83.232 179.144 Q 88.205 179.615 91.772 179.617 A 55.15 55.15 0 0 0 91.8 179.617 A 40.281 40.281 0 0 0 95.589 179.203 Q 99.181 178.626 101.6 177.417 Q 101.6 177.217 101.8 177.017 Q 102.4 175.417 103 172.617 A 76.586 76.586 0 0 0 103.906 165.947 Q 104.246 162.347 104.352 158.247 A 148.214 148.214 0 0 0 104.4 154.417 A 214.02 214.02 0 0 0 104.415 152.109 Q 104.438 136.049 102.362 102.239 A 2350.062 2350.062 0 0 0 102.2 99.617 A 4.454 4.454 0 0 0 102.19 99.338 Q 102.169 98.999 102.1 98.517 Q 102.018 97.94 102.003 97.567 A 3.874 3.874 0 0 1 102 97.417 A 3112.046 3112.046 0 0 1 101.079 82.489 Q 99.753 60.064 99.6 50.417 A 354.366 354.366 0 0 1 99.567 47.689 Q 99.424 30.494 101.114 21.546 A 31.976 31.976 0 0 1 102.4 16.617 A 6.527 6.527 0 0 1 105.66 12.445 A 8.445 8.445 0 0 1 106.1 12.217 Q 108.887 10.871 111.766 11.742 A 8.771 8.771 0 0 1 112 11.817 A 6.527 6.527 0 0 1 116.171 15.076 A 8.445 8.445 0 0 1 116.4 15.517 Q 117.745 18.303 116.874 21.182 A 8.771 8.771 0 0 1 116.8 21.417 A 22.116 22.116 0 0 0 115.9 24.952 Q 114.614 32.024 114.757 46.952 A 356.082 356.082 0 0 0 114.8 50.017 A 320.704 320.704 0 0 0 115.004 56.944 Q 115.516 70.232 117.2 96.417 A 8.285 8.285 0 0 0 117.232 97.123 A 10.601 10.601 0 0 0 117.3 97.717 A 28.631 28.631 0 0 1 117.334 97.962 Q 117.384 98.333 117.396 98.517 A 1.551 1.551 0 0 1 117.4 98.617 A 2002.292 2002.292 0 0 1 118.369 115.445 Q 119.745 141.377 119.602 154.453 A 203.179 203.179 0 0 1 119.6 154.617 Q 119.6 166.817 118 175.417 A 37.482 37.482 0 0 1 117.074 179.465 Q 116.489 181.476 115.705 183.19 A 23.098 23.098 0 0 1 115.6 183.417 Q 113.4 188.217 109.6 190.217 A 32.488 32.488 0 0 1 100.272 193.803 A 44.928 44.928 0 0 1 92.2 194.817 A 37.094 37.094 0 0 1 91.145 194.84 Q 85.844 194.885 76.6 193.617 Z M 803.756 115.126 A 64.868 64.868 0 0 0 799.6 122.017 A 8.236 8.236 0 0 0 799.46 122.311 Q 798.258 124.974 799.3 127.817 Q 800.4 130.817 803.2 132.217 A 8.21 8.21 0 0 0 803.74 132.463 Q 806.279 133.511 808.9 132.517 Q 811.8 131.417 813.2 128.617 Q 815.4 124.017 820.4 118.617 A 120.006 120.006 0 0 0 821.34 117.598 Q 822.771 116.029 823.515 115.078 A 11.072 11.072 0 0 0 824 114.417 Q 826 112.217 828 108.817 A 26.348 26.348 0 0 1 828.523 108.095 Q 831.044 104.742 833.4 104.017 A 31.083 31.083 0 0 1 833.433 104.184 Q 833.632 105.207 834 107.417 A 31.336 31.336 0 0 1 834.174 109.021 Q 834.533 113.297 834.2 120.617 A 64.655 64.655 0 0 1 834.185 121.929 Q 834.114 125.376 833.712 132.306 A 952.588 952.588 0 0 1 833.4 137.417 A 2036.451 2036.451 0 0 0 833.356 138.118 Q 833.047 143.091 833.006 144.176 A 7.174 7.174 0 0 0 833 144.417 A 378.776 378.776 0 0 0 832.865 146.932 Q 831.724 169.638 834 181.017 A 45.706 45.706 0 0 0 834.352 182.656 Q 835.167 186.141 836.448 189.038 A 25.067 25.067 0 0 0 840.6 195.617 A 21.577 21.577 0 0 0 841.288 196.358 Q 847.325 202.562 856.4 201.617 A 29.976 29.976 0 0 0 860.672 200.869 Q 871.93 198.046 881.2 186.417 A 49.455 49.455 0 0 0 882.227 185.117 Q 885.313 181.076 888.4 175.417 Q 894.581 187.204 899.626 193.722 A 40.551 40.551 0 0 0 903.4 198.017 Q 905.4 200.217 908.6 200.217 A 9.24 9.24 0 0 0 908.7 200.216 A 7.327 7.327 0 0 0 914 198.017 A 8.772 8.772 0 0 0 914.068 197.948 A 7.215 7.215 0 0 0 916.2 192.717 A 8.676 8.676 0 0 0 916.199 192.62 A 7.216 7.216 0 0 0 914 187.417 A 28.541 28.541 0 0 1 911.448 184.419 Q 907.581 179.283 902.4 169.217 Q 900.713 166.179 899.025 162.509 A 145.166 145.166 0 0 1 896.4 156.417 Q 901 142.217 903.1 126.817 Q 905.2 111.417 904 101.017 Q 903.8 99.617 903.4 97.617 A 14.52 14.52 0 0 0 903.307 97.148 Q 902.873 95.142 901.8 92.817 A 14.775 14.775 0 0 0 901.737 92.698 A 11.963 11.963 0 0 0 896.1 87.317 A 10.684 10.684 0 0 0 891.59 86.32 Q 891.113 86.32 890.628 86.362 A 12.806 12.806 0 0 0 888.2 86.817 Q 879.8 89.217 875.2 96.217 Q 871.6 101.817 870.6 110.617 Q 869.4 123.817 875.4 143.817 Q 877.4 150.217 880.2 157.017 Q 875.2 170.417 868.6 178.017 A 37.283 37.283 0 0 1 866.176 180.566 Q 863.928 182.708 861.634 184.078 A 16.545 16.545 0 0 1 855 186.417 A 6.071 6.071 0 0 1 854.924 186.424 Q 852.977 186.594 851.8 185.417 A 5.841 5.841 0 0 1 850.953 184.305 Q 850.112 182.915 849.427 180.543 A 37.291 37.291 0 0 1 848.8 178.017 A 33.968 33.968 0 0 1 848.649 177.189 Q 847.052 167.799 848.2 145.417 A 10.21 10.21 0 0 1 848.205 145.138 Q 848.236 144.051 848.464 140.491 A 850.096 850.096 0 0 1 848.6 138.417 A 1039.372 1039.372 0 0 0 848.866 133.944 Q 849.257 127.11 849.362 123.353 A 85.915 85.915 0 0 0 849.4 121.017 A 211.887 211.887 0 0 0 849.435 120.054 Q 849.763 110.392 849 105.817 A 51.495 51.495 0 0 0 848.98 105.649 Q 847.967 97.176 844.6 93.017 A 15.873 15.873 0 0 0 843.513 91.713 Q 839.137 87.021 832.575 88.31 A 19.002 19.002 0 0 0 830 89.017 Q 820.6 92.217 815.2 100.817 Q 813.481 103.16 812.617 104.283 A 36.763 36.763 0 0 1 812.2 104.817 A 54.139 54.139 0 0 1 811.088 106.252 Q 809.952 107.665 809 108.617 A 147.549 147.549 0 0 0 807.792 109.975 Q 805.955 112.067 805.012 113.335 A 13.535 13.535 0 0 0 804.4 114.217 A 59.014 59.014 0 0 0 803.756 115.126 Z M 125.4 119.017 L 126.4 118.217 Q 127.217 117.4 127.633 116.85 A 4.784 4.784 0 0 0 127.8 116.617 L 129.4 115.017 L 130.6 114.017 Q 135.4 109.217 141 105.017 A 0.296 0.296 0 0 0 141.109 104.986 Q 141.395 104.86 142.2 104.217 A 44.522 44.522 0 0 0 143.001 103.671 Q 144.093 102.908 144.557 102.459 A 3.664 3.664 0 0 0 144.6 102.417 A 59.123 59.123 0 0 0 145.015 102.138 Q 145.809 101.598 145.988 101.428 A 0.666 0.666 0 0 0 146 101.417 A 26.902 26.902 0 0 1 148.664 99.861 A 31.828 31.828 0 0 1 150 99.217 Q 151.4 98.617 152.6 98.217 A 11.562 11.562 0 0 1 154.107 98.014 Q 156.219 97.874 158 98.617 Q 160.4 99.417 161.6 101.617 Q 162.156 102.173 162.884 104.104 A 28.357 28.357 0 0 1 163 104.417 A 11.478 11.478 0 0 1 163.103 105.241 Q 163.181 106.083 163.196 107.238 A 44.049 44.049 0 0 1 163.2 107.817 Q 163.2 108.565 162.5 111.765 A 145.11 145.11 0 0 1 162.4 112.217 A 1.19 1.19 0 0 1 162.392 112.345 Q 162.378 112.472 162.34 112.647 A 5.828 5.828 0 0 1 162.3 112.817 Q 162.2 113.217 162.2 113.617 Q 162 113.817 162 114.217 A 1.275 1.275 0 0 1 161.981 114.442 Q 161.939 114.678 161.8 114.817 Q 161.8 114.97 161.682 115.241 A 3.598 3.598 0 0 1 161.6 115.417 L 161.6 115.817 Q 161.4 116.017 161.4 116.417 A 177.561 177.561 0 0 1 160.67 122.2 Q 160.276 124.985 159.758 128.139 A 394.346 394.346 0 0 1 158.6 134.817 Q 156 152.217 155.2 160.617 Q 154.4 168.617 154.6 175.817 A 258.093 258.093 0 0 1 155.477 175.162 Q 156.918 174.091 159.683 172.054 A 3891.402 3891.402 0 0 1 161.5 170.717 A 3738.199 3738.199 0 0 0 163.642 169.14 Q 166.328 167.16 167.69 166.147 A 234.229 234.229 0 0 0 168.4 165.617 A 269.327 269.327 0 0 1 174.147 161.698 Q 177.008 159.803 179.595 158.214 A 140.777 140.777 0 0 1 182.6 156.417 A 0.848 0.848 0 0 1 182.739 156.307 Q 182.892 156.209 183.142 156.11 A 5.089 5.089 0 0 1 183.4 156.017 Q 183.861 155.863 184.086 155.709 A 0.797 0.797 0 0 0 184.2 155.617 Q 183.8 153.017 183.4 147.417 Q 181.409 127.204 180.943 110.86 A 338.316 338.316 0 0 1 180.8 101.217 A 7.667 7.667 0 0 1 181.449 98.036 A 7.449 7.449 0 0 1 183 95.817 A 7.327 7.327 0 0 1 188.3 93.617 A 9.24 9.24 0 0 1 188.4 93.617 A 7.667 7.667 0 0 1 191.58 94.265 A 7.449 7.449 0 0 1 193.8 95.817 A 7.327 7.327 0 0 1 195.999 101.117 A 9.24 9.24 0 0 1 196 101.217 A 344.301 344.301 0 0 0 196.31 115.199 Q 196.586 121.959 197.109 129.664 A 785.351 785.351 0 0 0 198.4 146.017 Q 198.4 146.417 198.6 147.417 A 14.389 14.389 0 0 1 198.705 148.003 Q 198.79 148.541 198.799 148.928 A 3.868 3.868 0 0 1 198.8 149.017 Q 200.8 148.217 205.6 147.417 Q 219.738 145.48 227.124 155.733 A 25.942 25.942 0 0 1 227.6 156.417 A 15.604 15.604 0 0 1 230.194 165.162 Q 230.194 166.97 229.825 168.897 A 24.898 24.898 0 0 1 229.2 171.417 Q 227.456 177.229 222.897 183.23 A 54.006 54.006 0 0 1 222.6 183.617 A 38.771 38.771 0 0 1 218.072 188.391 Q 215.157 190.959 212.004 192.517 A 24.411 24.411 0 0 1 211.8 192.617 A 24.504 24.504 0 0 1 208.109 194.119 Q 205.471 194.938 203.004 194.938 A 14.137 14.137 0 0 1 196.6 193.417 A 12.597 12.597 0 0 1 193.446 190.976 A 16.243 16.243 0 0 1 192 189.217 Q 190.6 187.017 189.8 185.017 Q 188 180.017 187 174.617 A 2.66 2.66 0 0 1 186.888 174.352 Q 186.789 174.085 186.69 173.696 A 13.031 13.031 0 0 1 186.6 173.317 A 15.635 15.635 0 0 1 186.513 172.898 Q 186.437 172.507 186.412 172.244 A 2.458 2.458 0 0 1 186.4 172.017 Q 179.8 176.217 177.2 178.217 L 160.8 190.217 A 31.622 31.622 0 0 1 159.249 191.4 Q 157.35 192.767 154.6 194.417 Q 153.092 195.321 152.153 195.771 A 9.242 9.242 0 0 1 151.6 196.017 A 10.696 10.696 0 0 1 151.251 196.125 Q 150.613 196.314 149.4 196.617 Q 148.667 196.75 147.978 196.75 A 6.275 6.275 0 0 1 145.4 196.217 Q 142.2 195.217 140.8 192.617 Q 139.8 190.217 139.8 188.417 A 1.441 1.441 0 0 1 139.805 188.31 Q 139.818 188.138 139.867 187.823 A 18.563 18.563 0 0 1 139.9 187.617 A 9.332 9.332 0 0 0 139.957 187.228 Q 140 186.879 140 186.617 L 140 186.417 A 88.899 88.899 0 0 1 139.434 179.753 Q 138.994 170.773 140 159.417 Q 140.6 152.617 143.6 132.417 A 843.394 843.394 0 0 0 144.151 129.145 Q 145.152 123.122 145.369 121.129 A 17.756 17.756 0 0 0 145.4 120.817 Q 144.847 121.369 143.616 122.515 A 217.497 217.497 0 0 1 143.4 122.717 A 148.887 148.887 0 0 0 142.738 123.335 Q 141.8 124.217 141.2 124.817 L 138.4 127.617 A 25.496 25.496 0 0 1 137.908 128.095 Q 137.463 128.517 136.9 129.017 Q 136.034 129.787 135.631 130.186 A 9.627 9.627 0 0 0 135.6 130.217 Q 133.583 132.233 130.642 132.233 A 8.965 8.965 0 0 1 130.1 132.217 A 7.849 7.849 0 0 1 127.334 131.565 A 7.021 7.021 0 0 1 124.8 129.617 A 6.631 6.631 0 0 1 122.784 124.832 Q 122.78 124.529 122.8 124.217 A 7.425 7.425 0 0 1 123.591 121.236 A 7.16 7.16 0 0 1 125.4 119.017 Z M 427.8 119.017 L 428.8 118.217 Q 429.617 117.4 430.033 116.85 A 4.784 4.784 0 0 0 430.2 116.617 L 431.8 115.017 L 433 114.017 Q 437.8 109.217 443.4 105.017 A 0.296 0.296 0 0 0 443.509 104.986 Q 443.795 104.86 444.6 104.217 A 44.522 44.522 0 0 0 445.401 103.671 Q 446.493 102.908 446.957 102.459 A 3.664 3.664 0 0 0 447 102.417 A 59.123 59.123 0 0 0 447.415 102.138 Q 448.209 101.598 448.388 101.428 A 0.666 0.666 0 0 0 448.4 101.417 A 26.902 26.902 0 0 1 451.064 99.861 A 31.828 31.828 0 0 1 452.4 99.217 Q 453.8 98.617 455 98.217 A 11.562 11.562 0 0 1 456.507 98.014 Q 458.619 97.874 460.4 98.617 Q 462.8 99.417 464 101.617 Q 464.556 102.173 465.284 104.104 A 28.357 28.357 0 0 1 465.4 104.417 A 11.478 11.478 0 0 1 465.503 105.241 Q 465.581 106.083 465.596 107.238 A 44.049 44.049 0 0 1 465.6 107.817 Q 465.6 108.565 464.9 111.765 A 145.11 145.11 0 0 1 464.8 112.217 A 1.19 1.19 0 0 1 464.792 112.345 Q 464.778 112.472 464.74 112.647 A 5.828 5.828 0 0 1 464.7 112.817 Q 464.6 113.217 464.6 113.617 Q 464.4 113.817 464.4 114.217 A 1.275 1.275 0 0 1 464.381 114.442 Q 464.339 114.678 464.2 114.817 Q 464.2 114.97 464.082 115.241 A 3.598 3.598 0 0 1 464 115.417 L 464 115.817 Q 463.8 116.017 463.8 116.417 A 177.561 177.561 0 0 1 463.07 122.2 Q 462.676 124.985 462.158 128.139 A 394.346 394.346 0 0 1 461 134.817 Q 458.4 152.217 457.6 160.617 Q 456.8 168.617 457 175.817 A 258.093 258.093 0 0 1 457.877 175.162 Q 459.318 174.091 462.083 172.054 A 3891.402 3891.402 0 0 1 463.9 170.717 A 3738.199 3738.199 0 0 0 466.042 169.14 Q 468.728 167.16 470.09 166.147 A 234.229 234.229 0 0 0 470.8 165.617 A 269.327 269.327 0 0 1 476.547 161.698 Q 479.408 159.803 481.995 158.214 A 140.777 140.777 0 0 1 485 156.417 A 0.848 0.848 0 0 1 485.139 156.307 Q 485.292 156.209 485.542 156.11 A 5.089 5.089 0 0 1 485.8 156.017 Q 486.261 155.863 486.486 155.709 A 0.797 0.797 0 0 0 486.6 155.617 Q 486.2 153.017 485.8 147.417 Q 483.809 127.204 483.343 110.86 A 338.316 338.316 0 0 1 483.2 101.217 A 7.667 7.667 0 0 1 483.849 98.036 A 7.449 7.449 0 0 1 485.4 95.817 A 7.327 7.327 0 0 1 490.7 93.617 A 9.24 9.24 0 0 1 490.8 93.617 A 7.667 7.667 0 0 1 493.98 94.265 A 7.449 7.449 0 0 1 496.2 95.817 A 7.327 7.327 0 0 1 498.399 101.117 A 9.24 9.24 0 0 1 498.4 101.217 A 344.301 344.301 0 0 0 498.71 115.199 Q 498.986 121.959 499.509 129.664 A 785.351 785.351 0 0 0 500.8 146.017 Q 500.8 146.417 501 147.417 A 14.389 14.389 0 0 1 501.105 148.003 Q 501.19 148.541 501.199 148.928 A 3.868 3.868 0 0 1 501.2 149.017 Q 503.2 148.217 508 147.417 Q 522.138 145.48 529.524 155.733 A 25.942 25.942 0 0 1 530 156.417 A 15.604 15.604 0 0 1 532.594 165.162 Q 532.594 166.97 532.225 168.897 A 24.898 24.898 0 0 1 531.6 171.417 Q 529.856 177.229 525.297 183.23 A 54.006 54.006 0 0 1 525 183.617 A 38.771 38.771 0 0 1 520.472 188.391 Q 517.557 190.959 514.404 192.517 A 24.411 24.411 0 0 1 514.2 192.617 A 24.504 24.504 0 0 1 510.509 194.119 Q 507.871 194.938 505.404 194.938 A 14.137 14.137 0 0 1 499 193.417 A 12.597 12.597 0 0 1 495.846 190.976 A 16.243 16.243 0 0 1 494.4 189.217 Q 493 187.017 492.2 185.017 Q 490.4 180.017 489.4 174.617 A 2.66 2.66 0 0 1 489.288 174.352 Q 489.189 174.085 489.09 173.696 A 13.031 13.031 0 0 1 489 173.317 A 15.635 15.635 0 0 1 488.913 172.898 Q 488.837 172.507 488.812 172.244 A 2.458 2.458 0 0 1 488.8 172.017 Q 482.2 176.217 479.6 178.217 L 463.2 190.217 A 31.622 31.622 0 0 1 461.649 191.4 Q 459.75 192.767 457 194.417 Q 455.492 195.321 454.553 195.771 A 9.242 9.242 0 0 1 454 196.017 A 10.696 10.696 0 0 1 453.651 196.125 Q 453.013 196.314 451.8 196.617 Q 451.067 196.75 450.378 196.75 A 6.275 6.275 0 0 1 447.8 196.217 Q 444.6 195.217 443.2 192.617 Q 442.2 190.217 442.2 188.417 A 1.441 1.441 0 0 1 442.205 188.31 Q 442.218 188.138 442.267 187.823 A 18.563 18.563 0 0 1 442.3 187.617 A 9.332 9.332 0 0 0 442.357 187.228 Q 442.4 186.879 442.4 186.617 L 442.4 186.417 A 88.899 88.899 0 0 1 441.834 179.753 Q 441.394 170.773 442.4 159.417 Q 443 152.617 446 132.417 A 843.394 843.394 0 0 0 446.551 129.145 Q 447.552 123.122 447.769 121.129 A 17.756 17.756 0 0 0 447.8 120.817 Q 447.247 121.369 446.016 122.515 A 217.497 217.497 0 0 1 445.8 122.717 A 148.887 148.887 0 0 0 445.138 123.335 Q 444.2 124.217 443.6 124.817 L 440.8 127.617 A 25.496 25.496 0 0 1 440.308 128.095 Q 439.863 128.517 439.3 129.017 Q 438.434 129.787 438.031 130.186 A 9.627 9.627 0 0 0 438 130.217 Q 435.983 132.233 433.042 132.233 A 8.965 8.965 0 0 1 432.5 132.217 A 7.849 7.849 0 0 1 429.734 131.565 A 7.021 7.021 0 0 1 427.2 129.617 A 6.631 6.631 0 0 1 425.184 124.832 Q 425.18 124.529 425.2 124.217 A 7.425 7.425 0 0 1 425.991 121.236 A 7.16 7.16 0 0 1 427.8 119.017 Z M 638 119.017 L 639 118.217 Q 639.817 117.4 640.233 116.85 A 4.784 4.784 0 0 0 640.4 116.617 L 642 115.017 L 643.2 114.017 Q 648 109.217 653.6 105.017 A 0.296 0.296 0 0 0 653.709 104.986 Q 653.995 104.86 654.8 104.217 A 44.522 44.522 0 0 0 655.601 103.671 Q 656.693 102.908 657.157 102.459 A 3.664 3.664 0 0 0 657.2 102.417 A 59.123 59.123 0 0 0 657.615 102.138 Q 658.409 101.598 658.588 101.428 A 0.666 0.666 0 0 0 658.6 101.417 A 26.902 26.902 0 0 1 661.264 99.861 A 31.828 31.828 0 0 1 662.6 99.217 Q 664 98.617 665.2 98.217 A 11.562 11.562 0 0 1 666.707 98.014 Q 668.819 97.874 670.6 98.617 Q 673 99.417 674.2 101.617 Q 674.756 102.173 675.484 104.104 A 28.357 28.357 0 0 1 675.6 104.417 A 11.478 11.478 0 0 1 675.703 105.241 Q 675.781 106.083 675.796 107.238 A 44.049 44.049 0 0 1 675.8 107.817 Q 675.8 108.565 675.1 111.765 A 145.11 145.11 0 0 1 675 112.217 A 1.19 1.19 0 0 1 674.992 112.345 Q 674.978 112.472 674.94 112.647 A 5.828 5.828 0 0 1 674.9 112.817 Q 674.8 113.217 674.8 113.617 Q 674.6 113.817 674.6 114.217 A 1.275 1.275 0 0 1 674.581 114.442 Q 674.539 114.678 674.4 114.817 Q 674.4 114.97 674.282 115.241 A 3.598 3.598 0 0 1 674.2 115.417 L 674.2 115.817 Q 674 116.017 674 116.417 A 177.561 177.561 0 0 1 673.27 122.2 Q 672.876 124.985 672.358 128.139 A 394.346 394.346 0 0 1 671.2 134.817 Q 668.6 152.217 667.8 160.617 Q 667 168.617 667.2 175.817 A 258.093 258.093 0 0 1 668.077 175.162 Q 669.518 174.091 672.283 172.054 A 3891.402 3891.402 0 0 1 674.1 170.717 A 3738.199 3738.199 0 0 0 676.242 169.14 Q 678.928 167.16 680.29 166.147 A 234.229 234.229 0 0 0 681 165.617 A 269.327 269.327 0 0 1 686.747 161.698 Q 689.608 159.803 692.195 158.214 A 140.777 140.777 0 0 1 695.2 156.417 A 0.848 0.848 0 0 1 695.339 156.307 Q 695.492 156.209 695.742 156.11 A 5.089 5.089 0 0 1 696 156.017 Q 696.461 155.863 696.686 155.709 A 0.797 0.797 0 0 0 696.8 155.617 Q 696.4 153.017 696 147.417 Q 694.009 127.204 693.543 110.86 A 338.316 338.316 0 0 1 693.4 101.217 A 7.667 7.667 0 0 1 694.049 98.036 A 7.449 7.449 0 0 1 695.6 95.817 A 7.327 7.327 0 0 1 700.9 93.617 A 9.24 9.24 0 0 1 701 93.617 A 7.667 7.667 0 0 1 704.18 94.265 A 7.449 7.449 0 0 1 706.4 95.817 A 7.327 7.327 0 0 1 708.599 101.117 A 9.24 9.24 0 0 1 708.6 101.217 A 344.301 344.301 0 0 0 708.91 115.199 Q 709.186 121.959 709.709 129.664 A 785.351 785.351 0 0 0 711 146.017 Q 711 146.417 711.2 147.417 A 14.389 14.389 0 0 1 711.305 148.003 Q 711.39 148.541 711.399 148.928 A 3.868 3.868 0 0 1 711.4 149.017 Q 713.4 148.217 718.2 147.417 Q 732.338 145.48 739.724 155.733 A 25.942 25.942 0 0 1 740.2 156.417 A 15.604 15.604 0 0 1 742.794 165.162 Q 742.794 166.97 742.425 168.897 A 24.898 24.898 0 0 1 741.8 171.417 Q 740.056 177.229 735.497 183.23 A 54.006 54.006 0 0 1 735.2 183.617 A 38.771 38.771 0 0 1 730.672 188.391 Q 727.757 190.959 724.604 192.517 A 24.411 24.411 0 0 1 724.4 192.617 A 24.504 24.504 0 0 1 720.709 194.119 Q 718.071 194.938 715.604 194.938 A 14.137 14.137 0 0 1 709.2 193.417 A 12.597 12.597 0 0 1 706.046 190.976 A 16.243 16.243 0 0 1 704.6 189.217 Q 703.2 187.017 702.4 185.017 Q 700.6 180.017 699.6 174.617 A 2.66 2.66 0 0 1 699.488 174.352 Q 699.389 174.085 699.29 173.696 A 13.031 13.031 0 0 1 699.2 173.317 A 15.635 15.635 0 0 1 699.113 172.898 Q 699.037 172.507 699.012 172.244 A 2.458 2.458 0 0 1 699 172.017 Q 692.4 176.217 689.8 178.217 L 673.4 190.217 A 31.622 31.622 0 0 1 671.849 191.4 Q 669.95 192.767 667.2 194.417 Q 665.692 195.321 664.753 195.771 A 9.242 9.242 0 0 1 664.2 196.017 A 10.696 10.696 0 0 1 663.851 196.125 Q 663.213 196.314 662 196.617 Q 661.267 196.75 660.578 196.75 A 6.275 6.275 0 0 1 658 196.217 Q 654.8 195.217 653.4 192.617 Q 652.4 190.217 652.4 188.417 A 1.441 1.441 0 0 1 652.405 188.31 Q 652.418 188.138 652.467 187.823 A 18.563 18.563 0 0 1 652.5 187.617 A 9.332 9.332 0 0 0 652.557 187.228 Q 652.6 186.879 652.6 186.617 L 652.6 186.417 A 88.899 88.899 0 0 1 652.034 179.753 Q 651.594 170.773 652.6 159.417 Q 653.2 152.617 656.2 132.417 A 843.394 843.394 0 0 0 656.751 129.145 Q 657.752 123.122 657.969 121.129 A 17.756 17.756 0 0 0 658 120.817 Q 657.447 121.369 656.216 122.515 A 217.497 217.497 0 0 1 656 122.717 A 148.887 148.887 0 0 0 655.338 123.335 Q 654.4 124.217 653.8 124.817 L 651 127.617 A 25.496 25.496 0 0 1 650.508 128.095 Q 650.063 128.517 649.5 129.017 Q 648.634 129.787 648.231 130.186 A 9.627 9.627 0 0 0 648.2 130.217 Q 646.183 132.233 643.242 132.233 A 8.965 8.965 0 0 1 642.7 132.217 A 7.849 7.849 0 0 1 639.934 131.565 A 7.021 7.021 0 0 1 637.4 129.617 A 6.631 6.631 0 0 1 635.384 124.832 Q 635.38 124.529 635.4 124.217 A 7.425 7.425 0 0 1 636.191 121.236 A 7.16 7.16 0 0 1 638 119.017 Z M 917 109.817 L 917.2 109.617 A 0.902 0.902 0 0 0 917.303 109.495 Q 917.354 109.422 917.378 109.349 A 0.419 0.419 0 0 0 917.4 109.217 L 917.6 108.817 L 918.2 107.617 A 45.001 45.001 0 0 1 920.036 104.996 Q 922.013 102.392 923.8 101.017 A 14.681 14.681 0 0 1 932.489 98.264 Q 933.601 98.264 934.763 98.412 A 19.581 19.581 0 0 1 934.8 98.417 A 10.7 10.7 0 0 1 940.029 100.897 A 13.911 13.911 0 0 1 941.2 102.017 Q 942.41 103.227 944.068 105.631 A 60.848 60.848 0 0 1 944.6 106.417 A 52.88 52.88 0 0 1 945.932 108.886 Q 947.186 111.348 948.733 114.835 A 235.934 235.934 0 0 1 950.2 118.217 Q 955.8 133.017 959.4 149.617 Q 963.834 151.095 969.533 153.927 A 151.135 151.135 0 0 1 975.4 157.017 Q 986.6 163.217 995.6 170.417 L 995.6 163.617 A 196.133 196.133 0 0 0 995.594 162.225 Q 995.58 160.285 995.532 157.032 A 1757.481 1757.481 0 0 0 995.5 154.917 A 787.459 787.459 0 0 1 995.406 145.748 A 694.749 694.749 0 0 1 995.4 142.817 Q 995.2 121.417 995.2 100.217 A 7.667 7.667 0 0 1 995.849 97.036 A 7.449 7.449 0 0 1 997.4 94.817 A 7.327 7.327 0 0 1 1002.7 92.617 A 9.24 9.24 0 0 1 1002.8 92.617 A 7.667 7.667 0 0 1 1005.98 93.265 A 7.449 7.449 0 0 1 1008.2 94.817 A 7.327 7.327 0 0 1 1010.399 100.117 A 9.24 9.24 0 0 1 1010.4 100.217 Q 1010.4 121.217 1010.6 142.817 Q 1010.6 148.417 1010.7 154.817 Q 1010.8 161.217 1010.8 163.617 L 1010.8 185.617 Q 1010.8 187.275 1010.686 188.252 A 7.089 7.089 0 0 1 1010.6 188.817 A 7.225 7.225 0 0 1 1010.468 190.229 A 5.481 5.481 0 0 1 1010 191.617 A 4.718 4.718 0 0 1 1009.006 193.809 A 5.445 5.445 0 0 1 1009 193.817 A 14.593 14.593 0 0 1 1007.95 195.11 Q 1006.875 196.279 1005.8 196.817 Q 1002.702 198.457 999.438 197.44 A 9.805 9.805 0 0 1 998.8 197.217 A 9.784 9.784 0 0 1 997.187 196.5 Q 996.125 195.917 995 195.017 A 9.267 9.267 0 0 1 994.037 194.168 Q 992.725 192.86 991 190.417 Q 990.694 189.957 990.212 189.205 A 188.511 188.511 0 0 1 989.9 188.717 A 22.111 22.111 0 0 0 989.569 188.21 Q 989.254 187.744 989.015 187.456 A 3.476 3.476 0 0 0 988.8 187.217 Q 986.428 183.385 986.22 182.883 A 0.219 0.219 0 0 1 986.2 182.817 L 985.4 181.617 A 99.688 99.688 0 0 0 977.721 176.045 Q 973.817 173.472 969.302 170.939 A 163.765 163.765 0 0 0 968 170.217 Q 967.234 169.91 965.941 169.252 A 68.73 68.73 0 0 1 965.1 168.817 Q 963.534 167.992 962.579 167.44 A 28.013 28.013 0 0 1 962.2 167.217 Q 963.2 176.017 962.6 184.217 Q 961.6 192.617 958 197.417 A 15.434 15.434 0 0 1 954.035 201.106 Q 949.624 203.888 943.6 202.817 A 19.537 19.537 0 0 1 929.61 194.047 A 28.66 28.66 0 0 1 927.8 191.017 Q 923.2 182.817 924.2 172.617 Q 925.2 161.617 931.6 154.817 Q 936.8 149.417 943.4 148.217 Q 940.2 134.617 936 123.817 Q 933.421 117.739 932.03 115.053 A 30.928 30.928 0 0 0 931.8 114.617 L 931.6 115.017 L 931.4 115.417 A 3.843 3.843 0 0 0 931.088 115.767 Q 930.934 115.964 930.829 116.16 A 2.284 2.284 0 0 0 930.8 116.217 L 930.6 116.817 Q 930.6 117.017 930.4 117.017 L 930.2 117.417 A 6.564 6.564 0 0 1 930.081 117.642 Q 929.875 118.017 929.5 118.617 A 34.162 34.162 0 0 0 929.269 118.992 Q 928.95 119.517 928.8 119.817 Q 928.486 120.444 928.172 120.703 A 0.921 0.921 0 0 1 928 120.817 A 7.477 7.477 0 0 1 923.106 124.015 A 8.673 8.673 0 0 1 923.1 124.017 A 8.036 8.036 0 0 1 921.698 124.166 Q 919.506 124.2 917.583 122.94 A 8.721 8.721 0 0 1 917.4 122.817 A 6.407 6.407 0 0 1 914.391 118.592 A 8.181 8.181 0 0 1 914.3 118.117 A 9.09 9.09 0 0 1 914.181 116.68 Q 914.178 114.402 915.4 112.417 A 1.884 1.884 0 0 0 915.512 112.293 Q 915.699 112.068 916 111.617 Q 916 111.452 916.272 111.014 A 7.602 7.602 0 0 1 916.4 110.817 Q 916.8 110.217 917 109.817 Z M 771.2 108.417 L 771.2 86.217 A 4948.578 4948.578 0 0 0 771.19 76.093 Q 771.164 63.363 771.067 56.716 A 346.97 346.97 0 0 0 771 53.217 Q 770.4 39.817 769.2 34.217 L 766 37.417 L 765.6 37.817 Q 762.8 40.817 760 43.617 A 23.395 23.395 0 0 1 756.589 46.191 Q 754.376 47.548 752.103 48.141 A 14.552 14.552 0 0 1 751.8 48.217 A 20.241 20.241 0 0 1 747.579 48.671 Q 742.595 48.671 737.907 46.073 A 27.089 27.089 0 0 1 734 43.417 A 30.931 30.931 0 0 1 730.883 40.698 Q 727.825 37.685 724.349 32.996 A 110.086 110.086 0 0 1 723.2 31.417 A 196.535 196.535 0 0 0 721.334 28.735 Q 720.407 27.427 719.57 26.301 A 96.428 96.428 0 0 0 718.6 25.017 A 145.395 145.395 0 0 0 717.756 23.833 Q 716.47 22.049 715.784 21.241 A 7.233 7.233 0 0 0 715.4 20.817 A 7.327 7.327 0 0 1 713.201 15.516 A 9.24 9.24 0 0 1 713.2 15.417 A 7.667 7.667 0 0 1 713.849 12.236 A 7.449 7.449 0 0 1 715.4 10.017 A 7.327 7.327 0 0 1 720.7 7.817 A 9.24 9.24 0 0 1 720.8 7.817 Q 724 7.817 726 10.017 Q 728.8 12.817 731 16.017 Q 733.777 20.101 735.087 21.917 A 47.255 47.255 0 0 0 735.6 22.617 A 70.498 70.498 0 0 0 738.568 26.57 Q 744.526 33.901 748.4 33.417 L 748.4 33.217 Q 748.727 33.053 749.587 32.49 A 61.554 61.554 0 0 0 750 32.217 Q 752 30.217 754.6 27.417 L 755 27.017 Q 757.982 23.836 760.174 21.84 A 50.679 50.679 0 0 1 760.2 21.817 A 25.708 25.708 0 0 1 763.175 19.536 Q 764.908 18.408 766.641 17.748 A 15.524 15.524 0 0 1 767 17.617 A 12.981 12.981 0 0 1 769.452 16.97 Q 774.04 16.248 778 19.417 A 13.56 13.56 0 0 1 781.396 23.471 Q 782.371 25.202 783.046 27.369 A 26.32 26.32 0 0 1 783.4 28.617 Q 785.082 34.276 785.829 45.433 A 238.372 238.372 0 0 1 786.2 52.817 Q 786.363 59.515 786.393 77.558 A 5239.203 5239.203 0 0 1 786.4 86.217 L 786.4 108.417 Q 786.564 137.957 788.748 155.646 A 147.476 147.476 0 0 0 789.8 162.817 Q 792 174.417 795 179.617 A 17.758 17.758 0 0 0 796.031 181.211 Q 797.203 182.81 798.374 183.445 A 3.443 3.443 0 0 0 799.4 183.817 A 7.127 7.127 0 0 1 804.24 186.639 A 9.114 9.114 0 0 1 804.3 186.717 A 7.431 7.431 0 0 1 805.87 191.325 A 8.799 8.799 0 0 1 805.8 192.417 A 7.622 7.622 0 0 1 804.782 195.45 A 7.389 7.389 0 0 1 802.9 197.517 A 7.431 7.431 0 0 1 798.292 199.086 A 8.799 8.799 0 0 1 797.2 199.017 Q 787.6 197.617 781.6 186.817 Q 778.024 180.442 776.02 171.168 A 93.808 93.808 0 0 1 775 165.617 A 175.804 175.804 0 0 1 773.325 153.33 Q 771.488 135.729 771.2 108.417 Z M 544.6 132.417 L 544.4 132.217 A 1.201 1.201 0 0 0 544.393 132.083 Q 544.363 131.817 544.2 131.817 Q 539 127.617 539.4 121.217 A 14.652 14.652 0 0 1 541.048 115.112 Q 542.028 113.177 543.589 111.271 A 26.348 26.348 0 0 1 543.8 111.017 A 40.123 40.123 0 0 1 552.461 102.999 Q 557.303 99.632 563.6 97.017 A 59.762 59.762 0 0 1 573.167 94.213 Q 577.836 93.279 582.277 93.279 A 39.694 39.694 0 0 1 591.8 94.417 A 38.238 38.238 0 0 1 614.866 110.597 A 52.867 52.867 0 0 1 617.6 115.017 A 72.907 72.907 0 0 1 623.006 128.36 A 91.362 91.362 0 0 1 625.2 137.417 A 112.351 112.351 0 0 1 626.266 143.194 Q 627.339 149.906 628.147 159.008 A 355.651 355.651 0 0 1 628.2 159.617 A 5.751 5.751 0 0 0 628.205 159.83 Q 628.218 160.174 628.267 160.804 A 72.145 72.145 0 0 0 628.3 161.217 Q 628.4 162.417 628.4 163.617 Q 628.589 164.938 629.668 176.413 A 4472.395 4472.395 0 0 1 629.8 177.817 A 149.669 149.669 0 0 0 630.752 183.947 Q 631.413 187.667 632.2 190.817 Q 632.967 193.692 631.529 196.199 A 8.12 8.12 0 0 1 631.4 196.417 Q 629.8 199.017 626.8 199.817 Q 623.925 200.583 621.417 199.146 A 8.12 8.12 0 0 1 621.2 199.017 Q 618.6 197.417 617.8 194.417 A 97.115 97.115 0 0 1 616.515 188.434 Q 615.951 185.365 615.493 181.94 A 163.896 163.896 0 0 1 615.2 179.617 Q 614.826 176.997 613.926 166.321 A 1620.078 1620.078 0 0 1 613.8 164.817 Q 613.438 161.558 613.404 161.085 A 1.122 1.122 0 0 1 613.4 161.017 Q 612.495 150.311 611.477 144.039 A 68.548 68.548 0 0 0 610.8 140.417 A 79.439 79.439 0 0 0 608.492 131.579 Q 606.763 126.292 604.4 122.017 A 30.816 30.816 0 0 0 599.663 115.339 A 22.269 22.269 0 0 0 588.4 108.817 Q 579.6 106.617 569.2 110.817 A 47.223 47.223 0 0 0 563.481 113.504 Q 560.687 115.071 558.581 116.868 A 20.913 20.913 0 0 0 555.4 120.217 L 554.6 121.017 Q 556.088 122.504 556.884 123.992 A 9.137 9.137 0 0 1 557 124.217 Q 557.492 125.037 558.389 127.204 A 93.981 93.981 0 0 1 558.8 128.217 Q 559.8 132.617 560.6 137.617 Q 561.406 143.932 561.942 152.595 A 438.637 438.637 0 0 1 562.4 161.617 Q 562.6 162.417 562.7 164.217 A 98.571 98.571 0 0 1 562.744 165.067 Q 562.787 165.985 562.797 166.64 A 24.498 24.498 0 0 1 562.8 167.017 A 8.578 8.578 0 0 0 562.804 167.226 Q 562.819 167.81 562.9 169.517 A 242.18 242.18 0 0 1 562.939 170.364 Q 563 171.745 563 172.215 A 5.375 5.375 0 0 1 563 172.217 Q 563.8 190.417 564.6 194.017 Q 565.367 196.892 563.929 199.399 A 8.12 8.12 0 0 1 563.8 199.617 Q 562.2 202.217 559.2 203.017 Q 556.325 203.783 553.817 202.346 A 8.12 8.12 0 0 1 553.6 202.217 Q 551 200.617 550.2 197.617 Q 549.215 192.365 548.5 179.168 A 604.035 604.035 0 0 1 548.2 173.017 A 9 9 0 0 0 548.196 172.803 Q 548.184 172.312 548.127 171.02 A 443.275 443.275 0 0 0 548.1 170.417 A 287.628 287.628 0 0 1 548.066 169.648 Q 548.002 168.162 548 167.655 A 8.117 8.117 0 0 1 548 167.617 Q 548 166.851 547.941 165.675 A 85.034 85.034 0 0 0 547.9 164.917 A 30.97 30.97 0 0 0 547.844 164.123 Q 547.776 163.323 547.679 162.788 A 5.848 5.848 0 0 0 547.6 162.417 A 392.106 392.106 0 0 0 547.117 153.406 Q 546.852 149.399 546.523 145.952 A 158.945 158.945 0 0 0 545.8 139.617 Q 545.2 135.017 544.6 132.417 Z M 95 17.617 L 94.6 19.017 Q 94.447 19.476 94.177 20.053 A 16.066 16.066 0 0 1 94 20.417 A 114.752 114.752 0 0 1 92.664 23.788 Q 91.238 27.217 90 29.417 Q 87.4 34.417 83.4 38.217 Q 76.8 44.217 67.2 45.217 A 26.08 26.08 0 0 1 64.964 45.444 Q 60.943 45.688 55.224 44.999 A 102.306 102.306 0 0 1 52.4 44.617 L 51.8 44.617 Q 42.502 43.365 38.479 44.032 A 9.693 9.693 0 0 0 37.6 44.217 A 12.179 12.179 0 0 0 32.51 47.302 Q 31.038 48.746 29.76 50.775 A 27.074 27.074 0 0 0 28.6 52.817 A 2.664 2.664 0 0 0 28.328 53.301 Q 27.825 54.404 27.2 57.217 L 27.2 59.417 L 27.2 60.017 L 27.2 60.217 L 27.8 61.417 L 28.6 63.017 L 28.8 63.017 Q 28.987 62.83 29.875 62.205 A 56.208 56.208 0 0 1 30 62.117 Q 31 61.417 31.2 61.417 Q 34.254 59.508 36.215 58.51 A 29.269 29.269 0 0 1 36.4 58.417 Q 39.6 57.017 43.4 56.617 Q 49.2 55.817 55.6 56.817 Q 58.663 57.276 62.546 58.204 A 133.145 133.145 0 0 1 65 58.817 Q 65.6 58.817 68.6 59.817 Q 70.4 60.417 71.4 60.417 A 12.502 12.502 0 0 0 72.265 60.622 Q 73.446 60.855 74.276 60.737 A 2.976 2.976 0 0 0 74.8 60.617 A 3.403 3.403 0 0 0 75.701 60.34 Q 76.538 59.965 77.583 59.119 A 18.608 18.608 0 0 0 78.4 58.417 Q 81.8 55.017 85.4 48.617 A 7.532 7.532 0 0 1 87.208 46.453 A 6.881 6.881 0 0 1 90 45.117 Q 92.658 44.497 95.158 45.681 A 9.445 9.445 0 0 1 95.8 46.017 A 7.851 7.851 0 0 1 99.257 50.572 A 10.055 10.055 0 0 1 99.3 50.717 A 8.179 8.179 0 0 1 99.586 52.154 Q 99.822 54.431 98.6 56.417 Q 90.179 70.733 81.19 74.553 A 17.677 17.677 0 0 1 77.8 75.617 A 18.566 18.566 0 0 1 75 75.95 Q 72.067 76.083 68.6 75.417 Q 67.4 75.217 64.6 74.417 Q 61.2 73.617 61 73.417 Q 54.118 71.428 48.405 71.428 A 29.979 29.979 0 0 0 45 71.617 Q 42.8 72.017 39.6 74.017 A 0.344 0.344 0 0 0 39.49 74.039 Q 39.318 74.098 39.025 74.319 A 5.638 5.638 0 0 0 38.9 74.417 A 14.702 14.702 0 0 1 38.236 74.917 A 17.563 17.563 0 0 1 37.8 75.217 Q 37.2 75.617 37 75.817 Q 35 77.017 33.8 77.617 A 15.498 15.498 0 0 1 30.78 78.719 Q 29.286 79.086 27.823 79.086 A 11.816 11.816 0 0 1 23.4 78.217 A 12.324 12.324 0 0 1 18.987 75.308 Q 16.081 72.429 13.717 67.202 A 47.593 47.593 0 0 1 13.2 66.017 A 16.02 16.02 0 0 1 12.01 61.535 Q 11.72 59.141 12.017 56.395 A 29.526 29.526 0 0 1 12.2 55.017 Q 13.2 50.017 15 46.017 A 38.605 38.605 0 0 1 20.289 38.033 A 26.028 26.028 0 0 1 33.8 29.617 A 22.193 22.193 0 0 1 37.619 28.783 Q 40.402 28.415 43.717 28.578 A 44.777 44.777 0 0 1 44.4 28.617 Q 46.679 28.617 50.806 29.078 A 167.341 167.341 0 0 1 53.6 29.417 A 1.926 1.926 0 0 0 54.05 29.578 A 1.633 1.633 0 0 0 54.4 29.617 Q 62.2 30.417 65.6 30.217 Q 69.937 29.675 72.641 27.5 A 10.395 10.395 0 0 0 73.2 27.017 Q 75.939 24.6 78.548 18.289 A 69.645 69.645 0 0 0 79.8 15.017 Q 80.2 14.217 80.4 13.617 A 12.275 12.275 0 0 0 80.566 13.181 Q 80.783 12.571 80.799 12.263 A 0.906 0.906 0 0 0 80.8 12.217 A 132.091 132.091 0 0 1 82.297 8.541 Q 83.169 6.485 84.2 4.217 A 7.3 7.3 0 0 1 88.556 0.465 A 9.386 9.386 0 0 1 88.7 0.417 Q 89.992 0 91.197 0 A 6.661 6.661 0 0 1 94.4 0.817 A 8.566 8.566 0 0 1 96.924 2.955 A 8.023 8.023 0 0 1 98.2 5.317 A 7.48 7.48 0 0 1 98.599 7.231 Q 98.715 8.859 98.057 10.454 A 8.547 8.547 0 0 1 97.8 11.017 Q 97.471 11.675 96.804 13.279 A 141.335 141.335 0 0 0 96.5 14.017 Q 95.6 16.217 95 17.617 Z M 518.6 59.217 L 518.6 58.617 L 518.6 58.417 L 518.6 58.217 Q 518.8 55.017 521.1 52.917 A 7.101 7.101 0 0 1 526.05 50.999 A 8.812 8.812 0 0 1 526.6 51.017 Q 529.8 51.217 531.9 53.517 A 7.101 7.101 0 0 1 533.817 58.467 A 8.812 8.812 0 0 1 533.8 59.017 Q 533.8 60.417 533.4 63.217 Q 533.247 64.595 533.211 67.028 A 108.031 108.031 0 0 0 533.2 68.617 Q 533.2 68.889 533.154 69.253 A 9.456 9.456 0 0 1 533.1 69.617 A 9.332 9.332 0 0 0 533.043 70.006 Q 533 70.354 533 70.617 A 121.064 121.064 0 0 0 540.853 68.91 A 132.746 132.746 0 0 0 542 68.617 A 180.735 180.735 0 0 0 550.578 65.982 Q 558.528 63.34 568.4 59.417 A 809.222 809.222 0 0 0 586.875 51.946 Q 601.457 45.825 612.4 40.417 A 7.735 7.735 0 0 1 614.455 39.715 Q 616.128 39.405 617.836 39.931 A 8.256 8.256 0 0 1 618.1 40.017 A 8.1 8.1 0 0 1 622.575 43.773 A 10.23 10.23 0 0 1 622.6 43.817 A 6.661 6.661 0 0 1 623.417 47.02 Q 623.417 48.225 623 49.517 Q 622 52.617 619.2 54.017 Q 599.4 63.817 574 73.617 A 430.524 430.524 0 0 1 562.563 77.873 Q 553.5 81.092 546 83.217 Q 538 85.417 534.6 85.817 Q 527.8 86.417 524.2 85.017 A 8.377 8.377 0 0 1 520.915 82.812 A 10.251 10.251 0 0 1 520.4 82.217 A 1.687 1.687 0 0 1 520.213 81.98 Q 519.797 81.37 519 79.617 Q 518.6 78.417 518.2 75.617 A 69.251 69.251 0 0 1 518.002 72.858 Q 517.887 70.584 517.965 68.696 A 32.281 32.281 0 0 1 518 68.017 A 21.798 21.798 0 0 1 518.006 67.553 Q 518.02 66.906 518.068 65.822 A 195.824 195.824 0 0 1 518.1 65.117 Q 518.2 63.017 518.2 62.017 A 5.322 5.322 0 0 1 518.206 61.78 Q 518.225 61.368 518.3 60.617 Q 518.377 59.847 518.513 59.433 A 1.613 1.613 0 0 1 518.6 59.217 Z M 304.6 99.217 Q 304.8 100.817 304.6 111.417 Q 304.234 130.828 304.706 143.7 A 286.924 286.924 0 0 0 304.8 146.017 A 318.74 318.74 0 0 0 305.351 157.696 Q 306.066 168.382 307.461 175.89 A 86.997 86.997 0 0 0 307.8 177.617 Q 308.912 182.991 310.367 185.962 A 14.893 14.893 0 0 0 310.6 186.417 Q 310.734 186.55 310.778 186.684 A 0.419 0.419 0 0 1 310.8 186.817 A 6.817 6.817 0 0 1 314.899 189.068 A 8.849 8.849 0 0 1 315.2 189.417 Q 317 191.617 317 194.417 A 8.249 8.249 0 0 1 316.262 197.424 A 7.609 7.609 0 0 1 314.6 199.717 A 7.506 7.506 0 0 1 309.3 201.816 A 9.68 9.68 0 0 1 309.2 201.817 Q 305 201.817 301.6 199.017 Q 299.4 197.017 297.4 193.817 Q 295.403 190.393 294.016 185.138 A 66.584 66.584 0 0 1 293 180.617 A 132.27 132.27 0 0 1 291.272 170.03 Q 289.984 159.742 289.6 146.417 A 341.865 341.865 0 0 1 289.354 138.725 Q 289.105 127.147 289.4 111.217 A 774.393 774.393 0 0 0 289.444 108.804 Q 289.575 100.842 289.4 99.617 Q 289.4 96.417 291.5 94.117 Q 293.6 91.817 296.8 91.817 A 8.449 8.449 0 0 1 297.327 91.8 A 6.956 6.956 0 0 1 302.3 93.817 A 7.162 7.162 0 0 1 304.598 99.018 A 8.777 8.777 0 0 1 304.6 99.217 Z M 255 101.217 Q 255 102.217 254.8 113.417 Q 254.6 127.017 255 148.017 Q 256 169.017 258.2 179.617 Q 259.312 184.991 260.767 187.962 A 14.893 14.893 0 0 0 261 188.417 A 1.201 1.201 0 0 0 261.007 188.55 Q 261.037 188.817 261.2 188.817 Q 263.8 189.417 265.5 191.617 A 8.165 8.165 0 0 1 266.869 194.199 A 7.453 7.453 0 0 1 267.2 196.417 A 7.667 7.667 0 0 1 266.551 199.597 A 7.449 7.449 0 0 1 265 201.817 A 7.327 7.327 0 0 1 259.7 204.016 A 9.24 9.24 0 0 1 259.6 204.017 Q 255.4 203.817 252 201.217 Q 249.4 199.217 247.6 195.817 Q 245 190.817 243.2 182.817 Q 240.8 170.817 239.8 148.617 Q 239.4 127.217 239.6 113.217 Q 239.789 103.402 239.799 101.959 A 19.995 19.995 0 0 0 239.8 101.817 A 8.449 8.449 0 0 1 239.783 101.29 A 6.956 6.956 0 0 1 241.8 96.317 Q 244 94.017 247.2 93.817 Q 250.4 93.817 252.6 95.917 A 7.702 7.702 0 0 1 254.993 101.117 A 9.885 9.885 0 0 1 255 101.217 Z M 21.4 188.617 L 21.6 189.017 A 7.809 7.809 0 0 1 25.829 191.614 A 9.724 9.724 0 0 1 26 191.817 Q 27.8 194.017 27.6 196.617 A 7.667 7.667 0 0 1 26.951 199.797 A 7.449 7.449 0 0 1 25.4 202.017 A 6.631 6.631 0 0 1 20.615 204.033 Q 20.313 204.036 20 204.017 A 12.369 12.369 0 0 1 13.65 202.234 A 15.754 15.754 0 0 1 12.4 201.417 Q 9.8 199.417 8 196.017 Q 5.4 191.017 3.6 183.017 A 117.408 117.408 0 0 1 2.17 174.263 Q 0.813 163.667 0.4 148.817 Q 0.032 138.871 0.003 117.222 A 2828.494 2828.494 0 0 1 0 113.417 Q 0.189 103.602 0.199 101.981 A 25.668 25.668 0 0 0 0.2 101.817 Q 0.003 98.663 2.137 96.48 A 8.002 8.002 0 0 1 2.2 96.417 Q 4.4 94.217 7.6 94.017 Q 10.8 94.017 13 96.117 A 7.702 7.702 0 0 1 15.393 101.317 A 9.885 9.885 0 0 1 15.4 101.417 Q 15.4 102.417 15.2 113.617 Q 15.2 135.718 15.539 146.456 A 287.591 287.591 0 0 0 15.6 148.217 Q 16.095 164.866 17.812 175.537 A 91.026 91.026 0 0 0 18.6 179.817 Q 19.712 185.191 21.167 188.162 A 14.893 14.893 0 0 0 21.4 188.617 Z M 946.2 187.817 A 7.47 7.47 0 0 0 946.793 186.39 Q 947.269 184.848 947.4 182.617 A 42.039 42.039 0 0 0 947.606 179.753 Q 947.818 174.345 946.92 166.888 A 146.457 146.457 0 0 0 946.4 163.017 A 8.409 8.409 0 0 0 944.43 163.766 A 6.544 6.544 0 0 0 942.6 165.217 A 11.388 11.388 0 0 0 939.905 170.22 A 16.624 16.624 0 0 0 939.4 173.817 Q 938.8 179.417 941.2 183.817 A 9.508 9.508 0 0 0 942.392 185.672 A 5.771 5.771 0 0 0 946.2 187.817 Z M 888.771 103.551 A 0.36 0.36 0 0 0 888.8 103.417 A 48.429 48.429 0 0 1 889.059 106.247 Q 889.641 115.455 887.4 129.417 A 72.953 72.953 0 0 1 886.159 122.589 Q 885.421 116.944 885.8 112.017 Q 886.2 107.217 888 104.617 A 2.842 2.842 0 0 1 888.002 104.614 A 2.668 2.668 0 0 1 888.5 103.917 A 2.098 2.098 0 0 0 888.602 103.807 Q 888.724 103.667 888.771 103.551 Z M 204 179.417 L 204 179.617 Q 204.4 179.217 205 179.217 A 13.875 13.875 0 0 0 206.858 177.994 Q 208.671 176.601 210.734 174.29 A 45.568 45.568 0 0 0 210.8 174.217 Q 212.944 171.307 214.032 168.75 A 16.442 16.442 0 0 0 214.6 167.217 Q 215 165.417 214.8 165.017 Q 215 165.017 215 164.817 A 5.867 5.867 0 0 0 211.545 162.573 Q 210.098 162.217 208.238 162.356 A 15.953 15.953 0 0 0 207.6 162.417 A 51.86 51.86 0 0 0 203.084 163.573 A 42.818 42.818 0 0 0 200.6 164.417 Q 201.2 168.217 201.8 171.617 A 162.103 162.103 0 0 0 202.384 174.041 Q 203.199 177.305 203.766 178.836 A 10.012 10.012 0 0 0 204 179.417 Z M 506.4 179.417 L 506.4 179.617 Q 506.8 179.217 507.4 179.217 A 13.875 13.875 0 0 0 509.258 177.994 Q 511.071 176.601 513.134 174.29 A 45.568 45.568 0 0 0 513.2 174.217 Q 515.344 171.307 516.432 168.75 A 16.442 16.442 0 0 0 517 167.217 Q 517.4 165.417 517.2 165.017 Q 517.4 165.017 517.4 164.817 A 5.867 5.867 0 0 0 513.945 162.573 Q 512.498 162.217 510.638 162.356 A 15.953 15.953 0 0 0 510 162.417 A 51.86 51.86 0 0 0 505.484 163.573 A 42.818 42.818 0 0 0 503 164.417 Q 503.6 168.217 504.2 171.617 A 162.103 162.103 0 0 0 504.784 174.041 Q 505.599 177.305 506.166 178.836 A 10.012 10.012 0 0 0 506.4 179.417 Z M 716.6 179.417 L 716.6 179.617 Q 717 179.217 717.6 179.217 A 13.875 13.875 0 0 0 719.458 177.994 Q 721.271 176.601 723.334 174.29 A 45.568 45.568 0 0 0 723.4 174.217 Q 725.544 171.307 726.632 168.75 A 16.442 16.442 0 0 0 727.2 167.217 Q 727.6 165.417 727.4 165.017 Q 727.6 165.017 727.6 164.817 A 5.867 5.867 0 0 0 724.145 162.573 Q 722.698 162.217 720.838 162.356 A 15.953 15.953 0 0 0 720.2 162.417 A 51.86 51.86 0 0 0 715.684 163.573 A 42.818 42.818 0 0 0 713.2 164.417 Q 713.8 168.217 714.4 171.617 A 162.103 162.103 0 0 0 714.984 174.041 Q 715.799 177.305 716.366 178.836 A 10.012 10.012 0 0 0 716.6 179.417 Z" vector-effect="non-scaling-stroke"/></g></svg>