<svg width="816.543" height="122.109" viewBox="0 0 816.543 122.109" xmlns="http://www.w3.org/2000/svg"><g id="svgGroup" stroke-linecap="round" fill-rule="evenodd" font-size="9pt" stroke="#000" stroke-width="0.25mm" fill="#000" style="stroke:#000;stroke-width:0.25mm;fill:#000"><path d="M 208.573 57.979 L 208.243 57.979 L 208.023 57.979 L 207.913 57.979 A 22.871 22.871 0 0 1 206.633 57.799 A 27.321 27.321 0 0 1 205.823 57.649 A 11.031 11.031 0 0 1 204.767 57.459 Q 204.241 57.336 203.806 57.168 A 4.957 4.957 0 0 1 203.183 56.879 A 8.234 8.234 0 0 1 201.643 55.725 A 5.677 5.677 0 0 1 200.103 53.249 Q 199.631 51.831 199.808 49.926 A 13.051 13.051 0 0 1 199.883 49.289 A 14.454 14.454 0 0 1 203.314 42.156 A 21.321 21.321 0 0 1 206.813 38.949 Q 211.653 35.539 217.153 34.329 A 35.347 35.347 0 0 1 220.579 33.743 Q 233.368 32.228 238.823 42.359 A 25.026 25.026 0 0 1 240.411 46.155 Q 241.045 48.071 241.512 50.32 A 51.199 51.199 0 0 1 242.013 53.139 A 63.484 63.484 0 0 1 242.417 56.772 Q 242.713 60.289 242.783 64.799 A 11.636 11.636 0 0 1 242.83 65.375 Q 242.878 66.182 242.89 67.543 A 106.682 106.682 0 0 1 242.893 68.429 Q 243.003 72.609 243.223 77.779 A 5.624 5.624 0 0 0 243.227 77.965 Q 243.237 78.274 243.278 78.769 A 8.608 8.608 0 0 0 243.313 79.114 Q 243.352 79.426 243.408 79.639 A 1.904 1.904 0 0 0 243.443 79.759 L 245.973 78.109 A 9.765 9.765 0 0 1 246.94 77.43 A 11.068 11.068 0 0 1 247.183 77.284 A 23.283 23.283 0 0 0 247.411 77.149 Q 247.864 76.879 247.953 76.789 A 1255.976 1255.976 0 0 1 250.766 75.363 Q 254.985 73.231 256.753 72.389 A 7.444 7.444 0 0 1 256.872 72.332 Q 257.416 72.076 260.235 70.774 A 4813.741 4813.741 0 0 1 261.263 70.299 Q 260.713 64.799 260.713 59.409 Q 260.713 52.809 260.933 47.309 Q 261.148 41.727 261.153 37.926 A 137.266 137.266 0 0 0 261.153 37.739 A 4.217 4.217 0 0 1 261.51 35.99 A 4.097 4.097 0 0 1 262.363 34.769 A 4.03 4.03 0 0 1 265.278 33.559 A 5.08 5.08 0 0 1 265.333 33.559 A 4.217 4.217 0 0 1 267.082 33.916 A 4.097 4.097 0 0 1 268.303 34.769 A 4.03 4.03 0 0 1 269.513 37.684 A 5.08 5.08 0 0 1 269.513 37.739 A 169.208 169.208 0 0 1 269.499 39.836 Q 269.458 43.157 269.293 47.529 Q 269.073 52.919 269.073 59.299 A 103.141 103.141 0 0 0 269.178 64.04 A 81.246 81.246 0 0 0 269.403 67.439 Q 274.683 65.789 279.633 66.009 A 20.662 20.662 0 0 1 284.81 67.055 A 15.454 15.454 0 0 1 290.743 70.739 Q 295.801 75.797 294.273 81.823 A 13.118 13.118 0 0 1 294.043 82.619 Q 292.303 87.621 286.479 90.688 A 24.14 24.14 0 0 1 286.343 90.759 A 17.901 17.901 0 0 1 277.964 92.842 A 19.369 19.369 0 0 1 275.123 92.629 A 13.732 13.732 0 0 1 269.25 90.183 Q 266.879 88.426 265.318 85.539 A 17.56 17.56 0 0 1 265.113 85.149 A 20.929 20.929 0 0 1 264.155 83.121 Q 263.381 81.246 262.693 78.769 A 2.444 2.444 0 0 0 262.42 78.857 Q 262.037 79.003 261.483 79.319 Q 260.713 79.759 260.383 79.869 Q 255.213 82.289 251.803 84.269 A 0.173 0.173 0 0 0 251.738 84.284 Q 251.636 84.327 251.473 84.489 Q 251.033 84.709 250.593 85.039 A 389.568 389.568 0 0 1 249.783 85.61 Q 248.569 86.462 248.063 86.799 A 0.289 0.289 0 0 0 247.985 86.811 Q 247.899 86.835 247.788 86.909 A 2.21 2.21 0 0 0 247.654 87.005 Q 247.575 87.067 247.513 87.129 A 46.314 46.314 0 0 1 244.103 89.267 A 42.648 42.648 0 0 1 243.993 89.329 Q 242.978 89.837 242.353 90.019 A 2.972 2.972 0 0 1 242.013 90.099 Q 241.133 90.429 240.033 90.209 Q 237.283 89.879 236.513 87.349 A 38.063 38.063 0 0 1 235.344 81.961 A 46.654 46.654 0 0 1 234.973 78.439 A 79.563 79.563 0 0 1 234.788 75.913 Q 234.609 72.85 234.533 68.539 Q 234.533 66.21 234.44 65.186 A 8.468 8.468 0 0 0 234.423 65.019 Q 234.339 60.219 233.997 56.514 A 67.625 67.625 0 0 0 233.763 54.349 A 49.003 49.003 0 0 0 233.225 51.49 Q 232.481 48.138 231.453 46.319 A 8.854 8.854 0 0 0 230.051 44.312 A 6.971 6.971 0 0 0 227.493 42.579 A 9.377 9.377 0 0 0 225.547 42.085 Q 223.058 41.713 219.625 42.332 A 31.637 31.637 0 0 0 218.913 42.469 A 21.215 21.215 0 0 0 212.412 45.234 A 24.344 24.344 0 0 0 211.763 45.659 A 11.733 11.733 0 0 0 210.079 47.132 Q 209.133 48.146 208.609 49.281 A 7.113 7.113 0 0 0 208.463 49.619 L 208.573 49.619 L 208.793 49.619 L 208.903 49.619 L 209.233 49.619 Q 210.443 49.729 212.533 50.169 A 6.636 6.636 0 0 1 213.039 50.339 Q 213.541 50.527 214.203 50.844 A 26.234 26.234 0 0 1 214.623 51.049 A 9.042 9.042 0 0 1 215.602 51.933 Q 216.361 52.734 216.713 53.579 A 13.797 13.797 0 0 1 217.471 56.302 Q 217.909 58.777 217.703 61.939 A 27.079 27.079 0 0 1 217.532 63.301 Q 217.182 65.674 216.273 69.969 A 0.409 0.409 0 0 0 216.207 70.059 Q 216.145 70.169 216.108 70.354 Q 216.053 70.629 216.053 70.739 Q 215.155 75.142 214.843 77.05 A 25.808 25.808 0 0 0 214.733 77.779 A 29.057 29.057 0 0 0 214.648 78.712 Q 214.474 81.047 214.842 82.065 A 2.365 2.365 0 0 0 214.843 82.069 A 2.207 2.207 0 0 0 215.762 83.176 A 3.098 3.098 0 0 0 216.163 83.389 A 6.108 6.108 0 0 0 217.277 83.705 Q 219.444 84.122 223.203 83.609 Q 224.811 83.395 226.158 84.329 A 4.97 4.97 0 0 1 226.228 84.379 Q 227.603 85.369 227.823 87.129 Q 228.043 88.889 227.053 90.264 Q 226.063 91.639 224.303 91.859 A 37.228 37.228 0 0 1 221.686 92.149 Q 216.629 92.52 213.193 91.199 A 11.528 11.528 0 0 1 209.77 89.151 A 9.938 9.938 0 0 1 206.923 84.819 A 12.785 12.785 0 0 1 206.373 82.509 Q 206.078 80.503 206.258 78.022 A 30.341 30.341 0 0 1 206.373 76.789 A 94.138 94.138 0 0 1 206.634 75.304 Q 207.088 72.829 207.913 68.869 A 2.078 2.078 0 0 0 208.023 68.219 A 1.984 1.984 0 0 0 208.023 68.209 A 108.919 108.919 0 0 0 208.577 65.678 Q 209.116 63.06 209.343 61.169 Q 209.563 59.299 209.343 58.089 Q 209.237 58.089 208.977 58.038 A 7.087 7.087 0 0 1 208.958 58.034 Q 208.683 57.979 208.573 57.979 Z M 726.233 40.709 L 725.683 40.159 Q 725.573 41.039 725.353 43.129 A 107.814 107.814 0 0 0 724.957 48.245 Q 724.825 50.634 724.759 53.343 A 235.773 235.773 0 0 0 724.693 59.079 A 467.757 467.757 0 0 0 724.74 65.834 Q 724.778 68.507 724.849 70.943 A 261.91 261.91 0 0 0 725.023 75.579 Q 725.133 77.669 725.353 79.649 A 28.77 28.77 0 0 0 726.25 77.199 A 37.828 37.828 0 0 0 726.893 74.919 Q 727.773 71.729 728.983 66.999 A 279.902 279.902 0 0 1 729.174 66.165 Q 729.554 64.517 729.643 64.249 A 51.972 51.972 0 0 0 729.695 64.041 Q 729.863 63.355 729.863 63.259 Q 730.032 62.921 730.071 62.713 A 0.62 0.62 0 0 0 730.083 62.599 Q 730.853 60.949 732.503 60.399 Q 734.483 59.629 736.463 60.509 Q 737.673 61.169 738.443 62.269 A 9.339 9.339 0 0 1 739.076 63.173 Q 739.358 63.627 739.639 64.171 A 21.869 21.869 0 0 1 740.203 65.349 Q 740.973 67.109 741.523 68.979 Q 742.403 71.839 742.953 72.939 A 79.174 79.174 0 0 0 743.788 75.285 Q 745.001 78.516 745.925 79.875 A 4.926 4.926 0 0 0 746.253 80.309 Q 749.533 84.193 752.136 85.436 A 6.249 6.249 0 0 0 753.513 85.919 L 753.843 85.919 A 0.158 0.158 0 0 0 753.849 85.963 Q 753.863 86.012 753.912 86.024 A 0.162 0.162 0 0 0 753.953 86.029 Q 753.953 85.938 754.029 85.847 A 0.547 0.547 0 0 1 754.063 85.809 A 0.742 0.742 0 0 0 754.283 85.28 A 0.975 0.975 0 0 0 754.283 85.259 A 4.299 4.299 0 0 0 754.632 84.413 Q 754.761 83.988 754.841 83.477 A 10.569 10.569 0 0 0 754.943 82.509 A 128.068 128.068 0 0 0 755.424 77.078 Q 755.85 70.924 755.983 62.489 A 517.841 517.841 0 0 0 756.043 54.349 Q 756.043 49.839 756.153 46.869 L 756.153 44.339 Q 756.263 39.389 756.263 34.439 A 4.217 4.217 0 0 1 756.62 32.69 A 4.097 4.097 0 0 1 757.473 31.469 A 4.03 4.03 0 0 1 760.388 30.259 A 5.08 5.08 0 0 1 760.443 30.259 A 4.217 4.217 0 0 1 762.192 30.616 A 4.097 4.097 0 0 1 763.413 31.469 A 4.03 4.03 0 0 1 764.623 34.384 A 5.08 5.08 0 0 1 764.623 34.439 Q 764.623 39.499 764.513 44.449 L 764.513 46.979 Q 764.405 49.914 764.403 54.245 A 349.565 349.565 0 0 0 764.403 54.349 Q 764.403 73.379 763.193 83.499 A 17.949 17.949 0 0 1 762.587 87.032 Q 761.682 90.217 759.563 92.189 A 8.085 8.085 0 0 1 753.986 94.356 Q 753.178 94.356 752.322 94.216 A 12.211 12.211 0 0 1 751.533 94.059 A 16.392 16.392 0 0 1 746.389 91.763 Q 744.434 90.481 742.503 88.584 A 37.587 37.587 0 0 1 739.873 85.699 A 12.758 12.758 0 0 1 738.611 83.963 Q 737.813 82.663 737.123 80.969 Q 736.463 79.649 735.253 76.239 L 734.923 77.229 Q 733.146 83.322 731.499 86.55 A 15.757 15.757 0 0 1 730.523 88.229 A 13.281 13.281 0 0 1 729.054 90.123 A 15.132 15.132 0 0 1 728.653 90.539 A 6.91 6.91 0 0 1 727.003 91.534 A 5.684 5.684 0 0 1 725.133 91.969 Q 722.713 92.189 721.063 90.649 Q 719.633 89.549 718.863 87.899 Q 718.768 87.804 718.589 87.459 A 8.537 8.537 0 0 1 718.533 87.349 Q 717.536 85.354 716.987 78.946 A 123.638 123.638 0 0 1 716.773 76.019 A 156.09 156.09 0 0 1 716.541 71.565 Q 716.333 66.229 716.333 58.969 Q 716.333 49.069 716.993 42.469 Q 717.323 38.289 717.763 36.419 Q 718.093 34.879 718.533 33.999 A 6.437 6.437 0 0 1 719.319 32.442 A 5.183 5.183 0 0 1 720.623 31.139 Q 722.568 29.808 725.084 30.192 A 8.358 8.358 0 0 1 725.463 30.259 Q 727.01 30.569 728.654 31.651 A 13.413 13.413 0 0 1 728.873 31.799 Q 729.25 32.082 730.915 33.572 A 297.491 297.491 0 0 1 731.513 34.109 A 25.193 25.193 0 0 0 732.017 34.6 Q 732.472 35.03 732.833 35.319 L 733.383 35.869 A 4.399 4.399 0 0 1 734.498 37.099 A 4.049 4.049 0 0 1 735.033 38.674 A 4.355 4.355 0 0 1 735.07 39.232 A 3.756 3.756 0 0 1 734.153 41.699 A 4.399 4.399 0 0 1 732.924 42.814 A 4.049 4.049 0 0 1 731.348 43.349 A 4.355 4.355 0 0 1 730.791 43.386 A 3.756 3.756 0 0 1 728.323 42.469 Q 728.103 42.249 727.608 41.864 A 16.723 16.723 0 0 1 727.378 41.682 Q 727.139 41.49 726.987 41.349 A 3.267 3.267 0 0 1 726.893 41.259 A 0.173 0.173 0 0 1 726.828 41.244 Q 726.726 41.202 726.563 41.039 L 726.233 40.709 Z M 64.473 59.409 A 47.553 47.553 0 0 0 61.068 60.504 Q 57.1 61.959 55.123 63.699 Q 52.373 66.009 50.173 72.169 Q 48.77 75.624 49.274 78.231 A 6.902 6.902 0 0 0 49.293 78.329 Q 49.733 80.419 51.493 81.849 Q 54.887 84.758 61.017 84.163 A 26.011 26.011 0 0 0 62.713 83.939 Q 70.963 82.399 75.803 75.909 A 23.652 23.652 0 0 0 79.981 65.986 Q 80.862 61.164 80.203 55.339 A 14.15 14.15 0 0 0 78.925 51.019 A 11.137 11.137 0 0 0 73.163 45.659 Q 67.971 43.341 60.355 44.071 A 46.096 46.096 0 0 0 57.433 44.449 Q 48.193 45.879 39.998 50.499 A 46.321 46.321 0 0 0 35.837 53.124 Q 31.606 56.144 29.702 59.3 A 12.506 12.506 0 0 0 29.273 60.069 Q 28.393 61.609 26.798 62.159 A 4.114 4.114 0 0 1 25.745 62.379 Q 24.85 62.442 23.973 62.08 A 4.701 4.701 0 0 1 23.663 61.939 A 4.02 4.02 0 0 1 21.591 59.571 A 4.936 4.936 0 0 1 21.573 59.519 Q 21.023 57.869 21.793 56.329 A 23.759 23.759 0 0 1 26.233 50.271 Q 28.524 47.956 31.631 45.831 A 52.551 52.551 0 0 1 35.653 43.349 Q 45.223 37.959 56.113 36.199 Q 68.103 34.329 76.573 37.959 A 20.03 20.03 0 0 1 84.112 43.583 Q 87.608 47.889 88.453 54.349 Q 90.433 70.189 82.513 80.859 Q 75.583 90.099 64.253 92.189 Q 53.033 94.169 46.103 88.229 Q 42.143 84.929 41.153 79.979 A 16.65 16.65 0 0 1 40.835 76.706 Q 40.835 74.6 41.334 72.35 A 26.107 26.107 0 0 1 42.253 69.199 Q 45.223 61.279 49.403 57.539 A 20.488 20.488 0 0 1 52.976 55.022 Q 56.652 52.938 62.12 51.391 A 63.795 63.795 0 0 1 62.163 51.379 Q 63.813 50.939 65.298 51.764 Q 66.783 52.589 67.333 54.239 Q 67.773 55.889 66.948 57.374 A 4.927 4.927 0 0 1 66.935 57.397 A 4.274 4.274 0 0 1 64.473 59.409 Z M 295.052 35.777 A 42.694 42.694 0 0 0 291.953 41.809 Q 291.405 42.906 291.582 44.058 A 4.279 4.279 0 0 0 291.843 44.999 A 5.247 5.247 0 0 0 291.887 45.104 A 3.997 3.997 0 0 0 294.043 47.309 Q 295.583 47.969 297.233 47.309 A 5.247 5.247 0 0 0 297.339 47.266 A 3.997 3.997 0 0 0 299.543 45.109 A 36.526 36.526 0 0 1 301.754 40.888 A 27.16 27.16 0 0 1 305.043 36.529 A 17.516 17.516 0 0 1 305.578 35.944 Q 306.797 34.672 307.888 34.105 A 3.894 3.894 0 0 1 309.223 33.669 A 3.243 3.243 0 0 1 309.285 33.67 Q 309.562 33.675 309.693 33.729 A 0.244 0.244 0 0 1 309.773 33.779 A 1.083 1.083 0 0 1 309.881 33.841 Q 310.145 34.014 310.409 34.384 A 4.578 4.578 0 0 1 310.653 34.769 Q 312.303 37.739 312.303 44.559 A 121.871 121.871 0 0 1 312.236 48.544 Q 312.088 53.056 311.616 58.137 A 223.255 223.255 0 0 1 310.543 67.439 A 889.9 889.9 0 0 1 310.355 68.85 Q 309.572 74.687 309.037 78.045 A 102.053 102.053 0 0 1 308.673 80.199 L 308.288 82.124 A 77.53 77.53 0 0 0 308.168 82.735 Q 308.047 83.371 307.969 83.846 A 20.668 20.668 0 0 0 307.903 84.269 A 1.391 1.391 0 0 0 307.872 84.379 Q 307.819 84.594 307.802 84.914 A 6.362 6.362 0 0 0 307.793 85.259 A 16.129 16.129 0 0 0 307.739 85.547 Q 307.675 85.897 307.597 86.394 A 75.006 75.006 0 0 0 307.518 86.909 A 75.942 75.942 0 0 1 307.444 87.395 Q 307.365 87.895 307.302 88.25 A 16.46 16.46 0 0 1 307.243 88.559 A 4.715 4.715 0 0 0 307.238 88.586 Q 307.067 89.469 307.258 90.289 A 4.214 4.214 0 0 0 307.848 91.639 A 3.909 3.909 0 0 0 309.037 92.825 A 4.259 4.259 0 0 0 310.543 93.399 A 4.715 4.715 0 0 0 310.57 93.404 Q 311.453 93.576 312.273 93.384 A 4.214 4.214 0 0 0 313.623 92.794 A 3.909 3.909 0 0 0 314.809 91.605 A 4.259 4.259 0 0 0 315.383 90.099 Q 316.373 85.699 316.923 81.739 Q 319.013 72.059 321.213 64.139 Q 324.953 50.499 328.583 46.099 Q 330.412 43.873 331.723 42.682 A 10.371 10.371 0 0 1 332.653 41.919 Q 333.495 41.154 334.123 40.921 A 1.476 1.476 0 0 1 334.633 40.819 A 0.686 0.686 0 0 1 334.695 40.792 Q 334.869 40.725 334.963 40.819 A 0.781 0.781 0 0 1 335.015 40.848 Q 335.441 41.103 336.063 42.139 Q 338.384 46.092 339.831 57.095 A 176.958 176.958 0 0 1 340.573 63.809 Q 341.013 67.879 341.233 71.179 Q 341.233 71.626 341.342 73.634 A 431.809 431.809 0 0 0 341.398 74.644 A 180.544 180.544 0 0 0 341.445 75.436 Q 341.579 77.639 341.673 78.109 A 228.831 228.831 0 0 0 341.966 81.532 Q 342.436 86.54 342.945 88.983 A 11.99 11.99 0 0 0 343.323 90.429 A 3.62 3.62 0 0 0 344.15 91.971 A 3.94 3.94 0 0 0 345.358 92.849 Q 346.403 93.353 347.471 93.292 A 4.37 4.37 0 0 0 348.603 93.069 A 4.936 4.936 0 0 0 348.655 93.052 A 4.02 4.02 0 0 0 351.023 90.979 Q 351.793 89.439 351.243 87.789 A 3.036 3.036 0 0 1 351.193 87.636 Q 350.663 85.857 350.033 77.559 A 88.245 88.245 0 0 1 349.851 75.757 Q 349.593 72.903 349.593 70.629 A 198.417 198.417 0 0 0 349.544 69.984 Q 349.327 67.172 348.933 63.039 A 376.705 376.705 0 0 0 348.475 58.962 Q 347.737 52.716 347.063 49.179 Q 346.053 44.343 344.71 40.927 A 24.981 24.981 0 0 0 343.213 37.739 Q 341.673 35.209 339.253 33.669 A 9.706 9.706 0 0 0 338.436 33.218 Q 335.956 32.003 333.313 32.569 A 9.445 9.445 0 0 0 331.703 32.955 Q 327.136 34.469 322.093 40.819 A 10.797 10.797 0 0 0 321.89 41.072 Q 321.541 41.517 321.083 42.18 A 45.981 45.981 0 0 0 320.663 42.799 A 39.549 39.549 0 0 0 320.5 39.689 Q 320.268 37.209 319.715 35.108 A 18.633 18.633 0 0 0 317.913 30.589 Q 314.393 24.649 308.343 25.309 A 11.487 11.487 0 0 0 306.176 25.786 Q 302.686 26.91 299.323 30.314 A 31.415 31.415 0 0 0 295.052 35.777 Z M 108.143 79.319 L 108.143 79.429 A 1.554 1.554 0 0 1 108.286 79.435 Q 108.499 79.455 108.583 79.539 A 21.829 21.829 0 0 0 111.703 80.031 A 24.944 24.944 0 0 0 112.543 80.089 A 55.52 55.52 0 0 0 115.347 80.274 Q 119.252 80.438 124.423 80.199 A 109.047 109.047 0 0 0 129.394 79.859 Q 133.278 79.498 136.303 78.879 Q 138.723 78.329 140.153 77.889 Q 140.406 77.805 140.723 77.656 A 8.837 8.837 0 0 0 140.923 77.559 Q 141.803 76.019 141.803 70.959 Q 141.635 68.012 141.466 66.096 A 63.276 63.276 0 0 0 141.363 65.019 A 0.901 0.901 0 0 0 141.361 64.958 Q 141.351 64.826 141.309 64.53 A 32.201 32.201 0 0 0 141.308 64.524 A 5.655 5.655 0 0 1 141.264 64.109 A 4.417 4.417 0 0 1 141.253 63.809 Q 141.149 62.972 141.143 62.732 A 1.084 1.084 0 0 1 141.143 62.709 Q 139.415 47.696 138.005 40.425 A 91.78 91.78 0 0 0 137.953 40.159 A 4.317 4.317 0 0 1 137.867 39.339 Q 137.86 38.24 138.454 37.245 A 4.828 4.828 0 0 1 138.558 37.079 A 3.927 3.927 0 0 1 141.144 35.341 A 5.118 5.118 0 0 1 141.253 35.319 Q 142.734 34.924 144.037 35.681 A 4.406 4.406 0 0 1 144.333 35.869 Q 145.763 36.859 146.093 38.509 Q 147.633 46.099 149.393 61.829 Q 149.393 61.939 149.503 62.379 L 149.503 62.929 Q 149.503 63.128 149.548 63.461 A 9.111 9.111 0 0 0 149.558 63.534 A 3.207 3.207 0 0 0 149.598 63.759 Q 149.622 63.872 149.653 63.965 A 1.276 1.276 0 0 0 149.723 64.139 Q 149.943 66.449 150.163 70.739 A 52.721 52.721 0 0 1 150.102 73.368 Q 149.999 75.425 149.723 77.009 A 17.667 17.667 0 0 1 148.935 79.954 Q 148.293 81.698 147.303 83.059 A 6.25 6.25 0 0 1 146.364 83.942 Q 145.131 84.902 143.013 85.809 Q 141.683 86.253 139.806 86.696 A 71.929 71.929 0 0 1 137.843 87.129 Q 131.683 88.229 124.863 88.559 A 166.075 166.075 0 0 1 121.637 88.665 Q 116.22 88.789 112.279 88.481 A 55.869 55.869 0 0 1 111.883 88.449 Q 109.008 88.18 107.307 87.837 A 15.742 15.742 0 0 1 106.603 87.679 Q 103.469 86.815 102.034 85.419 A 5.063 5.063 0 0 1 101.983 85.369 Q 100.768 84.154 100.169 81.98 A 13.723 13.723 0 0 1 99.893 80.749 Q 99.61 79.048 99.57 76.859 A 40.053 40.053 0 0 1 99.563 76.129 A 41.974 41.974 0 0 1 99.632 75.088 Q 99.838 72.362 100.553 65.569 Q 100.663 64.469 100.883 62.929 Q 101.763 55.229 101.433 51.819 Q 101.327 50.011 100.912 48.615 A 10.18 10.18 0 0 0 100.883 48.519 A 7.736 7.736 0 0 0 100.792 48.342 Q 100.665 48.104 100.584 48.004 A 0.452 0.452 0 0 0 100.553 47.969 A 0.073 0.073 0 0 0 100.513 47.906 Q 100.451 47.867 100.289 47.86 A 1.684 1.684 0 0 0 100.223 47.859 A 0.638 0.638 0 0 0 100.115 47.834 Q 99.819 47.791 99.2 47.908 A 9.669 9.669 0 0 0 98.903 47.969 A 10.069 10.069 0 0 0 97.602 48.313 Q 96.938 48.533 96.191 48.86 A 25.495 25.495 0 0 0 94.613 49.619 Q 91.386 51.233 86.792 54.739 A 100.225 100.225 0 0 0 86.583 54.899 Q 85.263 55.999 83.558 55.724 Q 81.853 55.449 80.753 54.129 Q 79.653 52.699 79.873 50.994 A 3.707 3.707 0 0 1 81.349 48.426 A 4.594 4.594 0 0 1 81.523 48.299 A 70.654 70.654 0 0 1 85.655 45.221 Q 88.317 43.394 90.763 42.139 A 28.047 28.047 0 0 1 96.828 39.822 A 26.112 26.112 0 0 1 97.253 39.719 Q 101.763 38.839 104.843 40.709 A 8.21 8.21 0 0 1 107.849 43.799 A 11.423 11.423 0 0 1 108.693 45.659 A 13.228 13.228 0 0 1 109.29 47.604 Q 109.661 49.218 109.793 51.269 A 30.865 30.865 0 0 1 109.864 52.76 Q 109.938 55.785 109.541 60.07 A 125.345 125.345 0 0 1 109.133 63.809 Q 109.133 64.249 108.913 66.449 A 1333.583 1333.583 0 0 0 108.61 69.277 Q 108.013 74.919 107.923 76.349 Q 107.923 77.999 108.143 79.319 Z M 421.093 79.319 L 421.093 79.429 A 1.554 1.554 0 0 1 421.236 79.435 Q 421.449 79.455 421.533 79.539 A 21.829 21.829 0 0 0 424.653 80.031 A 24.944 24.944 0 0 0 425.493 80.089 A 55.52 55.52 0 0 0 428.297 80.274 Q 432.202 80.438 437.373 80.199 A 109.047 109.047 0 0 0 442.344 79.859 Q 446.228 79.498 449.253 78.879 Q 451.673 78.329 453.103 77.889 Q 453.356 77.805 453.673 77.656 A 8.837 8.837 0 0 0 453.873 77.559 Q 454.753 76.019 454.753 70.959 Q 454.585 68.012 454.416 66.096 A 63.276 63.276 0 0 0 454.313 65.019 A 0.901 0.901 0 0 0 454.311 64.958 Q 454.301 64.826 454.259 64.53 A 32.201 32.201 0 0 0 454.258 64.524 A 5.655 5.655 0 0 1 454.214 64.109 A 4.417 4.417 0 0 1 454.203 63.809 Q 454.099 62.972 454.093 62.732 A 1.084 1.084 0 0 1 454.093 62.709 Q 452.365 47.696 450.955 40.425 A 91.78 91.78 0 0 0 450.903 40.159 A 4.317 4.317 0 0 1 450.817 39.339 Q 450.81 38.24 451.404 37.245 A 4.828 4.828 0 0 1 451.508 37.079 A 3.927 3.927 0 0 1 454.094 35.341 A 5.118 5.118 0 0 1 454.203 35.319 Q 455.684 34.924 456.987 35.681 A 4.406 4.406 0 0 1 457.283 35.869 Q 458.713 36.859 459.043 38.509 Q 460.583 46.099 462.343 61.829 Q 462.343 61.939 462.453 62.379 L 462.453 62.929 Q 462.453 63.128 462.498 63.461 A 9.111 9.111 0 0 0 462.508 63.534 A 3.207 3.207 0 0 0 462.548 63.759 Q 462.572 63.872 462.603 63.965 A 1.276 1.276 0 0 0 462.673 64.139 Q 462.893 66.449 463.113 70.739 A 52.721 52.721 0 0 1 463.052 73.368 Q 462.949 75.425 462.673 77.009 A 17.667 17.667 0 0 1 461.885 79.954 Q 461.243 81.698 460.253 83.059 A 6.25 6.25 0 0 1 459.314 83.942 Q 458.081 84.902 455.963 85.809 Q 454.633 86.253 452.756 86.696 A 71.929 71.929 0 0 1 450.793 87.129 Q 444.633 88.229 437.813 88.559 A 166.075 166.075 0 0 1 434.587 88.665 Q 429.17 88.789 425.229 88.481 A 55.869 55.869 0 0 1 424.833 88.449 Q 421.958 88.18 420.257 87.837 A 15.742 15.742 0 0 1 419.553 87.679 Q 416.419 86.815 414.984 85.419 A 5.063 5.063 0 0 1 414.933 85.369 Q 413.718 84.154 413.119 81.98 A 13.723 13.723 0 0 1 412.843 80.749 Q 412.56 79.048 412.52 76.859 A 40.053 40.053 0 0 1 412.513 76.129 A 41.974 41.974 0 0 1 412.582 75.088 Q 412.788 72.362 413.503 65.569 Q 413.613 64.469 413.833 62.929 Q 414.713 55.229 414.383 51.819 Q 414.277 50.011 413.862 48.615 A 10.18 10.18 0 0 0 413.833 48.519 A 7.736 7.736 0 0 0 413.742 48.342 Q 413.615 48.104 413.534 48.004 A 0.452 0.452 0 0 0 413.503 47.969 A 0.073 0.073 0 0 0 413.463 47.906 Q 413.401 47.867 413.239 47.86 A 1.684 1.684 0 0 0 413.173 47.859 A 0.638 0.638 0 0 0 413.065 47.834 Q 412.769 47.791 412.15 47.908 A 9.669 9.669 0 0 0 411.853 47.969 A 10.069 10.069 0 0 0 410.552 48.313 Q 409.888 48.533 409.141 48.86 A 25.495 25.495 0 0 0 407.563 49.619 Q 404.336 51.233 399.742 54.739 A 100.225 100.225 0 0 0 399.533 54.899 Q 398.213 55.999 396.508 55.724 Q 394.803 55.449 393.703 54.129 Q 392.603 52.699 392.823 50.994 A 3.707 3.707 0 0 1 394.299 48.426 A 4.594 4.594 0 0 1 394.473 48.299 A 70.654 70.654 0 0 1 398.605 45.221 Q 401.267 43.394 403.713 42.139 A 28.047 28.047 0 0 1 409.778 39.822 A 26.112 26.112 0 0 1 410.203 39.719 Q 414.713 38.839 417.793 40.709 A 8.21 8.21 0 0 1 420.799 43.799 A 11.423 11.423 0 0 1 421.643 45.659 A 13.228 13.228 0 0 1 422.24 47.604 Q 422.611 49.218 422.743 51.269 A 30.865 30.865 0 0 1 422.814 52.76 Q 422.888 55.785 422.491 60.07 A 125.345 125.345 0 0 1 422.083 63.809 Q 422.083 64.249 421.863 66.449 A 1333.583 1333.583 0 0 0 421.56 69.277 Q 420.963 74.919 420.873 76.349 Q 420.873 77.999 421.093 79.319 Z M 764.953 42.139 L 765.063 42.029 Q 765.137 41.956 765.161 41.882 A 0.231 0.231 0 0 0 765.173 41.809 L 765.283 41.589 L 765.613 40.929 A 24.75 24.75 0 0 1 766.623 39.488 Q 767.624 38.169 768.537 37.423 A 6.83 6.83 0 0 1 768.693 37.299 A 8.074 8.074 0 0 1 773.472 35.785 Q 774.094 35.785 774.743 35.869 A 5.885 5.885 0 0 1 777.619 37.233 A 7.651 7.651 0 0 1 778.263 37.849 Q 779.033 38.619 780.133 40.269 Q 781.071 41.89 782.406 44.899 A 129.766 129.766 0 0 1 783.213 46.759 A 119.876 119.876 0 0 1 787.757 61.745 A 133.866 133.866 0 0 1 788.273 64.029 A 35.133 35.133 0 0 1 790.951 65.056 Q 792.316 65.639 793.846 66.4 A 83.124 83.124 0 0 1 797.073 68.099 A 82.935 82.935 0 0 1 804.971 73.048 A 70.958 70.958 0 0 1 808.183 75.469 L 808.183 71.729 A 107.877 107.877 0 0 0 808.18 70.964 Q 808.172 69.897 808.146 68.107 A 966.538 966.538 0 0 0 808.128 66.944 A 433.101 433.101 0 0 1 808.077 61.901 A 382.113 382.113 0 0 1 808.073 60.289 Q 807.963 48.519 807.963 36.859 A 4.217 4.217 0 0 1 808.32 35.11 A 4.097 4.097 0 0 1 809.173 33.889 A 4.03 4.03 0 0 1 812.088 32.679 A 5.08 5.08 0 0 1 812.143 32.679 A 4.217 4.217 0 0 1 813.892 33.036 A 4.097 4.097 0 0 1 815.113 33.889 A 4.03 4.03 0 0 1 816.323 36.804 A 5.08 5.08 0 0 1 816.323 36.859 Q 816.323 48.409 816.433 60.289 A 383.154 383.154 0 0 0 816.447 63.479 A 468.134 468.134 0 0 0 816.488 66.889 Q 816.543 70.409 816.543 71.729 L 816.543 83.829 Q 816.543 85.039 816.433 85.589 Q 816.433 86.469 816.103 87.129 A 2.595 2.595 0 0 1 815.557 88.335 A 3.186 3.186 0 0 1 815.553 88.339 A 8.026 8.026 0 0 1 814.976 89.05 Q 814.671 89.382 814.366 89.621 A 3.382 3.382 0 0 1 813.793 89.989 A 4.795 4.795 0 0 1 812.482 90.464 Q 811.236 90.712 809.943 90.209 Q 808.953 89.879 807.853 88.999 A 5.097 5.097 0 0 1 807.323 88.532 Q 806.602 87.813 805.653 86.469 A 27.46 27.46 0 0 1 805.533 86.287 Q 805.337 85.988 805.048 85.534 A 12.161 12.161 0 0 0 804.866 85.256 Q 804.608 84.874 804.443 84.709 A 211.318 211.318 0 0 1 804.108 84.166 Q 803.123 82.564 803.024 82.325 A 0.12 0.12 0 0 1 803.013 82.289 L 802.573 81.629 Q 798.613 78.439 793.003 75.359 A 8.089 8.089 0 0 1 792.697 75.229 Q 792.192 75.002 791.408 74.589 A 65.107 65.107 0 0 1 790.917 74.328 Q 790.226 73.957 789.813 73.709 A 52.428 52.428 0 0 1 790.157 79.63 A 46.976 46.976 0 0 1 790.033 83.059 Q 789.63 86.447 788.457 88.771 A 10.33 10.33 0 0 1 787.503 90.319 Q 784.673 93.987 780.046 93.362 A 11.283 11.283 0 0 1 779.583 93.289 A 10.745 10.745 0 0 1 771.888 88.466 A 15.763 15.763 0 0 1 770.893 86.799 A 16.376 16.376 0 0 1 768.815 78.648 A 20.17 20.17 0 0 1 768.913 76.679 A 19.197 19.197 0 0 1 769.892 72.025 A 14.354 14.354 0 0 1 772.983 66.889 A 13.212 13.212 0 0 1 775.985 64.525 A 11.047 11.047 0 0 1 779.473 63.259 Q 777.713 55.779 775.403 49.839 Q 773.985 46.496 773.22 45.019 A 17.011 17.011 0 0 0 773.093 44.779 L 772.983 44.999 L 772.873 45.219 A 2.114 2.114 0 0 0 772.702 45.412 Q 772.605 45.535 772.543 45.659 L 772.433 45.989 A 0.158 0.158 0 0 1 772.428 46.033 Q 772.414 46.082 772.364 46.094 A 0.162 0.162 0 0 1 772.323 46.099 L 772.213 46.319 A 3.61 3.61 0 0 1 772.148 46.443 Q 772.034 46.649 771.828 46.979 A 18.789 18.789 0 0 0 771.701 47.185 Q 771.53 47.467 771.447 47.631 A 2.544 2.544 0 0 0 771.443 47.639 A 2.599 2.599 0 0 1 771.333 47.839 Q 771.168 48.107 771.003 48.189 Q 770.013 49.619 768.308 49.949 A 4.42 4.42 0 0 1 767.537 50.031 Q 766.331 50.05 765.274 49.357 A 4.795 4.795 0 0 1 765.173 49.289 A 3.524 3.524 0 0 1 763.518 46.966 A 4.5 4.5 0 0 1 763.468 46.704 Q 763.193 44.999 764.073 43.569 Q 764.179 43.463 764.388 43.152 A 9.991 9.991 0 0 0 764.403 43.129 A 0.212 0.212 0 0 1 764.414 43.068 Q 764.444 42.972 764.553 42.798 A 4.181 4.181 0 0 1 764.623 42.689 Q 764.838 42.366 764.948 42.149 A 2.509 2.509 0 0 0 764.953 42.139 Z M 171.393 87.019 L 171.393 87.349 Q 171.283 88.999 170.128 90.154 A 3.901 3.901 0 0 1 167.458 91.303 A 5.177 5.177 0 0 1 167.213 91.309 L 167.103 91.309 A 4.537 4.537 0 0 1 165.449 90.903 A 4.185 4.185 0 0 1 164.188 89.989 Q 163.033 88.779 163.033 87.129 L 163.033 87.019 Q 163.212 85.053 163.028 81.78 A 85.255 85.255 0 0 0 162.923 80.199 Q 162.923 79.376 162.731 75.855 A 596.991 596.991 0 0 0 162.703 75.359 A 6.581 6.581 0 0 0 162.7 75.164 Q 162.69 74.824 162.648 74.204 A 32.84 32.84 0 0 1 162.624 73.809 Q 162.594 73.26 162.593 72.856 A 11.246 11.246 0 0 1 162.593 72.829 L 162.483 71.399 L 162.483 70.079 Q 162.373 67.549 162.153 64.799 Q 161.713 55.339 161.823 49.729 Q 161.823 41.809 163.363 38.619 Q 164.683 36.089 167.543 34.109 A 24.159 24.159 0 0 1 170.157 32.655 A 18.876 18.876 0 0 1 172.273 31.799 Q 172.823 31.689 174.143 31.249 A 1.772 1.772 0 0 1 174.263 31.196 Q 174.459 31.116 174.833 30.996 A 22.828 22.828 0 0 1 175.078 30.919 A 26.84 26.84 0 0 1 175.325 30.844 Q 175.814 30.699 175.903 30.699 A 52.409 52.409 0 0 1 178.825 29.876 Q 181.85 29.125 184.043 29.049 A 19.772 19.772 0 0 1 185.311 28.995 Q 186.591 28.983 187.736 29.151 A 12.259 12.259 0 0 1 189.323 29.489 A 11.257 11.257 0 0 1 191.794 30.639 A 8.379 8.379 0 0 1 194.273 33.009 A 11.425 11.425 0 0 1 195.399 35.273 Q 196.296 37.627 196.877 41.274 A 66.297 66.297 0 0 1 197.353 44.999 A 116.902 116.902 0 0 1 197.755 50.367 Q 197.884 52.777 197.949 55.478 A 238.982 238.982 0 0 1 198.013 61.169 A 317.657 317.657 0 0 1 197.761 74.163 Q 197.497 80.598 196.957 86.298 A 182.668 182.668 0 0 1 196.693 88.889 A 4.387 4.387 0 0 1 196.204 90.459 A 4.02 4.02 0 0 1 195.153 91.694 Q 193.833 92.739 192.073 92.629 A 4.387 4.387 0 0 1 190.503 92.14 A 4.02 4.02 0 0 1 189.268 91.089 Q 188.223 89.769 188.333 88.009 Q 189.468 77.989 189.627 65.288 A 336.771 336.771 0 0 0 189.653 61.059 Q 189.653 52.699 189.103 45.769 Q 188.567 40.406 187.74 38.457 A 3.301 3.301 0 0 0 187.343 37.739 A 0.158 0.158 0 0 1 187.3 37.734 Q 187.251 37.72 187.238 37.67 A 0.162 0.162 0 0 1 187.233 37.629 L 187.013 37.519 A 9.002 9.002 0 0 0 185.4 37.373 A 8.905 8.905 0 0 0 184.593 37.409 A 16.592 16.592 0 0 0 182.38 37.663 Q 180.535 37.992 178.323 38.729 Q 177.008 39.168 176.675 39.169 A 0.509 0.509 0 0 1 176.673 39.169 Q 176.453 39.279 176.123 39.389 Q 175.793 39.499 175.518 39.609 Q 175.243 39.719 175.023 39.719 A 22.069 22.069 0 0 0 173.62 40.297 Q 171.537 41.247 170.935 42.197 A 1.851 1.851 0 0 0 170.843 42.359 A 1.746 1.746 0 0 0 170.692 42.703 Q 170.506 43.262 170.42 44.326 A 17.384 17.384 0 0 0 170.403 44.559 Q 170.183 47.419 170.183 49.839 Q 170.093 53.012 170.301 58.801 A 377.499 377.499 0 0 0 170.403 61.389 A 17.671 17.671 0 0 1 177.484 56.831 A 21.773 21.773 0 0 1 179.093 56.329 A 4.064 4.064 0 0 1 180.036 56.131 Q 181.187 56.033 182.283 56.659 Q 183.823 57.539 184.263 59.299 Q 184.667 60.812 183.961 62.186 A 4.708 4.708 0 0 1 183.823 62.434 A 4.055 4.055 0 0 1 181.3 64.357 A 4.74 4.74 0 0 1 181.293 64.359 A 10.56 10.56 0 0 0 174.777 69.545 Q 173.682 71.426 172.966 73.937 A 30.954 30.954 0 0 0 172.163 77.669 Q 171.758 80.202 171.446 85.999 A 269.552 269.552 0 0 0 171.393 87.019 Z M 18.933 43.569 L 18.933 52.589 Q 18.831 59.032 18.919 63.003 A 119.997 119.997 0 0 0 18.933 63.589 A 104.285 104.285 0 0 0 19.173 69.916 Q 19.608 76.063 20.81 80.163 A 25.683 25.683 0 0 0 21.133 81.189 A 17.407 17.407 0 0 0 21.769 82.745 Q 22.484 84.265 23.318 85.071 A 4.064 4.064 0 0 0 23.663 85.369 A 3.243 3.243 0 0 0 24.415 85.939 A 2.551 2.551 0 0 0 25.643 86.249 Q 26.293 85.043 26.707 82.663 A 30.591 30.591 0 0 0 26.853 81.739 A 52.338 52.338 0 0 0 27.16 78.634 Q 27.468 74.323 27.367 68.093 A 230.086 230.086 0 0 0 27.293 64.909 A 172.401 172.401 0 0 0 26.94 56.127 Q 26.647 51.567 26.118 46.534 A 277.602 277.602 0 0 0 26.083 46.209 Q 25.533 39.719 24.763 34.109 Q 24.543 32.349 25.533 30.974 Q 26.523 29.599 28.283 29.379 Q 30.043 29.159 31.418 30.149 Q 32.793 31.139 33.013 32.899 Q 33.673 37.299 34.443 45.439 Q 35.543 55.999 35.653 64.689 Q 36.05 74.519 35.282 81.481 A 62.533 62.533 0 0 1 35.103 82.949 Q 34.389 87.131 33.391 89.516 A 13.032 13.032 0 0 1 33.233 89.879 A 10.548 10.548 0 0 1 32.495 91.206 Q 32.044 91.889 31.526 92.396 A 5.774 5.774 0 0 1 31.143 92.739 Q 29.383 94.389 27.293 94.499 A 14.177 14.177 0 0 1 25.797 94.605 Q 21.373 94.675 18.163 91.749 A 13.05 13.05 0 0 1 15.66 88.951 Q 14.735 87.584 13.97 85.853 A 27.255 27.255 0 0 1 13.213 83.939 A 35.242 35.242 0 0 1 11.933 79.181 Q 10.693 73.064 10.463 63.809 L 10.463 52.479 A 512.195 512.195 0 0 0 10.53 48.937 Q 10.552 47.532 10.562 46.245 A 294.716 294.716 0 0 0 10.573 43.789 Q 10.361 41.46 10.252 40.353 A 119.853 119.853 0 0 0 10.243 40.269 Q 9.583 40.599 8.923 41.259 A 3.369 3.369 0 0 0 8.683 41.436 Q 8.563 41.533 8.43 41.654 A 8.228 8.228 0 0 0 8.153 41.919 Q 8.043 42.139 7.823 42.359 A 4.424 4.424 0 0 1 6.851 43.553 A 3.889 3.889 0 0 1 5.348 44.339 Q 4.019 44.706 2.728 44.156 A 4.943 4.943 0 0 1 2.213 43.899 A 3.816 3.816 0 0 1 0.227 41.582 A 4.87 4.87 0 0 1 0.178 41.424 A 4.421 4.421 0 0 1 0.009 40.478 Q -0.063 39.39 0.459 38.372 A 4.797 4.797 0 0 1 0.563 38.179 A 14.121 14.121 0 0 1 6.158 32.943 A 17.737 17.737 0 0 1 7.383 32.349 Q 10.353 31.029 13.103 31.799 A 6.817 6.817 0 0 1 17.328 35.226 A 10.571 10.571 0 0 1 18.053 36.859 A 10.525 10.525 0 0 1 18.373 38.105 Q 18.772 40.096 18.933 43.569 Z M 520.093 54.569 L 519.983 54.459 A 0.661 0.661 0 0 0 519.979 54.386 Q 519.963 54.239 519.873 54.239 A 7.555 7.555 0 0 1 518.154 52.324 Q 517.217 50.799 517.217 48.906 A 7.962 7.962 0 0 1 517.233 48.409 A 8.059 8.059 0 0 1 518.139 45.052 Q 518.715 43.916 519.653 42.799 A 22.068 22.068 0 0 1 524.417 38.389 Q 526.664 36.827 529.48 35.559 A 39.418 39.418 0 0 1 530.543 35.099 A 32.869 32.869 0 0 1 535.805 33.557 Q 541.207 32.476 546.053 33.669 Q 555.183 35.869 560.243 44.999 A 40.099 40.099 0 0 1 563.217 52.338 A 50.249 50.249 0 0 1 564.423 57.319 Q 565.413 61.939 566.073 69.529 Q 566.073 69.749 566.128 70.409 Q 566.183 71.069 566.183 71.729 Q 566.287 72.456 566.881 78.767 A 2457.877 2457.877 0 0 1 566.953 79.539 Q 567.445 83.18 568.113 86.028 A 46.488 46.488 0 0 0 568.273 86.689 A 4.291 4.291 0 0 1 568.411 87.5 Q 568.489 88.63 567.904 89.65 A 4.466 4.466 0 0 1 567.833 89.769 Q 566.953 91.199 565.303 91.639 A 4.291 4.291 0 0 1 564.492 91.777 Q 563.362 91.855 562.343 91.27 A 4.466 4.466 0 0 1 562.223 91.199 Q 560.793 90.319 560.353 88.669 A 53.413 53.413 0 0 1 559.646 85.379 Q 559.233 83.128 558.923 80.529 Q 558.703 78.989 558.153 72.389 A 543.538 543.538 0 0 1 558.102 71.923 Q 557.951 70.561 557.935 70.337 A 0.617 0.617 0 0 1 557.933 70.299 Q 557.436 64.411 556.876 60.961 A 37.701 37.701 0 0 0 556.503 58.969 A 43.692 43.692 0 0 0 555.234 54.109 Q 554.416 51.609 553.342 49.521 A 25.791 25.791 0 0 0 552.983 48.849 A 16.949 16.949 0 0 0 550.378 45.176 A 12.248 12.248 0 0 0 544.183 41.589 A 14.095 14.095 0 0 0 540.752 41.173 Q 537.377 41.173 533.623 42.689 A 25.973 25.973 0 0 0 530.478 44.167 Q 528.941 45.029 527.783 46.017 A 11.502 11.502 0 0 0 526.033 47.859 L 525.593 48.299 A 8.454 8.454 0 0 1 526.279 49.069 Q 526.617 49.502 526.849 49.935 A 5.026 5.026 0 0 1 526.913 50.059 Q 527.184 50.51 527.677 51.702 A 51.689 51.689 0 0 1 527.903 52.259 Q 528.453 54.679 528.893 57.429 A 102.544 102.544 0 0 1 529.308 61.321 Q 529.487 63.34 529.631 65.667 A 241.249 241.249 0 0 1 529.883 70.629 A 3.291 3.291 0 0 1 529.935 70.884 Q 530.007 71.317 530.048 72.059 A 54.208 54.208 0 0 1 530.072 72.527 Q 530.096 73.032 530.102 73.392 A 13.473 13.473 0 0 1 530.103 73.599 Q 530.103 73.787 530.143 74.66 A 212.932 212.932 0 0 0 530.158 74.974 A 133.24 133.24 0 0 1 530.18 75.44 Q 530.213 76.2 530.213 76.458 A 1.626 1.626 0 0 1 530.213 76.459 Q 530.653 86.469 531.093 88.449 A 4.291 4.291 0 0 1 531.231 89.26 Q 531.309 90.39 530.724 91.41 A 4.466 4.466 0 0 1 530.653 91.529 Q 529.773 92.959 528.123 93.399 A 4.291 4.291 0 0 1 527.312 93.537 Q 526.182 93.615 525.163 93.03 A 4.466 4.466 0 0 1 525.043 92.959 Q 523.613 92.079 523.173 90.429 Q 522.632 87.541 522.238 80.283 A 332.22 332.22 0 0 1 522.073 76.899 Q 522.073 76.679 522.018 75.469 A 158.198 158.198 0 0 1 522 75.046 Q 521.963 74.197 521.963 73.929 A 14.127 14.127 0 0 0 521.96 73.63 Q 521.949 73.145 521.908 72.444 A 17.033 17.033 0 0 0 521.877 72.008 Q 521.826 71.399 521.743 71.069 A 215.657 215.657 0 0 0 521.477 66.113 Q 521.186 61.705 520.753 58.529 Q 520.455 56.244 520.157 54.856 A 19.322 19.322 0 0 0 520.093 54.569 Z M 662.213 54.569 L 662.103 54.459 A 0.661 0.661 0 0 0 662.099 54.386 Q 662.083 54.239 661.993 54.239 A 7.555 7.555 0 0 1 660.274 52.324 Q 659.337 50.799 659.337 48.906 A 7.962 7.962 0 0 1 659.353 48.409 A 8.059 8.059 0 0 1 660.259 45.052 Q 660.835 43.916 661.773 42.799 A 22.068 22.068 0 0 1 666.537 38.389 Q 668.784 36.827 671.6 35.559 A 39.418 39.418 0 0 1 672.663 35.099 A 32.869 32.869 0 0 1 677.925 33.557 Q 683.327 32.476 688.173 33.669 Q 697.303 35.869 702.363 44.999 A 40.099 40.099 0 0 1 705.337 52.338 A 50.249 50.249 0 0 1 706.543 57.319 Q 707.533 61.939 708.193 69.529 Q 708.193 69.749 708.248 70.409 Q 708.303 71.069 708.303 71.729 Q 708.407 72.456 709.001 78.767 A 2457.877 2457.877 0 0 1 709.073 79.539 Q 709.565 83.18 710.233 86.028 A 46.488 46.488 0 0 0 710.393 86.689 A 4.291 4.291 0 0 1 710.531 87.5 Q 710.609 88.63 710.024 89.65 A 4.466 4.466 0 0 1 709.953 89.769 Q 709.073 91.199 707.423 91.639 A 4.291 4.291 0 0 1 706.612 91.777 Q 705.482 91.855 704.463 91.27 A 4.466 4.466 0 0 1 704.343 91.199 Q 702.913 90.319 702.473 88.669 A 53.413 53.413 0 0 1 701.766 85.379 Q 701.353 83.128 701.043 80.529 Q 700.823 78.989 700.273 72.389 A 543.538 543.538 0 0 1 700.222 71.923 Q 700.071 70.561 700.055 70.337 A 0.617 0.617 0 0 1 700.053 70.299 Q 699.556 64.411 698.996 60.961 A 37.701 37.701 0 0 0 698.623 58.969 A 43.692 43.692 0 0 0 697.354 54.109 Q 696.536 51.609 695.462 49.521 A 25.791 25.791 0 0 0 695.103 48.849 A 16.949 16.949 0 0 0 692.498 45.176 A 12.248 12.248 0 0 0 686.303 41.589 A 14.095 14.095 0 0 0 682.872 41.173 Q 679.497 41.173 675.743 42.689 A 25.973 25.973 0 0 0 672.598 44.167 Q 671.061 45.029 669.903 46.017 A 11.502 11.502 0 0 0 668.153 47.859 L 667.713 48.299 A 8.454 8.454 0 0 1 668.399 49.069 Q 668.737 49.502 668.969 49.935 A 5.026 5.026 0 0 1 669.033 50.059 Q 669.304 50.51 669.797 51.702 A 51.689 51.689 0 0 1 670.023 52.259 Q 670.573 54.679 671.013 57.429 A 102.544 102.544 0 0 1 671.428 61.321 Q 671.607 63.34 671.751 65.667 A 241.249 241.249 0 0 1 672.003 70.629 A 3.291 3.291 0 0 1 672.055 70.884 Q 672.127 71.317 672.168 72.059 A 54.208 54.208 0 0 1 672.192 72.527 Q 672.216 73.032 672.222 73.392 A 13.473 13.473 0 0 1 672.223 73.599 Q 672.223 73.787 672.263 74.66 A 212.932 212.932 0 0 0 672.278 74.974 A 133.24 133.24 0 0 1 672.3 75.44 Q 672.333 76.2 672.333 76.458 A 1.626 1.626 0 0 1 672.333 76.459 Q 672.773 86.469 673.213 88.449 A 4.291 4.291 0 0 1 673.351 89.26 Q 673.429 90.39 672.844 91.41 A 4.466 4.466 0 0 1 672.773 91.529 Q 671.893 92.959 670.243 93.399 A 4.291 4.291 0 0 1 669.432 93.537 Q 668.302 93.615 667.283 93.03 A 4.466 4.466 0 0 1 667.163 92.959 Q 665.733 92.079 665.293 90.429 Q 664.752 87.541 664.358 80.283 A 332.22 332.22 0 0 1 664.193 76.899 Q 664.193 76.679 664.138 75.469 A 158.198 158.198 0 0 1 664.12 75.046 Q 664.083 74.197 664.083 73.929 A 14.127 14.127 0 0 0 664.08 73.63 Q 664.069 73.145 664.028 72.444 A 17.033 17.033 0 0 0 663.997 72.008 Q 663.946 71.399 663.863 71.069 A 215.657 215.657 0 0 0 663.597 66.113 Q 663.306 61.705 662.873 58.529 Q 662.575 56.244 662.277 54.856 A 19.322 19.322 0 0 0 662.213 54.569 Z M 603.253 71.289 L 604.353 73.489 Q 604.243 69.419 603.693 63.699 A 7.785 7.785 0 0 0 603.674 63.252 Q 603.605 62.18 603.295 59.12 A 579.261 579.261 0 0 0 603.143 57.649 A 3.41 3.41 0 0 1 603.092 57.398 Q 603.042 57.109 603.007 56.69 A 17.218 17.218 0 0 1 602.978 56.274 A 55.188 55.188 0 0 1 602.954 55.838 Q 602.923 55.229 602.923 54.899 A 123.485 123.485 0 0 1 602.848 54.17 Q 602.703 52.706 602.703 52.259 Q 602.535 50.996 602.366 48.83 A 162.063 162.063 0 0 1 602.263 47.419 Q 601.933 44.669 601.933 42.689 L 600.283 42.689 A 70.865 70.865 0 0 0 597.561 42.822 Q 594.512 43.025 590.421 43.5 A 232.647 232.647 0 0 0 589.833 43.569 Q 584.729 44.042 580.599 44.596 A 156.138 156.138 0 0 0 579.273 44.779 A 191.069 191.069 0 0 1 578.861 44.838 Q 578.294 44.917 577.544 45.02 A 570.102 570.102 0 0 1 577.293 45.054 A 47.741 47.741 0 0 0 576.768 45.128 Q 575.98 45.245 575.643 45.329 Q 575.128 45.501 574.814 45.539 A 1.359 1.359 0 0 1 574.653 45.549 A 4.254 4.254 0 0 1 573.523 45.935 Q 572.603 46.105 571.663 45.817 A 4.541 4.541 0 0 1 571.518 45.769 Q 569.923 45.219 569.043 43.679 A 4.188 4.188 0 0 1 568.631 42.376 Q 568.517 41.555 568.757 40.704 A 4.829 4.829 0 0 1 568.823 40.489 A 4.022 4.022 0 0 1 570.865 38.093 A 4.79 4.79 0 0 1 570.913 38.069 Q 571.977 37.537 575.969 36.863 A 121.004 121.004 0 0 1 578.063 36.529 Q 581.143 36.089 589.063 35.209 A 96.466 96.466 0 0 1 590.116 35.111 Q 592.893 34.865 599.953 34.329 L 603.913 34.329 A 21.069 21.069 0 0 1 604.438 34.335 Q 605.226 34.355 605.563 34.439 A 4.991 4.991 0 0 1 606.836 34.697 A 4.021 4.021 0 0 1 607.983 35.319 A 3.691 3.691 0 0 1 609.71 37.696 A 4.505 4.505 0 0 1 609.743 37.849 A 0.659 0.659 0 0 0 609.76 37.986 Q 609.789 38.124 609.873 38.316 A 3.958 3.958 0 0 0 609.963 38.509 A 11.544 11.544 0 0 1 610.01 38.756 Q 610.07 39.096 610.073 39.264 A 0.951 0.951 0 0 1 610.073 39.279 Q 610.183 39.609 610.183 40.159 Q 610.183 41.928 610.441 44.857 A 133.191 133.191 0 0 0 610.623 46.759 Q 610.843 49.179 610.953 51.489 L 611.283 54.129 Q 611.283 55.339 611.503 56.879 A 26.258 26.258 0 0 1 611.562 57.395 Q 611.654 58.282 611.778 59.849 A 316.889 316.889 0 0 0 611.857 60.832 Q 611.935 61.782 611.999 62.469 A 75.155 75.155 0 0 0 612.053 63.039 Q 612.823 74.369 612.823 78.659 Q 612.823 81.438 612.63 83.637 A 35.527 35.527 0 0 1 612.493 84.929 A 17.465 17.465 0 0 1 612.2 86.911 Q 611.761 88.985 610.843 90.209 A 5.89 5.89 0 0 1 609.861 91.261 Q 607.961 92.824 605.336 91.685 A 7.614 7.614 0 0 1 605.233 91.639 Q 604.468 91.214 603.636 90.394 A 13.102 13.102 0 0 1 603.143 89.879 A 31.173 31.173 0 0 1 602.985 89.611 Q 602.599 88.953 601.659 87.309 A 964.195 964.195 0 0 1 601.493 87.019 A 7.942 7.942 0 0 1 601.369 86.758 Q 601.163 86.304 600.833 85.479 Q 600.73 85.273 600.435 84.49 A 63.898 63.898 0 0 1 600.393 84.379 Q 600.098 83.592 599.803 82.981 A 11.543 11.543 0 0 0 599.733 82.839 Q 599.513 82.289 599.293 81.849 L 599.293 81.739 A 5.458 5.458 0 0 1 599.169 81.543 Q 598.963 81.203 598.633 80.584 A 217.677 217.677 0 0 1 598.48 80.296 Q 598.197 79.764 598.099 79.57 A 6.346 6.346 0 0 1 598.083 79.539 L 597.313 77.999 Q 596.763 76.899 596.213 76.019 L 595.773 75.139 A 67.649 67.649 0 0 0 594.339 72.507 Q 592.242 68.869 590.685 67.509 A 6.051 6.051 0 0 0 590.603 67.439 A 6.392 6.392 0 0 0 589.236 66.521 Q 587.602 65.723 585.787 66.198 A 6.263 6.263 0 0 0 585.323 66.339 Q 583.673 66.889 582.133 66.119 A 4.02 4.02 0 0 1 580.061 63.751 A 4.936 4.936 0 0 1 580.043 63.699 A 4.37 4.37 0 0 1 579.821 62.567 Q 579.759 61.499 580.263 60.454 A 3.94 3.94 0 0 1 581.142 59.246 A 3.62 3.62 0 0 1 582.683 58.419 A 15.451 15.451 0 0 1 585.548 57.695 Q 590.173 57.005 594.208 59.629 A 16.723 16.723 0 0 1 596.213 61.169 Q 598.523 63.259 600.173 66.009 A 48.694 48.694 0 0 1 600.994 67.328 Q 601.831 68.717 602.898 70.644 A 175.586 175.586 0 0 1 603.253 71.289 Z M 367.963 88.119 L 366.643 86.799 Q 365.323 85.699 365.158 83.994 A 4.548 4.548 0 0 1 365.137 83.556 A 3.935 3.935 0 0 1 366.093 80.969 A 4.477 4.477 0 0 1 367.473 79.93 A 4.17 4.17 0 0 1 369.008 79.539 Q 370.713 79.429 372.033 80.529 A 13.085 13.085 0 0 1 372.404 80.852 Q 372.992 81.381 373.916 82.302 A 86.843 86.843 0 0 1 374.013 82.399 L 374.673 83.059 L 375.113 83.499 Q 375.442 83.828 375.552 83.829 A 5.78 5.78 0 0 0 375.527 83.263 Q 375.5 82.984 375.443 82.749 A 2.548 2.548 0 0 0 375.333 82.399 Q 374.614 78.622 371.248 72.346 A 103.218 103.218 0 0 0 369.613 69.419 Q 368.073 66.779 366.313 63.809 Q 365.808 63.051 364.98 61.777 A 514.084 514.084 0 0 1 364.443 60.949 A 214.58 214.58 0 0 0 363.274 59.162 A 163.964 163.964 0 0 0 362.188 57.539 A 390.508 390.508 0 0 0 360.402 54.928 A 352.638 352.638 0 0 0 360.153 54.569 Q 358.173 51.709 356.633 49.399 A 4.387 4.387 0 0 1 356.007 48.1 Q 355.764 47.244 355.918 46.319 A 3.866 3.866 0 0 1 357.535 43.742 A 4.965 4.965 0 0 1 357.623 43.679 A 4.681 4.681 0 0 1 358.821 42.243 Q 359.675 41.574 360.847 41.381 A 5.462 5.462 0 0 1 360.923 41.369 A 46.675 46.675 0 0 0 368.177 39.722 Q 371.721 38.635 375.572 36.949 A 89.627 89.627 0 0 0 378.633 35.539 Q 385.343 32.239 395.243 25.529 Q 396.673 24.539 398.378 24.869 A 3.991 3.991 0 0 1 401.007 26.638 A 5.249 5.249 0 0 1 401.073 26.739 Q 401.953 28.169 401.623 29.874 Q 401.293 31.579 399.863 32.459 A 242.897 242.897 0 0 1 392.802 37.052 Q 389.559 39.077 386.665 40.712 A 109.679 109.679 0 0 1 382.373 43.019 A 76.777 76.777 0 0 1 374.65 46.437 Q 370.663 47.931 366.921 48.744 A 47.244 47.244 0 0 1 366.423 48.849 A 0.804 0.804 0 0 1 366.499 48.938 Q 366.535 48.986 366.571 49.047 A 2.009 2.009 0 0 1 366.643 49.179 A 4.23 4.23 0 0 0 366.751 49.382 Q 366.807 49.48 366.863 49.564 A 2.21 2.21 0 0 0 366.959 49.698 Q 367.021 49.777 367.083 49.839 A 686.074 686.074 0 0 1 369.038 52.741 Q 372.236 57.519 373.353 59.409 A 42.471 42.471 0 0 1 374.068 60.523 Q 375.223 62.379 376.873 65.349 A 108.873 108.873 0 0 1 379.628 70.428 Q 382.714 76.528 383.583 80.639 Q 384.157 83.651 383.702 85.915 A 7.903 7.903 0 0 1 382.923 88.119 A 7.034 7.034 0 0 1 377.917 91.966 A 10.746 10.746 0 0 1 375.663 92.189 A 8.953 8.953 0 0 1 369.588 89.834 A 11.532 11.532 0 0 1 369.393 89.659 Q 369.283 89.549 369.173 89.384 Q 369.063 89.219 368.898 89.109 A 2.21 2.21 0 0 1 368.764 89.013 Q 368.685 88.951 368.623 88.889 A 0.895 0.895 0 0 0 368.554 88.777 Q 368.393 88.549 367.963 88.119 Z M 479.613 88.119 L 478.293 86.799 Q 476.973 85.699 476.808 83.994 A 4.548 4.548 0 0 1 476.787 83.556 A 3.935 3.935 0 0 1 477.743 80.969 A 4.477 4.477 0 0 1 479.123 79.93 A 4.17 4.17 0 0 1 480.658 79.539 Q 482.363 79.429 483.683 80.529 A 13.085 13.085 0 0 1 484.054 80.852 Q 484.642 81.381 485.566 82.302 A 86.843 86.843 0 0 1 485.663 82.399 L 486.323 83.059 L 486.763 83.499 Q 487.092 83.828 487.202 83.829 A 5.78 5.78 0 0 0 487.177 83.263 Q 487.15 82.984 487.093 82.749 A 2.548 2.548 0 0 0 486.983 82.399 Q 486.264 78.622 482.898 72.346 A 103.218 103.218 0 0 0 481.263 69.419 Q 479.723 66.779 477.963 63.809 Q 477.458 63.051 476.63 61.777 A 514.084 514.084 0 0 1 476.093 60.949 A 214.58 214.58 0 0 0 474.924 59.162 A 163.964 163.964 0 0 0 473.838 57.539 A 390.508 390.508 0 0 0 472.052 54.928 A 352.638 352.638 0 0 0 471.803 54.569 Q 469.823 51.709 468.283 49.399 A 4.387 4.387 0 0 1 467.657 48.1 Q 467.414 47.244 467.568 46.319 A 3.866 3.866 0 0 1 469.185 43.742 A 4.965 4.965 0 0 1 469.273 43.679 A 4.681 4.681 0 0 1 470.471 42.243 Q 471.325 41.574 472.497 41.381 A 5.462 5.462 0 0 1 472.573 41.369 A 46.675 46.675 0 0 0 479.827 39.722 Q 483.371 38.635 487.222 36.949 A 89.627 89.627 0 0 0 490.283 35.539 Q 496.993 32.239 506.893 25.529 Q 508.323 24.539 510.028 24.869 A 3.991 3.991 0 0 1 512.657 26.638 A 5.249 5.249 0 0 1 512.723 26.739 Q 513.603 28.169 513.273 29.874 Q 512.943 31.579 511.513 32.459 A 242.897 242.897 0 0 1 504.452 37.052 Q 501.209 39.077 498.315 40.712 A 109.679 109.679 0 0 1 494.023 43.019 A 76.777 76.777 0 0 1 486.3 46.437 Q 482.313 47.931 478.571 48.744 A 47.244 47.244 0 0 1 478.073 48.849 A 0.804 0.804 0 0 1 478.149 48.938 Q 478.185 48.986 478.221 49.047 A 2.009 2.009 0 0 1 478.293 49.179 A 4.23 4.23 0 0 0 478.401 49.382 Q 478.457 49.48 478.513 49.564 A 2.21 2.21 0 0 0 478.609 49.698 Q 478.671 49.777 478.733 49.839 A 686.074 686.074 0 0 1 480.688 52.741 Q 483.886 57.519 485.003 59.409 A 42.471 42.471 0 0 1 485.718 60.523 Q 486.873 62.379 488.523 65.349 A 108.873 108.873 0 0 1 491.278 70.428 Q 494.364 76.528 495.233 80.639 Q 495.807 83.651 495.352 85.915 A 7.903 7.903 0 0 1 494.573 88.119 A 7.034 7.034 0 0 1 489.567 91.966 A 10.746 10.746 0 0 1 487.313 92.189 A 8.953 8.953 0 0 1 481.238 89.834 A 11.532 11.532 0 0 1 481.043 89.659 Q 480.933 89.549 480.823 89.384 Q 480.713 89.219 480.548 89.109 A 2.21 2.21 0 0 1 480.414 89.013 Q 480.335 88.951 480.273 88.889 A 0.895 0.895 0 0 0 480.204 88.777 Q 480.043 88.549 479.613 88.119 Z M 655.503 70.299 L 655.503 83.609 L 655.503 88.009 A 4.217 4.217 0 0 1 655.146 89.758 A 4.097 4.097 0 0 1 654.293 90.979 A 4.03 4.03 0 0 1 651.378 92.189 A 5.08 5.08 0 0 1 651.323 92.189 A 4.217 4.217 0 0 1 649.574 91.832 A 4.097 4.097 0 0 1 648.353 90.979 A 4.03 4.03 0 0 1 647.143 88.064 A 5.08 5.08 0 0 1 647.143 88.009 L 647.143 83.609 L 647.143 70.519 A 235.967 235.967 0 0 0 646.862 63.915 Q 646.666 60.507 646.378 57.593 A 95.239 95.239 0 0 0 645.713 52.259 Q 644.173 43.789 641.643 40.819 Q 639.443 38.289 635.593 39.609 A 21.159 21.159 0 0 0 631.452 41.661 Q 627.478 44.138 622.615 48.88 A 108.313 108.313 0 0 0 619.203 52.369 Q 617.993 53.579 616.233 53.634 A 4.867 4.867 0 0 1 616.081 53.637 Q 615.076 53.637 614.255 53.212 A 3.995 3.995 0 0 1 613.263 52.479 Q 612.053 51.269 611.998 49.509 A 4.867 4.867 0 0 1 611.996 49.357 Q 611.996 48.352 612.42 47.531 A 3.995 3.995 0 0 1 613.153 46.539 A 109.504 109.504 0 0 1 619.345 40.561 Q 625.587 35.027 630.756 32.598 A 24.321 24.321 0 0 1 632.953 31.689 Q 641.696 28.809 647.265 34.682 A 16.627 16.627 0 0 1 648.023 35.539 A 19.597 19.597 0 0 1 650.613 39.636 Q 652.613 43.768 653.803 49.965 A 69.327 69.327 0 0 1 653.963 50.829 A 89.5 89.5 0 0 1 654.634 55.897 Q 655.256 61.784 655.488 69.765 A 286.783 286.783 0 0 1 655.503 70.299 Z M 339.253 14.309 L 339.253 13.979 L 339.253 13.869 L 339.253 13.759 Q 339.363 11.999 340.628 10.844 A 3.906 3.906 0 0 1 343.351 9.79 A 4.846 4.846 0 0 1 343.653 9.799 Q 345.413 9.909 346.568 11.174 A 3.906 3.906 0 0 1 347.623 13.897 A 4.846 4.846 0 0 1 347.613 14.199 A 7.984 7.984 0 0 1 347.596 14.693 Q 347.565 15.181 347.481 15.856 A 37.209 37.209 0 0 1 347.393 16.509 Q 347.309 17.267 347.289 18.605 A 59.418 59.418 0 0 0 347.283 19.479 A 2.281 2.281 0 0 1 347.276 19.651 Q 347.263 19.818 347.228 20.029 A 5.133 5.133 0 0 0 347.197 20.243 Q 347.173 20.435 347.173 20.579 A 66.585 66.585 0 0 0 351.492 19.641 A 73.01 73.01 0 0 0 352.123 19.479 A 99.404 99.404 0 0 0 356.841 18.03 Q 359.027 17.304 361.478 16.401 A 218.973 218.973 0 0 0 366.643 14.419 A 445.072 445.072 0 0 0 376.805 10.31 Q 380.815 8.627 384.324 7.042 A 207.906 207.906 0 0 0 390.843 3.969 A 4.254 4.254 0 0 1 391.973 3.583 Q 392.894 3.413 393.833 3.702 A 4.541 4.541 0 0 1 393.978 3.749 Q 395.573 4.299 396.453 5.839 A 3.664 3.664 0 0 1 396.902 7.601 Q 396.902 8.264 396.673 8.974 Q 396.123 10.679 394.583 11.449 Q 383.693 16.839 369.723 22.229 A 236.789 236.789 0 0 1 363.433 24.57 Q 360.317 25.677 357.538 26.548 A 121.184 121.184 0 0 1 354.323 27.509 Q 349.923 28.719 348.053 28.939 Q 345.065 29.203 343.2 28.764 A 6.496 6.496 0 0 1 342.333 28.499 A 4.607 4.607 0 0 1 340.526 27.287 A 5.638 5.638 0 0 1 340.243 26.959 Q 340.066 26.782 339.676 25.966 A 25.428 25.428 0 0 1 339.473 25.529 Q 339.307 25.032 339.141 24.034 A 31.356 31.356 0 0 1 339.033 23.329 A 38.088 38.088 0 0 1 338.924 21.812 Q 338.861 20.561 338.904 19.523 A 17.754 17.754 0 0 1 338.923 19.149 A 11.989 11.989 0 0 1 338.926 18.894 Q 338.934 18.538 338.96 17.942 A 107.696 107.696 0 0 1 338.978 17.554 A 83.282 83.282 0 0 0 339.002 17.014 Q 339.032 16.28 339.033 15.869 A 11.379 11.379 0 0 0 339.033 15.849 A 2.927 2.927 0 0 1 339.037 15.719 Q 339.047 15.492 339.088 15.079 A 5.555 5.555 0 0 1 339.119 14.825 Q 339.155 14.582 339.205 14.428 A 0.887 0.887 0 0 1 339.253 14.309 Z M 450.903 14.309 L 450.903 13.979 L 450.903 13.869 L 450.903 13.759 Q 451.013 11.999 452.278 10.844 A 3.906 3.906 0 0 1 455.001 9.79 A 4.846 4.846 0 0 1 455.303 9.799 Q 457.063 9.909 458.218 11.174 A 3.906 3.906 0 0 1 459.273 13.897 A 4.846 4.846 0 0 1 459.263 14.199 A 7.984 7.984 0 0 1 459.246 14.693 Q 459.215 15.181 459.131 15.856 A 37.209 37.209 0 0 1 459.043 16.509 Q 458.959 17.267 458.939 18.605 A 59.418 59.418 0 0 0 458.933 19.479 A 2.281 2.281 0 0 1 458.926 19.651 Q 458.913 19.818 458.878 20.029 A 5.133 5.133 0 0 0 458.847 20.243 Q 458.823 20.435 458.823 20.579 A 66.585 66.585 0 0 0 463.142 19.641 A 73.01 73.01 0 0 0 463.773 19.479 A 99.404 99.404 0 0 0 468.491 18.03 Q 470.677 17.304 473.128 16.401 A 218.973 218.973 0 0 0 478.293 14.419 A 445.072 445.072 0 0 0 488.455 10.31 Q 492.465 8.627 495.974 7.042 A 207.906 207.906 0 0 0 502.493 3.969 A 4.254 4.254 0 0 1 503.623 3.583 Q 504.544 3.413 505.483 3.702 A 4.541 4.541 0 0 1 505.628 3.749 Q 507.223 4.299 508.103 5.839 A 3.664 3.664 0 0 1 508.552 7.601 Q 508.552 8.264 508.323 8.974 Q 507.773 10.679 506.233 11.449 Q 495.343 16.839 481.373 22.229 A 236.789 236.789 0 0 1 475.083 24.57 Q 471.967 25.677 469.188 26.548 A 121.184 121.184 0 0 1 465.973 27.509 Q 461.573 28.719 459.703 28.939 Q 456.715 29.203 454.85 28.764 A 6.496 6.496 0 0 1 453.983 28.499 A 4.607 4.607 0 0 1 452.176 27.287 A 5.638 5.638 0 0 1 451.893 26.959 Q 451.716 26.782 451.326 25.966 A 25.428 25.428 0 0 1 451.123 25.529 Q 450.957 25.032 450.791 24.034 A 31.356 31.356 0 0 1 450.683 23.329 A 38.088 38.088 0 0 1 450.574 21.812 Q 450.511 20.561 450.554 19.523 A 17.754 17.754 0 0 1 450.573 19.149 A 11.989 11.989 0 0 1 450.576 18.894 Q 450.584 18.538 450.61 17.942 A 107.696 107.696 0 0 1 450.628 17.554 A 83.282 83.282 0 0 0 450.652 17.014 Q 450.682 16.28 450.683 15.869 A 11.379 11.379 0 0 0 450.683 15.849 A 2.927 2.927 0 0 1 450.687 15.719 Q 450.697 15.492 450.738 15.079 A 5.555 5.555 0 0 1 450.769 14.825 Q 450.805 14.582 450.855 14.428 A 0.887 0.887 0 0 1 450.903 14.309 Z M 339.583 17.939 L 339.583 20.029 A 6.722 6.722 0 0 1 339.862 21.608 Q 339.903 22.276 339.828 23 A 10.03 10.03 0 0 1 339.803 23.219 L 339.803 23.879 L 339.803 24.429 Q 339.913 26.079 338.868 27.399 Q 337.823 28.719 336.173 28.939 A 10.358 10.358 0 0 1 333.202 30.134 Q 326.443 31.791 312.743 27.839 Q 307.65 26.43 302.237 22.78 A 51.024 51.024 0 0 1 302.073 22.669 A 54.587 54.587 0 0 1 299.712 20.942 Q 297.027 18.874 293.611 15.833 A 175.422 175.422 0 0 1 293.383 15.629 Q 292.173 14.419 292.118 12.714 Q 292.063 11.009 293.163 9.799 A 0.158 0.158 0 0 1 293.169 9.756 Q 293.183 9.707 293.232 9.694 A 0.162 0.162 0 0 1 293.273 9.689 Q 293.048 8.191 293.64 7.05 A 4.008 4.008 0 0 1 294.373 6.059 A 19.513 19.513 0 0 1 308.691 0.121 Q 312.109 0.121 315.933 1.109 A 39.245 39.245 0 0 1 329.276 7.408 A 45.368 45.368 0 0 1 330.563 8.369 A 9.311 9.311 0 0 0 330.137 6.14 A 8.427 8.427 0 0 0 329.903 5.509 Q 329.353 3.859 330.123 2.319 A 4.02 4.02 0 0 1 332.492 0.247 A 4.936 4.936 0 0 1 332.543 0.229 Q 334.193 -0.321 335.733 0.449 A 4.02 4.02 0 0 1 337.806 2.818 A 4.936 4.936 0 0 1 337.823 2.869 A 22.129 22.129 0 0 1 338.68 6.063 Q 339.399 9.722 339.473 14.969 A 39.331 39.331 0 0 0 339.554 17.535 A 35.35 35.35 0 0 0 339.583 17.939 Z M 173.069 103.104 A 27.976 27.976 0 0 0 171.283 107.259 Q 170.944 108.278 171.107 109.275 A 4.491 4.491 0 0 0 171.503 110.504 A 5.236 5.236 0 0 0 171.641 110.771 A 3.948 3.948 0 0 0 173.813 112.649 Q 174.832 112.989 175.829 112.825 A 4.491 4.491 0 0 0 177.058 112.429 A 4.96 4.96 0 0 0 177.157 112.38 A 3.986 3.986 0 0 0 179.203 110.009 A 27.782 27.782 0 0 1 179.669 108.817 Q 180.595 106.609 181.649 105.301 A 6.155 6.155 0 0 1 182.943 104.069 A 4.784 4.784 0 0 1 183.165 103.965 Q 183.702 103.73 183.996 103.787 A 0.426 0.426 0 0 1 184.153 103.849 A 2.212 2.212 0 0 1 184.505 104.128 Q 185.414 105.009 185.693 107.149 A 9.731 9.731 0 0 1 185.719 107.337 Q 186.056 109.986 185.045 113.497 A 30.614 30.614 0 0 1 184.043 116.389 Q 183.493 117.929 184.153 119.524 A 4.048 4.048 0 0 0 184.998 120.823 A 4.199 4.199 0 0 0 186.463 121.779 A 4.473 4.473 0 0 0 186.584 121.829 Q 187.572 122.218 188.582 122.067 A 4.344 4.344 0 0 0 189.598 121.779 A 4.048 4.048 0 0 0 190.897 120.934 A 4.199 4.199 0 0 0 191.853 119.469 Q 194.144 113.869 194.144 108.923 A 20.295 20.295 0 0 0 193.943 106.049 A 16.961 16.961 0 0 0 193.049 102.405 A 11.11 11.11 0 0 0 188.663 96.809 Q 183.713 93.619 178.433 97.139 A 12.555 12.555 0 0 0 175.63 99.437 Q 174.214 100.971 173.069 103.104 Z M 331.223 22.009 L 331.333 22.009 Q 331.238 21.819 331.225 21.546 A 1.852 1.852 0 0 1 331.223 21.459 Q 330.664 20.1 329.349 18.626 A 18.954 18.954 0 0 0 328.253 17.499 Q 322.313 11.339 313.953 9.249 Q 308.684 7.95 304.788 9.209 A 11.274 11.274 0 0 0 301.083 11.229 Q 303.833 13.759 306.803 15.739 A 38.574 38.574 0 0 0 309.862 17.659 Q 311.398 18.519 312.807 19.082 A 16.664 16.664 0 0 0 315.053 19.809 Q 320.461 21.409 324.655 22.006 A 35.227 35.227 0 0 0 328.143 22.339 A 17.581 17.581 0 0 0 329.351 22.3 Q 329.949 22.259 330.46 22.174 A 7.734 7.734 0 0 0 331.223 22.009 Z M 270.613 75.799 A 23.121 23.121 0 0 0 271.833 79.774 A 20.057 20.057 0 0 0 272.593 81.409 Q 273.749 83.825 276.308 84.335 A 6.535 6.535 0 0 0 276.553 84.379 Q 279.413 84.929 282.603 83.279 Q 285.353 81.959 286.123 79.869 A 2.895 2.895 0 0 0 286.177 79.372 Q 286.183 79.117 286.15 78.843 A 4.302 4.302 0 0 0 286.123 78.659 A 2.001 2.001 0 0 0 285.94 78.062 Q 285.69 77.528 285.118 76.899 A 9.492 9.492 0 0 0 284.803 76.569 A 7.145 7.145 0 0 0 281.521 74.738 Q 277.479 73.658 270.613 75.799 Z M 781.663 82.336 A 13.887 13.887 0 0 0 781.673 82.179 A 23.121 23.121 0 0 0 781.786 80.604 Q 781.903 77.63 781.409 73.528 A 80.551 80.551 0 0 0 781.123 71.399 A 4.625 4.625 0 0 0 780.04 71.811 A 3.599 3.599 0 0 0 779.033 72.609 A 6.263 6.263 0 0 0 777.551 75.361 A 9.143 9.143 0 0 0 777.273 77.339 Q 777.02 79.707 777.741 81.685 A 8.468 8.468 0 0 0 778.263 82.839 A 5.23 5.23 0 0 0 778.919 83.86 A 3.174 3.174 0 0 0 781.013 85.039 Q 781.54 84.091 781.663 82.336 Z" vector-effect="non-scaling-stroke"/></g></svg>