<svg width="588.3" height="142.107" viewBox="0 0 588.3 142.107" xmlns="http://www.w3.org/2000/svg"><g id="svgGroup" stroke-linecap="round" fill-rule="evenodd" font-size="9pt" stroke="#000" stroke-width="0.25mm" fill="#000" style="stroke:#000;stroke-width:0.25mm;fill:#000"><path d="M 175.68 77.76 L 175.68 75.84 A 25.285 25.285 0 0 1 175.794 73.389 A 20.042 20.042 0 0 1 176.04 71.64 Q 176.802 68.159 178.254 66.551 A 4.978 4.978 0 0 1 178.56 66.24 Q 182.542 62.258 187.495 63.346 A 11.215 11.215 0 0 1 188.04 63.48 A 12.907 12.907 0 0 1 191.862 65.546 Q 193.379 66.702 194.857 68.381 A 32.793 32.793 0 0 1 197.28 71.52 Q 200.64 76.68 203.76 83.4 Q 204.644 85.168 206.342 89.277 A 299.514 299.514 0 0 1 206.64 90 A 0.096 0.096 0 0 1 206.73 90.059 Q 206.76 90.119 206.76 90.24 Q 207.231 88.12 207.934 83.685 A 305.589 305.589 0 0 0 207.96 83.52 Q 208.16 82.822 208.359 81.543 A 42.712 42.712 0 0 0 208.44 81 Q 208.44 80.907 208.476 80.742 A 3.497 3.497 0 0 1 208.5 80.64 Q 208.56 80.4 208.56 80.28 L 208.68 79.8 Q 208.92 78.84 209.04 77.52 Q 209.04 77.418 209.17 76.709 A 70.277 70.277 0 0 1 209.22 76.44 A 34.528 34.528 0 0 0 209.281 76.106 Q 209.4 75.435 209.4 75.24 Q 210.343 70.174 210.591 67.653 A 28.316 28.316 0 0 0 210.6 67.56 A 77.135 77.135 0 0 0 211.256 61.932 A 59.151 59.151 0 0 0 211.44 57.36 Q 211.44 55.92 211.56 54.48 A 8.633 8.633 0 0 1 211.584 53.857 A 10.396 10.396 0 0 1 211.62 53.46 Q 211.675 52.963 211.68 52.72 A 2.217 2.217 0 0 0 211.68 52.68 Q 211.68 50.315 211.391 49.395 A 2.066 2.066 0 0 0 211.32 49.2 Q 211.127 48.91 210.934 48.854 A 0.332 0.332 0 0 0 210.84 48.84 Q 210.039 48.383 208.258 48.579 A 12.364 12.364 0 0 0 208.08 48.6 Q 203.64 48.84 196.8 51.12 A 62.31 62.31 0 0 0 194.923 51.727 Q 192.69 52.485 189.72 53.64 A 0.326 0.326 0 0 0 189.65 53.658 Q 189.319 53.765 187.547 54.508 A 304.08 304.08 0 0 0 186.9 54.78 Q 185.044 55.564 183.556 56.206 A 278.349 278.349 0 0 0 182.28 56.76 A 175.287 175.287 0 0 1 180.68 57.479 Q 178.796 58.312 177.781 58.692 A 10.833 10.833 0 0 1 177.12 58.92 L 176.88 59.04 L 176.4 59.28 A 6.891 6.891 0 0 1 176.269 59.344 Q 176.122 59.414 175.927 59.499 A 22.82 22.82 0 0 1 175.74 59.58 Q 175.32 59.76 174.96 60 A 85.457 85.457 0 0 0 174.431 60.268 Q 173.558 60.712 171.87 61.585 A 1379.428 1379.428 0 0 0 170.76 62.16 Q 169.222 62.975 168.366 63.516 A 10.525 10.525 0 0 0 167.88 63.84 Q 165.96 67.08 162.48 65.88 Q 161.16 65.52 160.32 64.44 Q 159.203 63.222 159.203 61.66 A 4.669 4.669 0 0 1 159.24 61.08 Q 159.24 60 159.84 59.04 Q 159.96 58.68 160.44 58.2 A 5.912 5.912 0 0 1 160.923 57.691 Q 161.188 57.441 161.517 57.179 A 14.381 14.381 0 0 1 162.24 56.64 Q 164.4 55.2 166.44 54.12 Q 171.413 51.468 173.74 50.444 A 25.915 25.915 0 0 1 174.12 50.28 A 6.106 6.106 0 0 0 174.536 50.14 Q 175.658 49.725 178.68 48.36 Q 180.309 47.662 186 45.384 A 1802.715 1802.715 0 0 1 186.36 45.24 Q 190.439 43.63 193.27 42.692 A 66.629 66.629 0 0 1 193.92 42.48 Q 202.2 39.6 207.72 39.48 Q 211.313 39.263 213.819 40.23 A 9.336 9.336 0 0 1 214.32 40.44 Q 214.419 40.44 214.519 40.523 A 0.597 0.597 0 0 1 214.56 40.56 L 214.8 40.68 A 2.574 2.574 0 0 0 215.021 40.512 Q 215.233 40.335 215.503 40.056 A 12.607 12.607 0 0 0 215.76 39.78 Q 216.236 39.257 216.485 38.923 A 3.82 3.82 0 0 0 216.6 38.76 Q 219.205 35.722 219.454 35.333 A 0.152 0.152 0 0 0 219.48 35.28 Q 222.486 31.953 225.395 29.873 A 25.616 25.616 0 0 1 226.08 29.4 A 42.06 42.06 0 0 1 231.178 26.572 A 47.167 47.167 0 0 1 232.08 26.16 Q 233.76 25.44 235.5 26.16 Q 237.24 26.88 238.08 28.56 A 4.285 4.285 0 0 1 238.469 29.698 Q 238.648 30.667 238.321 31.655 A 4.771 4.771 0 0 1 238.2 31.98 Q 237.48 33.72 235.8 34.56 Q 232.92 35.88 231.12 37.08 Q 229.553 38.038 227.795 39.818 A 33.168 33.168 0 0 0 226.44 41.28 A 4663.112 4663.112 0 0 0 225.517 42.349 Q 224.358 43.693 223.756 44.392 A 320.608 320.608 0 0 0 223.44 44.76 Q 222.48 45.84 220.44 47.88 A 33.132 33.132 0 0 1 220.786 51.898 A 37.709 37.709 0 0 1 220.8 52.92 A 3.339 3.339 0 0 1 220.797 53.056 Q 220.786 53.315 220.74 53.82 A 17.199 17.199 0 0 0 220.704 54.29 Q 220.689 54.521 220.683 54.725 A 8.736 8.736 0 0 0 220.68 54.96 Q 220.56 56.28 220.56 57.36 A 78.019 78.019 0 0 1 220.163 65.069 A 92.814 92.814 0 0 1 219.72 68.76 Q 219.24 71.76 218.4 76.8 A 17.562 17.562 0 0 0 218.218 77.602 Q 218.062 78.381 218.043 78.931 A 4.296 4.296 0 0 0 218.04 79.08 A 2.533 2.533 0 0 1 218.027 79.307 Q 217.973 79.898 217.68 81.36 Q 217.588 81.545 217.567 81.658 A 0.338 0.338 0 0 0 217.56 81.72 Q 217.56 81.813 217.524 81.979 A 3.497 3.497 0 0 1 217.5 82.08 Q 217.44 82.32 217.44 82.56 Q 217.103 84.469 216.977 85.012 A 4.497 4.497 0 0 1 216.96 85.08 A 57.98 57.98 0 0 1 216.642 87.327 Q 216.456 88.488 216.205 89.816 A 136.458 136.458 0 0 1 215.64 92.64 A 18.253 18.253 0 0 1 215.569 93.038 Q 215.484 93.486 215.351 94.095 A 72.834 72.834 0 0 1 215.22 94.68 A 272.718 272.718 0 0 1 215.089 95.253 Q 214.892 96.113 214.8 96.48 Q 213.886 100.706 213.516 101.888 A 6.457 6.457 0 0 1 213.48 102 Q 213.168 103.248 212.856 103.956 A 4.706 4.706 0 0 1 212.76 104.16 A 3.877 3.877 0 0 1 212.403 104.925 Q 212.201 105.263 211.92 105.6 A 2.389 2.389 0 0 1 211.217 106.339 A 3.101 3.101 0 0 1 210.84 106.56 Q 209.64 107.52 208.08 107.52 A 4.354 4.354 0 0 1 205.534 106.693 A 5.585 5.585 0 0 1 205.2 106.44 Q 204.69 106.134 204.179 105.567 A 7.133 7.133 0 0 1 204 105.36 A 6.428 6.428 0 0 1 203.431 104.552 Q 203.161 104.101 202.92 103.56 A 14.481 14.481 0 0 1 202.698 103.153 Q 202.125 102.068 200.76 99.24 L 198.36 93.6 Q 197.76 92.16 196.8 90.06 Q 195.84 87.96 195.48 87.24 Q 193.213 82.342 191.082 78.816 A 49.417 49.417 0 0 0 189.72 76.68 A 34.588 34.588 0 0 0 188.609 75.125 Q 186.631 72.524 185.4 72.24 Q 185.4 72.312 185.379 72.341 A 0.046 0.046 0 0 1 185.34 72.36 A 0.048 0.048 0 0 0 185.295 72.39 Q 185.283 72.413 185.281 72.455 A 0.404 0.404 0 0 0 185.28 72.48 Q 185.061 72.7 185.042 73.219 A 2.774 2.774 0 0 0 185.04 73.32 Q 184.8 74.76 184.8 75.84 L 184.8 77.76 Q 184.8 85.03 185.07 88.345 A 28.081 28.081 0 0 0 185.16 89.28 A 38.422 38.422 0 0 0 185.926 94.476 A 28.367 28.367 0 0 0 187.56 99.6 A 5.02 5.02 0 0 1 187.878 100.775 Q 188.044 101.971 187.56 103.14 A 4.35 4.35 0 0 1 185.124 105.566 A 5.513 5.513 0 0 1 185.04 105.6 Q 183.36 106.32 181.56 105.6 A 4.209 4.209 0 0 1 180.117 104.669 A 4.011 4.011 0 0 1 179.16 103.08 A 39.044 39.044 0 0 1 176.992 96.204 A 51.62 51.62 0 0 1 176.04 90.12 A 44.813 44.813 0 0 1 175.884 88.062 Q 175.68 84.438 175.68 77.76 Z M 10.8 50.16 L 10.2 49.56 Q 10.09 50.444 9.877 52.448 A 520.078 520.078 0 0 0 9.84 52.8 Q 9.348 57.558 9.192 63.942 A 257.207 257.207 0 0 0 9.12 70.2 Q 9.12 80.52 9.48 88.2 Q 9.6 90.48 9.84 92.64 A 31.385 31.385 0 0 0 10.818 89.967 A 41.267 41.267 0 0 0 11.52 87.48 Q 12.48 84 13.8 78.84 Q 14.4 76.2 14.52 75.84 Q 14.76 74.88 14.76 74.76 Q 15 74.28 15 74.04 A 4.686 4.686 0 0 1 16.029 72.588 A 4.305 4.305 0 0 1 17.64 71.64 Q 19.8 70.8 21.96 71.76 Q 23.28 72.48 24.12 73.68 A 10.188 10.188 0 0 1 24.81 74.667 Q 25.118 75.162 25.425 75.755 A 23.858 23.858 0 0 1 26.04 77.04 Q 26.88 78.96 27.48 81 Q 28.44 84.12 29.04 85.32 A 86.371 86.371 0 0 0 29.951 87.879 Q 31.274 91.404 32.282 92.887 A 5.374 5.374 0 0 0 32.64 93.36 Q 36.218 97.598 39.057 98.953 A 6.817 6.817 0 0 0 40.56 99.48 L 40.92 99.48 A 0.173 0.173 0 0 0 40.926 99.528 Q 40.947 99.6 41.04 99.6 Q 41.04 99.501 41.122 99.402 A 0.597 0.597 0 0 1 41.16 99.36 A 0.81 0.81 0 0 0 41.4 98.783 A 1.063 1.063 0 0 0 41.4 98.76 A 4.69 4.69 0 0 0 41.781 97.838 Q 42.045 96.964 42.12 95.76 Q 43.039 87.583 43.254 73.92 A 564.917 564.917 0 0 0 43.32 65.04 Q 43.32 60.365 43.428 57.207 A 119.979 119.979 0 0 1 43.44 56.88 L 43.44 54.12 Q 43.56 48.72 43.56 43.32 A 4.6 4.6 0 0 1 43.949 41.412 A 4.469 4.469 0 0 1 44.88 40.08 A 4.396 4.396 0 0 1 48.06 38.761 A 5.549 5.549 0 0 1 48.12 38.76 A 4.6 4.6 0 0 1 50.028 39.15 A 4.469 4.469 0 0 1 51.36 40.08 A 4.396 4.396 0 0 1 52.68 43.26 A 5.549 5.549 0 0 1 52.68 43.32 Q 52.68 48.84 52.56 54.24 L 52.56 57 Q 52.44 60.24 52.44 65.04 Q 52.44 82.151 51.543 92.659 A 124.561 124.561 0 0 1 51.12 96.84 A 19.58 19.58 0 0 1 50.459 100.694 Q 49.471 104.169 47.16 106.32 A 8.82 8.82 0 0 1 41.075 108.685 Q 40.195 108.685 39.261 108.531 A 13.321 13.321 0 0 1 38.4 108.36 A 17.882 17.882 0 0 1 32.788 105.855 Q 30.656 104.457 28.549 102.387 A 41.005 41.005 0 0 1 25.68 99.24 A 13.918 13.918 0 0 1 24.303 97.347 Q 23.705 96.371 23.162 95.193 A 27.083 27.083 0 0 1 22.68 94.08 Q 21.972 92.664 20.684 89.043 A 155.608 155.608 0 0 1 20.64 88.92 L 20.28 90 Q 18.341 96.647 16.545 100.169 A 17.189 17.189 0 0 1 15.48 102 A 14.489 14.489 0 0 1 13.877 104.066 A 16.508 16.508 0 0 1 13.44 104.52 A 7.538 7.538 0 0 1 11.64 105.606 A 6.201 6.201 0 0 1 9.6 106.08 Q 6.96 106.32 5.16 104.64 Q 3.6 103.44 2.76 101.64 Q 2.656 101.536 2.461 101.16 A 9.311 9.311 0 0 1 2.4 101.04 A 8.467 8.467 0 0 1 1.857 99.547 Q 0.949 96.274 0.48 88.68 Q 0.011 81.757 0 70.589 A 545.953 545.953 0 0 1 0 70.08 A 269.005 269.005 0 0 1 0.093 62.783 Q 0.186 59.357 0.373 56.399 A 118.656 118.656 0 0 1 0.72 52.08 Q 1.08 47.52 1.56 45.48 A 18.186 18.186 0 0 1 1.797 44.501 Q 2.066 43.516 2.389 42.862 A 5.407 5.407 0 0 1 2.4 42.84 A 7.022 7.022 0 0 1 3.257 41.142 A 5.654 5.654 0 0 1 4.68 39.72 Q 6.802 38.269 9.547 38.687 A 9.118 9.118 0 0 1 9.96 38.76 Q 11.76 39.12 13.68 40.44 A 6.853 6.853 0 0 1 13.928 40.639 Q 14.489 41.105 15.907 42.374 A 324.566 324.566 0 0 1 16.56 42.96 Q 17.124 43.525 17.581 43.927 A 11.587 11.587 0 0 0 18 44.28 L 18.6 44.88 A 4.799 4.799 0 0 1 19.816 46.221 A 4.417 4.417 0 0 1 20.4 47.94 Q 20.64 49.8 19.44 51.24 A 4.799 4.799 0 0 1 18.099 52.456 A 4.417 4.417 0 0 1 16.38 53.04 Q 14.52 53.28 13.08 52.08 A 4.02 4.02 0 0 0 12.921 51.931 Q 12.688 51.722 12.3 51.42 A 18.244 18.244 0 0 1 12.049 51.222 Q 11.789 51.012 11.623 50.858 A 3.565 3.565 0 0 1 11.52 50.76 Q 11.4 50.76 11.16 50.52 L 10.8 50.16 Z M 315.6 50.16 L 315 49.56 Q 314.89 50.444 314.677 52.448 A 520.078 520.078 0 0 0 314.64 52.8 Q 314.148 57.558 313.992 63.942 A 257.207 257.207 0 0 0 313.92 70.2 Q 313.92 80.52 314.28 88.2 Q 314.4 90.48 314.64 92.64 A 31.385 31.385 0 0 0 315.618 89.967 A 41.267 41.267 0 0 0 316.32 87.48 Q 317.28 84 318.6 78.84 Q 319.2 76.2 319.32 75.84 Q 319.56 74.88 319.56 74.76 Q 319.8 74.28 319.8 74.04 A 4.686 4.686 0 0 1 320.829 72.588 A 4.305 4.305 0 0 1 322.44 71.64 Q 324.6 70.8 326.76 71.76 Q 328.08 72.48 328.92 73.68 A 10.188 10.188 0 0 1 329.61 74.667 Q 329.918 75.162 330.225 75.755 A 23.858 23.858 0 0 1 330.84 77.04 Q 331.68 78.96 332.28 81 Q 333.24 84.12 333.84 85.32 A 86.371 86.371 0 0 0 334.751 87.879 Q 336.074 91.404 337.082 92.887 A 5.374 5.374 0 0 0 337.44 93.36 Q 341.018 97.598 343.857 98.953 A 6.817 6.817 0 0 0 345.36 99.48 L 345.72 99.48 A 0.173 0.173 0 0 0 345.726 99.528 Q 345.747 99.6 345.84 99.6 Q 345.84 99.501 345.922 99.402 A 0.597 0.597 0 0 1 345.96 99.36 A 0.81 0.81 0 0 0 346.2 98.783 A 1.063 1.063 0 0 0 346.2 98.76 A 4.69 4.69 0 0 0 346.581 97.838 Q 346.845 96.964 346.92 95.76 Q 347.839 87.583 348.054 73.92 A 564.917 564.917 0 0 0 348.12 65.04 Q 348.12 60.365 348.228 57.207 A 119.979 119.979 0 0 1 348.24 56.88 L 348.24 54.12 Q 348.36 48.72 348.36 43.32 A 4.6 4.6 0 0 1 348.749 41.412 A 4.469 4.469 0 0 1 349.68 40.08 A 4.396 4.396 0 0 1 352.86 38.761 A 5.549 5.549 0 0 1 352.92 38.76 A 4.6 4.6 0 0 1 354.828 39.15 A 4.469 4.469 0 0 1 356.16 40.08 A 4.396 4.396 0 0 1 357.48 43.26 A 5.549 5.549 0 0 1 357.48 43.32 Q 357.48 48.84 357.36 54.24 L 357.36 57 Q 357.24 60.24 357.24 65.04 Q 357.24 82.151 356.343 92.659 A 124.561 124.561 0 0 1 355.92 96.84 A 19.58 19.58 0 0 1 355.259 100.694 Q 354.271 104.169 351.96 106.32 A 8.82 8.82 0 0 1 345.875 108.685 Q 344.995 108.685 344.061 108.531 A 13.321 13.321 0 0 1 343.2 108.36 A 17.882 17.882 0 0 1 337.588 105.855 Q 335.456 104.457 333.349 102.387 A 41.005 41.005 0 0 1 330.48 99.24 A 13.918 13.918 0 0 1 329.103 97.347 Q 328.505 96.371 327.962 95.193 A 27.083 27.083 0 0 1 327.48 94.08 Q 326.772 92.664 325.484 89.043 A 155.608 155.608 0 0 1 325.44 88.92 L 325.08 90 Q 323.141 96.647 321.345 100.169 A 17.189 17.189 0 0 1 320.28 102 A 14.489 14.489 0 0 1 318.677 104.066 A 16.508 16.508 0 0 1 318.24 104.52 A 7.538 7.538 0 0 1 316.44 105.606 A 6.201 6.201 0 0 1 314.4 106.08 Q 311.76 106.32 309.96 104.64 Q 308.4 103.44 307.56 101.64 Q 307.456 101.536 307.261 101.16 A 9.311 9.311 0 0 1 307.2 101.04 A 8.467 8.467 0 0 1 306.657 99.547 Q 305.749 96.274 305.28 88.68 Q 304.811 81.757 304.8 70.589 A 545.953 545.953 0 0 1 304.8 70.08 A 269.005 269.005 0 0 1 304.893 62.783 Q 304.986 59.357 305.173 56.399 A 118.656 118.656 0 0 1 305.52 52.08 Q 305.88 47.52 306.36 45.48 A 18.186 18.186 0 0 1 306.597 44.501 Q 306.866 43.516 307.189 42.862 A 5.407 5.407 0 0 1 307.2 42.84 A 7.022 7.022 0 0 1 308.057 41.142 A 5.654 5.654 0 0 1 309.48 39.72 Q 311.602 38.269 314.347 38.687 A 9.118 9.118 0 0 1 314.76 38.76 Q 316.56 39.12 318.48 40.44 A 6.853 6.853 0 0 1 318.728 40.639 Q 319.289 41.105 320.707 42.374 A 324.566 324.566 0 0 1 321.36 42.96 Q 321.924 43.525 322.381 43.927 A 11.587 11.587 0 0 0 322.8 44.28 L 323.4 44.88 A 4.799 4.799 0 0 1 324.616 46.221 A 4.417 4.417 0 0 1 325.2 47.94 Q 325.44 49.8 324.24 51.24 A 4.799 4.799 0 0 1 322.899 52.456 A 4.417 4.417 0 0 1 321.18 53.04 Q 319.32 53.28 317.88 52.08 A 4.02 4.02 0 0 0 317.721 51.931 Q 317.488 51.722 317.1 51.42 A 18.244 18.244 0 0 1 316.849 51.222 Q 316.589 51.012 316.423 50.858 A 3.565 3.565 0 0 1 316.32 50.76 Q 316.2 50.76 315.96 50.52 L 315.6 50.16 Z M 416.52 100.44 L 416.52 101.76 A 4.6 4.6 0 0 1 416.131 103.668 A 4.469 4.469 0 0 1 415.2 105 A 4.396 4.396 0 0 1 412.02 106.32 A 5.549 5.549 0 0 1 411.96 106.32 A 4.6 4.6 0 0 1 410.052 105.931 A 4.469 4.469 0 0 1 408.72 105 A 4.396 4.396 0 0 1 407.4 101.82 A 5.549 5.549 0 0 1 407.4 101.76 L 407.4 100.32 Q 407.4 86.76 406.68 79.44 A 91.885 91.885 0 0 0 405.619 71.137 Q 404.145 62.87 401.275 57.834 A 20.647 20.647 0 0 0 399.6 55.32 A 15.248 15.248 0 0 0 396.907 52.695 A 11.26 11.26 0 0 0 392.4 50.64 Q 387.944 49.708 381.787 51.639 A 41.001 41.001 0 0 0 379.8 52.32 Q 376.756 53.407 375.387 58.729 A 25.02 25.02 0 0 0 375.12 59.88 Q 373.8 66.24 375 75.96 A 97.483 97.483 0 0 0 376.951 87.31 A 114.525 114.525 0 0 0 378.12 91.92 Q 378.576 93.517 379.357 95.871 A 181.494 181.494 0 0 0 379.44 96.12 A 7.83 7.83 0 0 0 380.928 95.689 Q 382.382 95.119 384.127 93.918 A 25.657 25.657 0 0 0 384.24 93.84 A 19.702 19.702 0 0 0 388.735 89.455 A 17.87 17.87 0 0 0 390.48 86.52 A 10.599 10.599 0 0 0 390.942 85.361 Q 391.783 82.796 390.6 81.12 Q 389.84 80.075 388.327 79.331 A 10.72 10.72 0 0 0 387.48 78.96 Q 385.3 78.001 382.107 77.486 A 40.942 40.942 0 0 0 379.56 77.16 A 5.091 5.091 0 0 1 377.747 76.597 A 4.681 4.681 0 0 1 376.44 75.54 A 4.36 4.36 0 0 1 375.349 72.585 A 5.524 5.524 0 0 1 375.36 72.24 A 4.455 4.455 0 0 1 375.835 70.452 A 4.296 4.296 0 0 1 376.92 69.12 A 4.573 4.573 0 0 1 379.935 68.029 A 5.532 5.532 0 0 1 380.28 68.04 A 45.879 45.879 0 0 1 386.589 69.097 Q 393.999 70.923 397.562 75.123 A 13.423 13.423 0 0 1 398.04 75.72 A 12.825 12.825 0 0 1 400.456 83.21 Q 400.456 86.538 398.808 90.254 A 24.626 24.626 0 0 1 398.76 90.36 A 27.802 27.802 0 0 1 391.569 99.66 A 33.777 33.777 0 0 1 389.52 101.28 A 26.202 26.202 0 0 1 385.54 103.686 Q 381.916 105.431 378.463 105.431 A 13.496 13.496 0 0 1 376.2 105.24 A 5.64 5.64 0 0 1 372.951 103.234 A 7.622 7.622 0 0 1 372.48 102.6 L 371.4 100.44 A 25.263 25.263 0 0 1 370.354 97.867 Q 369.892 96.536 369.502 95.011 A 43.258 43.258 0 0 1 369.36 94.44 Q 367.08 86.64 365.88 77.04 A 83.405 83.405 0 0 1 365.388 71.327 Q 365.011 63.812 366.24 57.84 A 31.771 31.771 0 0 1 367.692 53.079 A 24.994 24.994 0 0 1 369.48 49.44 Q 372.12 45.48 376.56 43.68 Q 395.165 36.689 405.506 48.134 A 27.128 27.128 0 0 1 406.8 49.68 A 32.163 32.163 0 0 1 410.119 55.1 Q 411.43 57.768 412.485 60.945 A 59.13 59.13 0 0 1 413.16 63.12 A 78.163 78.163 0 0 1 414.406 68.724 Q 415.23 73.137 415.8 78.48 Q 416.351 84.544 416.481 94.195 A 467.557 467.557 0 0 1 416.52 100.44 Z M 415.174 54.906 A 38.921 38.921 0 0 0 412.68 59.04 Q 412.088 60.224 412.241 61.467 A 4.732 4.732 0 0 0 412.5 62.52 Q 413.16 64.32 414.84 65.16 A 4.926 4.926 0 0 0 415.164 65.308 Q 416.154 65.717 417.166 65.608 A 4.415 4.415 0 0 0 418.26 65.34 Q 420 64.68 420.84 63 A 16.566 16.566 0 0 1 421.63 61.55 Q 422.288 60.466 423.183 59.315 A 35.552 35.552 0 0 1 425.16 57 Q 426.446 55.622 427.029 54.877 A 6.643 6.643 0 0 0 427.32 54.48 Q 428.52 53.16 429.72 51.12 Q 431.4 48.72 432.96 48.24 A 18.684 18.684 0 0 1 432.98 48.341 Q 433.099 48.954 433.32 50.28 Q 433.68 52.92 433.44 58.2 A 38.794 38.794 0 0 1 433.431 58.988 Q 433.389 61.056 433.147 65.214 A 571.548 571.548 0 0 1 432.96 68.28 Q 432.72 72.12 432.72 72.48 A 227.266 227.266 0 0 0 432.639 73.989 Q 432.119 84.352 432.784 90.782 A 39.493 39.493 0 0 0 433.32 94.44 A 27.423 27.423 0 0 0 433.531 95.424 Q 434.02 97.515 434.789 99.253 A 15.04 15.04 0 0 0 437.28 103.2 A 12.946 12.946 0 0 0 437.693 103.645 Q 441.315 107.368 446.76 106.8 Q 452.226 106.246 456.96 102.449 A 30.203 30.203 0 0 0 461.64 97.68 A 29.673 29.673 0 0 0 462.256 96.901 Q 464.108 94.476 465.96 91.08 Q 469.669 98.153 472.696 102.064 A 24.331 24.331 0 0 0 474.96 104.64 A 3.888 3.888 0 0 0 476.563 105.717 A 4.539 4.539 0 0 0 478.08 105.96 A 5.549 5.549 0 0 0 478.14 105.96 A 4.396 4.396 0 0 0 481.32 104.64 Q 482.64 103.32 482.64 101.46 A 5.211 5.211 0 0 0 482.64 101.402 A 4.33 4.33 0 0 0 481.32 98.28 Q 478.56 95.52 474.36 87.36 A 49.291 49.291 0 0 1 473.98 86.664 Q 473.158 85.125 472.335 83.336 A 87.1 87.1 0 0 1 470.76 79.68 Q 473.52 71.16 474.78 61.92 A 106.617 106.617 0 0 0 474.99 60.291 Q 475.976 52.122 475.32 46.44 A 25.875 25.875 0 0 0 475.233 45.88 Q 475.125 45.225 474.96 44.4 Q 474.72 43.08 474 41.52 A 8.859 8.859 0 0 0 473.962 41.449 A 7.178 7.178 0 0 0 470.58 38.22 A 6.411 6.411 0 0 0 467.874 37.622 Q 466.883 37.622 465.84 37.92 Q 460.8 39.36 458.04 43.56 A 14.389 14.389 0 0 0 457.292 44.873 Q 455.769 47.9 455.28 52.2 A 27.473 27.473 0 0 0 455.252 52.532 Q 454.635 60.37 458.16 72.12 Q 459.36 75.96 461.04 80.04 A 62.044 62.044 0 0 1 459.657 83.448 Q 458.464 86.144 457.139 88.361 A 29.909 29.909 0 0 1 454.08 92.64 Q 452.023 95.009 449.901 96.277 A 9.927 9.927 0 0 1 445.92 97.68 Q 444.72 97.8 444 97.08 A 3.504 3.504 0 0 1 443.492 96.413 Q 442.987 95.579 442.576 94.156 A 22.375 22.375 0 0 1 442.2 92.64 A 20.382 20.382 0 0 1 442.11 92.144 Q 441.151 86.51 441.84 73.08 A 6.126 6.126 0 0 1 441.843 72.913 Q 441.861 72.261 441.999 70.125 A 510.001 510.001 0 0 1 442.08 68.88 Q 442.56 61.08 442.56 58.44 A 127.139 127.139 0 0 0 442.581 57.863 Q 442.735 53.333 442.489 50.666 A 18.671 18.671 0 0 0 442.32 49.32 A 30.915 30.915 0 0 0 442.308 49.22 Q 441.93 46.061 441.008 43.902 A 9.51 9.51 0 0 0 439.68 41.64 Q 436.907 37.943 432.465 38.816 A 11.401 11.401 0 0 0 430.92 39.24 Q 425.28 41.16 422.04 46.32 A 256.269 256.269 0 0 1 421.585 46.939 Q 420.632 48.23 420.24 48.72 A 32.484 32.484 0 0 1 419.573 49.581 Q 418.891 50.429 418.32 51 Q 416.16 53.4 415.56 54.36 A 35.408 35.408 0 0 0 415.174 54.906 Z M 53.04 51.72 L 53.16 51.6 A 0.541 0.541 0 0 0 53.222 51.527 Q 53.252 51.484 53.267 51.44 A 0.252 0.252 0 0 0 53.28 51.36 L 53.4 51.12 L 53.76 50.4 Q 55.462 47.79 56.95 46.575 A 7.451 7.451 0 0 1 57.12 46.44 A 8.808 8.808 0 0 1 62.333 44.789 Q 63.012 44.789 63.72 44.88 A 6.42 6.42 0 0 1 66.858 46.369 A 8.347 8.347 0 0 1 67.56 47.04 A 9.348 9.348 0 0 1 68.105 47.641 Q 68.637 48.275 69.281 49.209 A 36.51 36.51 0 0 1 69.6 49.68 A 31.728 31.728 0 0 1 70.4 51.162 Q 71.494 53.31 72.96 56.76 A 130.774 130.774 0 0 1 77.917 73.108 A 146.037 146.037 0 0 1 78.48 75.6 A 38.327 38.327 0 0 1 81.401 76.721 Q 82.89 77.357 84.56 78.187 A 90.681 90.681 0 0 1 88.08 80.04 Q 94.8 83.76 100.2 88.08 L 100.2 84 A 117.685 117.685 0 0 0 100.197 83.166 Q 100.188 82.001 100.16 80.049 A 1054.609 1054.609 0 0 0 100.14 78.78 A 472.475 472.475 0 0 1 100.084 73.279 A 416.84 416.84 0 0 1 100.08 71.52 Q 99.96 58.68 99.96 45.96 A 4.6 4.6 0 0 1 100.349 44.052 A 4.469 4.469 0 0 1 101.28 42.72 A 4.396 4.396 0 0 1 104.46 41.401 A 5.549 5.549 0 0 1 104.52 41.4 A 4.6 4.6 0 0 1 106.428 41.79 A 4.469 4.469 0 0 1 107.76 42.72 A 4.396 4.396 0 0 1 109.08 45.9 A 5.549 5.549 0 0 1 109.08 45.96 Q 109.08 58.56 109.2 71.52 Q 109.2 74.88 109.26 78.72 Q 109.309 81.878 109.318 83.413 A 104.144 104.144 0 0 1 109.32 84 L 109.32 97.2 Q 109.32 98.52 109.2 99.12 A 4.335 4.335 0 0 1 109.121 99.968 A 3.289 3.289 0 0 1 108.84 100.8 A 2.831 2.831 0 0 1 108.244 102.116 A 3.202 3.202 0 0 1 108.24 102.12 Q 107.593 103.011 106.945 103.519 A 3.69 3.69 0 0 1 106.32 103.92 A 5.231 5.231 0 0 1 104.889 104.439 Q 103.715 104.672 102.503 104.294 A 5.883 5.883 0 0 1 102.12 104.16 A 5.87 5.87 0 0 1 101.152 103.731 Q 100.694 103.479 100.217 103.129 A 11.161 11.161 0 0 1 99.84 102.84 A 5.56 5.56 0 0 1 99.262 102.331 Q 98.475 101.547 97.44 100.08 Q 97.256 99.805 96.967 99.353 A 113.048 113.048 0 0 1 96.78 99.06 Q 96.463 98.563 96.249 98.304 A 2.086 2.086 0 0 0 96.12 98.16 Q 94.56 95.64 94.56 95.52 L 94.08 94.8 A 59.813 59.813 0 0 0 89.473 91.457 Q 86.796 89.693 83.64 87.96 A 8.825 8.825 0 0 1 83.306 87.818 Q 82.927 87.648 82.405 87.382 A 41.236 41.236 0 0 1 81.9 87.12 A 71.035 71.035 0 0 1 81.364 86.835 Q 80.787 86.525 80.388 86.294 A 16.808 16.808 0 0 1 80.16 86.16 Q 80.76 91.44 80.4 96.36 A 23.389 23.389 0 0 1 79.803 99.57 Q 79.361 101.245 78.681 102.591 A 11.27 11.27 0 0 1 77.64 104.28 Q 74.553 108.282 69.505 107.6 A 12.309 12.309 0 0 1 69 107.52 A 11.722 11.722 0 0 1 60.606 102.259 A 17.196 17.196 0 0 1 59.52 100.44 A 17.865 17.865 0 0 1 57.253 91.548 A 22.004 22.004 0 0 1 57.36 89.4 A 20.942 20.942 0 0 1 58.428 84.323 A 15.659 15.659 0 0 1 61.8 78.72 A 14.413 14.413 0 0 1 65.075 76.141 A 12.051 12.051 0 0 1 68.88 74.76 Q 66.96 66.6 64.44 60.12 Q 62.893 56.474 62.058 54.862 A 18.557 18.557 0 0 0 61.92 54.6 L 61.8 54.84 L 61.68 55.08 A 2.306 2.306 0 0 0 61.493 55.29 Q 61.388 55.425 61.32 55.56 L 61.2 55.92 A 0.173 0.173 0 0 1 61.194 55.968 Q 61.173 56.04 61.08 56.04 L 60.96 56.28 Q 60.84 56.52 60.54 57 Q 60.246 57.472 60.125 57.712 A 2.752 2.752 0 0 0 60.12 57.72 Q 59.932 58.097 59.743 58.252 A 0.553 0.553 0 0 1 59.64 58.32 A 4.486 4.486 0 0 1 56.704 60.24 A 5.144 5.144 0 0 1 56.7 60.24 A 4.822 4.822 0 0 1 55.859 60.33 Q 54.544 60.35 53.39 59.595 A 5.232 5.232 0 0 1 53.28 59.52 A 3.844 3.844 0 0 1 51.475 56.985 A 4.909 4.909 0 0 1 51.42 56.7 A 5.454 5.454 0 0 1 51.349 55.838 Q 51.349 55.835 51.349 55.832 A 4.783 4.783 0 0 1 52.08 53.28 A 1.13 1.13 0 0 0 52.147 53.206 Q 52.254 53.077 52.424 52.825 A 10.852 10.852 0 0 0 52.44 52.8 A 0.232 0.232 0 0 1 52.452 52.734 Q 52.485 52.629 52.604 52.439 A 4.561 4.561 0 0 1 52.68 52.32 Q 52.915 51.968 53.035 51.731 A 2.742 2.742 0 0 0 53.04 51.72 Z M 245.76 65.28 L 245.64 65.16 Q 245.64 65.018 245.598 64.96 A 0.091 0.091 0 0 0 245.52 64.92 Q 242.623 62.58 242.623 59.102 A 8.686 8.686 0 0 1 242.64 58.56 A 8.791 8.791 0 0 1 243.629 54.898 Q 244.217 53.737 245.154 52.593 A 15.81 15.81 0 0 1 245.28 52.44 A 24.074 24.074 0 0 1 250.477 47.63 Q 252.928 45.925 256.001 44.542 A 43 43 0 0 1 257.16 44.04 Q 266.28 40.56 274.08 42.48 A 22.943 22.943 0 0 1 287.92 52.189 A 31.72 31.72 0 0 1 289.56 54.84 A 43.744 43.744 0 0 1 292.804 62.847 A 54.817 54.817 0 0 1 294.12 68.28 Q 295.2 73.32 295.92 81.6 A 3.45 3.45 0 0 0 295.923 81.728 Q 295.933 81.998 295.98 82.56 Q 296.04 83.28 296.04 84 Q 296.153 84.793 296.801 91.678 A 2686.718 2686.718 0 0 1 296.88 92.52 A 89.801 89.801 0 0 0 297.451 96.199 Q 297.848 98.43 298.32 100.32 Q 298.78 102.045 297.918 103.55 A 4.872 4.872 0 0 1 297.84 103.68 Q 296.88 105.24 295.08 105.72 Q 293.355 106.18 291.851 105.318 A 4.872 4.872 0 0 1 291.72 105.24 Q 290.16 104.28 289.68 102.48 A 58.269 58.269 0 0 1 288.909 98.891 Q 288.57 97.049 288.296 94.994 A 98.337 98.337 0 0 1 288.12 93.6 A 29.756 29.756 0 0 1 288.017 92.776 Q 287.768 90.57 287.28 84.72 A 592.636 592.636 0 0 1 287.224 84.212 Q 287.06 82.726 287.042 82.481 A 0.673 0.673 0 0 1 287.04 82.44 Q 286.32 73.92 285.48 70.08 A 47.664 47.664 0 0 0 284.095 64.778 Q 283.058 61.605 281.64 59.04 A 18.49 18.49 0 0 0 278.798 55.034 A 13.361 13.361 0 0 0 272.04 51.12 Q 266.76 49.8 260.52 52.32 A 28.334 28.334 0 0 0 257.089 53.933 Q 255.412 54.873 254.149 55.951 A 12.548 12.548 0 0 0 252.24 57.96 L 251.76 58.44 Q 252.653 59.333 253.13 60.225 A 5.482 5.482 0 0 1 253.2 60.36 A 5.504 5.504 0 0 1 253.389 60.708 Q 253.729 61.382 254.28 62.76 Q 254.88 65.4 255.36 68.4 Q 256.08 74.04 256.44 82.8 A 3.59 3.59 0 0 1 256.496 83.078 Q 256.549 83.395 256.587 83.865 A 20.32 20.32 0 0 1 256.62 84.36 A 59.145 59.145 0 0 1 256.646 84.87 Q 256.672 85.422 256.678 85.815 A 14.699 14.699 0 0 1 256.68 86.04 Q 256.68 86.246 256.724 87.198 A 232.405 232.405 0 0 0 256.74 87.54 A 145.293 145.293 0 0 1 256.763 88.049 Q 256.8 88.879 256.8 89.16 Q 257.267 99.775 257.733 102.113 A 6.032 6.032 0 0 0 257.76 102.24 Q 258.22 103.965 257.358 105.47 A 4.872 4.872 0 0 1 257.28 105.6 Q 256.32 107.16 254.52 107.64 Q 252.795 108.1 251.291 107.238 A 4.872 4.872 0 0 1 251.16 107.16 Q 249.6 106.2 249.12 104.4 A 34.702 34.702 0 0 1 248.796 102.211 Q 248.288 98.001 247.92 89.64 A 5.401 5.401 0 0 0 247.918 89.512 Q 247.91 89.217 247.876 88.442 A 265.955 265.955 0 0 0 247.86 88.08 Q 247.802 86.8 247.8 86.423 A 4.87 4.87 0 0 1 247.8 86.4 Q 247.8 85.941 247.765 85.235 A 51.018 51.018 0 0 0 247.74 84.78 A 18.582 18.582 0 0 0 247.706 84.304 Q 247.666 83.824 247.607 83.503 A 3.509 3.509 0 0 0 247.56 83.28 A 235.265 235.265 0 0 0 247.27 77.874 Q 246.953 73.065 246.48 69.6 Q 246.155 67.107 245.83 65.593 A 21.079 21.079 0 0 0 245.76 65.28 Z M 503.16 85.8 Q 503.16 91.8 504.84 94.8 A 5.779 5.779 0 0 0 507.015 96.94 Q 507.935 97.479 509.144 97.835 A 15.291 15.291 0 0 0 511.2 98.28 Q 515.799 98.965 520.238 94.943 A 23.754 23.754 0 0 0 522.24 92.88 Q 527.76 86.16 529.32 76.56 Q 530.239 70.624 529.285 66.062 A 17.28 17.28 0 0 0 527.04 60.36 A 13.68 13.68 0 0 0 517.959 54.226 A 22.483 22.483 0 0 0 513.24 53.76 Q 505.32 53.76 499.32 57.12 A 27.597 27.597 0 0 0 496.045 59.133 Q 492.195 61.846 487.32 66.72 A 4.396 4.396 0 0 1 484.14 68.04 A 5.549 5.549 0 0 1 484.08 68.04 A 4.539 4.539 0 0 1 482.563 67.797 A 3.888 3.888 0 0 1 480.96 66.72 A 4.396 4.396 0 0 1 479.64 63.54 A 5.549 5.549 0 0 1 479.64 63.48 A 4.539 4.539 0 0 1 479.884 61.963 A 3.888 3.888 0 0 1 480.96 60.36 A 101.11 101.11 0 0 1 485.734 55.867 Q 490.625 51.575 494.72 49.351 A 29.662 29.662 0 0 1 495 49.2 A 36.857 36.857 0 0 1 510.731 44.831 A 44.201 44.201 0 0 1 513.24 44.76 A 31.698 31.698 0 0 1 521.731 45.827 A 21.327 21.327 0 0 1 534.72 55.68 Q 539.921 64.201 538.489 75.884 A 46.669 46.669 0 0 1 538.2 77.88 A 45.757 45.757 0 0 1 535.119 88.944 A 36.559 36.559 0 0 1 529.08 98.64 A 28.749 28.749 0 0 1 524.266 103.399 Q 517.76 108.373 509.88 107.16 A 22.179 22.179 0 0 1 504.356 105.643 A 15.547 15.547 0 0 1 497.04 99.36 A 19.372 19.372 0 0 1 495.175 94.691 Q 494.16 90.859 494.16 85.8 A 4.578 4.578 0 0 1 494.45 84.145 A 4.151 4.151 0 0 1 495.48 82.62 A 4.504 4.504 0 0 1 498.66 81.361 A 5.809 5.809 0 0 1 498.72 81.36 Q 500.52 81.36 501.84 82.62 Q 503.16 83.88 503.16 85.8 Z M 127.44 101.88 L 126 100.44 Q 124.56 99.24 124.38 97.38 A 4.962 4.962 0 0 1 124.357 96.902 A 4.292 4.292 0 0 1 125.4 94.08 A 4.884 4.884 0 0 1 126.905 92.946 A 4.549 4.549 0 0 1 128.58 92.52 A 5.198 5.198 0 0 1 128.915 92.509 A 4.507 4.507 0 0 1 131.88 93.6 Q 132.573 94.178 133.934 95.534 A 94.942 94.942 0 0 1 134.04 95.64 L 134.76 96.36 L 135.24 96.84 Q 135.599 97.199 135.719 97.2 Q 135.72 96.521 135.6 96.022 A 2.779 2.779 0 0 0 135.48 95.64 A 22.124 22.124 0 0 0 134.598 92.483 Q 133.035 88.035 129.24 81.48 Q 127.56 78.6 125.64 75.36 Q 124.92 74.28 123.6 72.24 Q 122.28 70.2 121.14 68.52 A 426.021 426.021 0 0 0 119.191 65.672 A 384.729 384.729 0 0 0 118.92 65.28 A 466.076 466.076 0 0 1 116.94 62.399 Q 115.946 60.94 115.08 59.64 A 4.786 4.786 0 0 1 114.397 58.223 Q 114.132 57.289 114.3 56.28 A 4.218 4.218 0 0 1 116.064 53.469 A 5.416 5.416 0 0 1 116.16 53.4 A 5.106 5.106 0 0 1 117.467 51.834 Q 118.399 51.104 119.677 50.893 A 5.958 5.958 0 0 1 119.76 50.88 Q 127.028 49.871 135.741 46.059 A 97.776 97.776 0 0 0 139.08 44.52 A 95.949 95.949 0 0 0 143.995 41.907 Q 149.592 38.737 156.73 33.918 A 298.437 298.437 0 0 0 157.2 33.6 A 4.511 4.511 0 0 1 158.729 32.904 Q 159.605 32.695 160.562 32.869 A 5.253 5.253 0 0 1 160.62 32.88 A 4.354 4.354 0 0 1 163.488 34.81 A 5.725 5.725 0 0 1 163.56 34.92 Q 164.52 36.48 164.16 38.34 Q 163.8 40.2 162.24 41.16 Q 151.2 48.6 143.16 52.68 A 83.757 83.757 0 0 1 134.735 56.409 Q 130.095 58.148 125.76 59.04 A 0.877 0.877 0 0 1 125.843 59.137 Q 125.921 59.243 126 59.4 A 4.615 4.615 0 0 0 126.118 59.622 Q 126.178 59.727 126.238 59.817 A 2.959 2.959 0 0 0 126.24 59.82 A 2.411 2.411 0 0 0 126.345 59.966 Q 126.402 60.039 126.459 60.099 A 1.404 1.404 0 0 0 126.48 60.12 Q 131.76 67.92 133.32 70.56 Q 134.423 72.214 136.088 75.134 A 195.799 195.799 0 0 1 137.16 77.04 A 118.771 118.771 0 0 1 140.165 82.581 Q 143.531 89.235 144.48 93.72 Q 145.44 98.76 143.76 101.88 A 7.674 7.674 0 0 1 138.299 106.076 A 11.723 11.723 0 0 1 135.84 106.32 A 10.662 10.662 0 0 1 135.78 106.32 Q 131.977 106.299 129 103.56 A 1.618 1.618 0 0 1 128.888 103.435 Q 128.832 103.366 128.777 103.285 A 2.743 2.743 0 0 1 128.76 103.26 Q 128.64 103.08 128.46 102.96 A 2.411 2.411 0 0 1 128.314 102.855 Q 128.241 102.798 128.182 102.741 A 1.404 1.404 0 0 1 128.16 102.72 Q 128.056 102.512 127.59 102.032 A 14.722 14.722 0 0 0 127.44 101.88 Z M 583.8 44.64 L 583.92 44.76 Q 585.24 46.2 586.2 50.04 A 84.39 84.39 0 0 1 587.114 56.326 A 92.39 92.39 0 0 1 587.16 56.76 Q 588 64.2 588.24 74.52 Q 588.438 83.323 587.984 89.599 A 83.589 83.589 0 0 1 587.76 92.16 Q 587.4 95.88 586.8 98.76 Q 586.44 100.32 585.84 101.52 Q 585.104 103.203 584 104.148 A 5.148 5.148 0 0 1 583.68 104.4 Q 580.08 107.16 575.16 106.92 A 18.981 18.981 0 0 1 570.817 106.251 A 26.16 26.16 0 0 1 567 104.88 Q 563.184 103.23 558.748 100.251 A 79.819 79.819 0 0 1 557.28 99.24 Q 554.64 97.32 553.2 96.12 Q 552.72 95.76 551.52 94.8 A 71.288 71.288 0 0 1 551.145 94.506 Q 550.44 93.95 550.225 93.745 A 1.672 1.672 0 0 1 550.2 93.72 A 4.638 4.638 0 0 1 549.048 92.462 A 4.188 4.188 0 0 1 548.46 90.66 A 4.962 4.962 0 0 1 548.437 90.182 A 4.292 4.292 0 0 1 549.48 87.36 A 5.713 5.713 0 0 1 549.499 87.338 A 4.574 4.574 0 0 1 552.48 85.68 Q 554.163 85.456 555.531 86.49 A 5.087 5.087 0 0 1 555.72 86.64 L 557.16 87.84 Q 557.697 88.27 558.522 88.891 A 113.288 113.288 0 0 0 558.72 89.04 Q 561.12 90.96 562.56 91.92 A 78.245 78.245 0 0 0 565.176 93.697 Q 568.324 95.738 570.48 96.6 Q 574.549 98.287 576.894 97.841 A 4.044 4.044 0 0 0 577.8 97.56 A 0.403 0.403 0 0 1 577.807 97.49 Q 577.827 97.378 577.903 97.183 A 4.356 4.356 0 0 1 577.92 97.14 A 3.683 3.683 0 0 0 577.97 97.01 Q 578.035 96.827 578.04 96.734 A 0.272 0.272 0 0 0 578.04 96.72 Q 578.405 95.444 578.7 92.99 A 72.229 72.229 0 0 0 578.88 91.32 Q 579.48 84.48 579.24 74.64 Q 579 65.4 578.28 57.84 Q 577.827 54.1 577.48 52.608 A 10.195 10.195 0 0 0 577.44 52.44 A 1.13 1.13 0 0 0 577.373 52.515 Q 577.266 52.643 577.096 52.896 A 10.852 10.852 0 0 0 577.08 52.92 Q 575.28 55.2 573.6 58.56 Q 572.76 60.24 571.02 60.9 A 4.415 4.415 0 0 1 569.926 61.168 Q 568.914 61.277 567.924 60.868 A 4.926 4.926 0 0 1 567.6 60.72 Q 565.92 59.88 565.26 58.14 A 4.415 4.415 0 0 1 564.993 57.046 Q 564.884 56.035 565.292 55.044 A 4.926 4.926 0 0 1 565.44 54.72 Q 567.597 50.603 569.193 48.328 A 20.495 20.495 0 0 1 569.88 47.4 Q 572.04 44.76 574.32 43.32 A 9.464 9.464 0 0 1 575.969 42.458 Q 578.623 41.406 581.12 42.619 A 8.086 8.086 0 0 1 582.12 43.2 A 5.196 5.196 0 0 1 582.799 43.604 A 4.011 4.011 0 0 1 583.32 44.04 A 1.262 1.262 0 0 0 583.412 44.193 Q 583.517 44.344 583.693 44.531 A 5.42 5.42 0 0 0 583.8 44.64 Z M 157.08 17.04 L 157.2 16.92 Q 156.991 15.456 157.43 14.316 A 4.214 4.214 0 0 1 158.4 12.84 A 21.623 21.623 0 0 1 174.052 6.522 Q 177.766 6.522 181.92 7.56 Q 190.32 9.72 197.52 15.24 Q 197.611 15.059 197.701 14.674 A 8.495 8.495 0 0 0 197.76 14.4 Q 197.877 13.814 197.995 13.456 A 3.878 3.878 0 0 1 198 13.44 A 12.164 12.164 0 0 1 201.304 8.534 A 15.127 15.127 0 0 1 202.32 7.68 Q 203.435 6.844 205.772 5.792 A 52.527 52.527 0 0 1 207.24 5.16 A 21.252 21.252 0 0 1 210.001 4.215 Q 211.957 3.701 213.733 3.701 A 10.742 10.742 0 0 1 221.4 6.84 Q 226.064 11.163 225.228 18.073 A 19.562 19.562 0 0 1 225.12 18.84 A 16.042 16.042 0 0 1 222.644 25.703 A 16.187 16.187 0 0 1 218.04 30.24 A 15.852 15.852 0 0 1 211.53 32.917 A 21.57 21.57 0 0 1 207.72 33.24 A 9.915 9.915 0 0 1 206.818 35.153 A 7.909 7.909 0 0 1 205.68 36.6 A 9.966 9.966 0 0 1 201.701 38.913 Q 194.214 41.344 178.44 36.72 Q 172.8 35.16 166.8 31.08 A 59.55 59.55 0 0 1 164.224 29.196 Q 161.295 26.94 157.569 23.622 A 191.247 191.247 0 0 1 157.32 23.4 Q 156 22.08 155.94 20.22 A 5.456 5.456 0 0 1 155.937 20.044 A 4.313 4.313 0 0 1 157.08 17.04 Z M 470.52 21.36 L 470.52 21 L 470.52 20.88 L 470.52 20.76 Q 470.64 18.84 472.02 17.58 A 4.261 4.261 0 0 1 474.99 16.43 A 5.287 5.287 0 0 1 475.32 16.44 Q 477.24 16.56 478.5 17.94 A 4.261 4.261 0 0 1 479.651 20.911 A 5.287 5.287 0 0 1 479.64 21.24 A 8.71 8.71 0 0 1 479.621 21.779 Q 479.588 22.311 479.496 23.048 A 40.593 40.593 0 0 1 479.4 23.76 Q 479.28 24.84 479.28 27 A 2.488 2.488 0 0 1 479.272 27.188 Q 479.265 27.279 479.252 27.382 A 5.673 5.673 0 0 1 479.22 27.6 Q 479.16 27.96 479.16 28.2 A 72.638 72.638 0 0 0 483.872 27.177 A 79.648 79.648 0 0 0 484.56 27 A 108.441 108.441 0 0 0 489.707 25.42 Q 494.477 23.834 500.4 21.48 Q 511.341 17.203 519.688 13.432 A 226.807 226.807 0 0 0 526.8 10.08 Q 528.48 9.24 530.22 9.84 A 4.86 4.86 0 0 1 532.905 12.094 A 6.149 6.149 0 0 1 532.92 12.12 Q 533.651 13.477 533.292 15.061 A 5.57 5.57 0 0 1 533.16 15.54 Q 532.56 17.4 530.88 18.24 Q 519 24.12 503.76 30 A 258.315 258.315 0 0 1 496.898 32.554 Q 493.499 33.761 490.467 34.712 A 132.2 132.2 0 0 1 486.96 35.76 Q 482.16 37.08 480.12 37.32 Q 476.86 37.608 474.826 37.13 A 7.087 7.087 0 0 1 473.88 36.84 A 5.026 5.026 0 0 1 471.909 35.518 A 6.15 6.15 0 0 1 471.6 35.16 Q 471.36 34.92 470.76 33.6 Q 470.579 33.058 470.398 31.969 A 34.207 34.207 0 0 1 470.28 31.2 Q 470.04 28.56 470.16 26.64 A 13.079 13.079 0 0 1 470.164 26.362 Q 470.172 25.974 470.201 25.323 A 117.508 117.508 0 0 1 470.22 24.9 A 90.849 90.849 0 0 0 470.246 24.312 Q 470.279 23.51 470.28 23.062 A 12.437 12.437 0 0 0 470.28 23.04 Q 470.28 22.819 470.331 22.293 A 28.314 28.314 0 0 1 470.34 22.2 Q 470.4 21.6 470.52 21.36 Z M 131.88 113.64 L 132.36 113.64 A 4.076 4.076 0 0 1 132.717 113.588 Q 133.347 113.52 134.52 113.52 Q 137.76 113.52 139.56 115.92 A 7.168 7.168 0 0 1 140.827 118.487 A 9.631 9.631 0 0 1 141.12 120.12 Q 141.311 121.268 141.198 122.72 A 16.505 16.505 0 0 1 141.12 123.48 Q 141.029 123.846 140.937 124.527 A 27.571 27.571 0 0 0 140.88 124.98 Q 140.76 126 140.64 126.72 L 140.64 127.68 Q 140.28 129.72 140.28 131.88 L 140.28 132 Q 145.08 133.8 151.56 132.36 Q 154.68 131.64 155.88 130.44 A 1.483 1.483 0 0 0 156.133 130.204 A 0.923 0.923 0 0 0 156.36 129.6 A 37.762 37.762 0 0 1 155.997 127.775 Q 155.61 125.573 155.28 122.52 L 155.28 121.8 Q 155.04 120.12 154.8 117.96 A 5.168 5.168 0 0 1 154.713 117.198 Q 154.71 117.112 154.71 117.027 A 4.159 4.159 0 0 1 155.52 114.54 A 4.572 4.572 0 0 1 158.431 112.698 A 5.918 5.918 0 0 1 158.52 112.68 A 5.515 5.515 0 0 1 159.204 112.637 A 4.572 4.572 0 0 1 161.94 113.52 A 4.572 4.572 0 0 1 163.783 116.431 A 5.918 5.918 0 0 1 163.8 116.52 Q 163.92 117.36 164.4 120.96 L 164.4 121.68 A 419.222 419.222 0 0 0 164.612 123.313 Q 165.045 126.585 165.24 127.56 A 11.696 11.696 0 0 1 165.507 129.295 Q 165.805 133.251 163.042 136.269 A 12.696 12.696 0 0 1 162 137.28 Q 158.88 140.04 153.48 141.24 A 39.635 39.635 0 0 1 149.172 141.935 Q 141.377 142.736 135.6 139.8 Q 133.32 138.72 132.24 136.44 A 10.593 10.593 0 0 1 131.448 134.078 A 9.259 9.259 0 0 1 131.28 132.84 Q 131.09 131.036 131.351 128.105 A 57.763 57.763 0 0 1 131.52 126.48 A 0.799 0.799 0 0 1 131.524 126.41 Q 131.534 126.292 131.576 126.081 A 7.696 7.696 0 0 1 131.58 126.06 A 3.41 3.41 0 0 0 131.621 125.809 Q 131.637 125.679 131.64 125.563 A 1.984 1.984 0 0 0 131.64 125.52 Q 131.747 124.125 131.951 123.017 A 16.598 16.598 0 0 1 132 122.76 Q 130.8 123 129.6 123 Q 127.68 123.12 126.3 121.98 A 4.47 4.47 0 0 1 124.727 119.23 A 5.863 5.863 0 0 1 124.68 118.92 A 5.05 5.05 0 0 1 124.64 118.294 A 4.151 4.151 0 0 1 125.64 115.56 A 4.217 4.217 0 0 1 128.611 114.012 A 5.33 5.33 0 0 1 128.76 114 A 185.696 185.696 0 0 1 129.507 113.919 Q 130.788 113.782 131.18 113.763 A 2.207 2.207 0 0 1 131.28 113.76 Q 131.488 113.656 131.786 113.642 A 2.02 2.02 0 0 1 131.88 113.64 Z M 106.92 5.4 L 110.4 3.12 A 5.232 5.232 0 0 1 110.742 2.887 Q 111.115 2.651 111.658 2.373 A 20.087 20.087 0 0 1 111.84 2.28 Q 113.16 1.44 114.6 0.84 A 8.977 8.977 0 0 1 116.836 0.121 A 7.82 7.82 0 0 1 118.2 0 A 5.07 5.07 0 0 1 121.871 1.512 A 6.33 6.33 0 0 1 121.92 1.56 Q 122.52 2.28 122.88 3.12 A 7.07 7.07 0 0 1 123.196 3.865 Q 123.34 4.262 123.471 4.735 A 18.007 18.007 0 0 1 123.72 5.76 Q 124.262 7.928 124.314 11.565 A 55.217 55.217 0 0 1 124.32 12.36 L 124.32 12.84 Q 132.84 8.16 143.88 4.44 Q 145.68 3.84 147.42 4.68 A 4.298 4.298 0 0 1 148.738 5.639 A 3.949 3.949 0 0 1 149.64 7.32 Q 150.24 9.12 149.4 10.8 A 4.385 4.385 0 0 1 146.816 13.061 A 5.384 5.384 0 0 1 146.76 13.08 A 129.702 129.702 0 0 0 136.595 16.871 Q 126.876 21.004 121.388 25.713 A 28.58 28.58 0 0 0 119.04 27.96 A 3.911 3.911 0 0 1 116.518 29.341 A 5.689 5.689 0 0 1 115.68 29.4 A 4.436 4.436 0 0 1 114.101 29.128 A 3.986 3.986 0 0 1 112.68 28.2 Q 111.12 27 111.12 24.84 A 4.218 4.218 0 0 1 111.662 22.798 A 5.946 5.946 0 0 1 112.32 21.84 A 9.599 9.599 0 0 0 114.276 18.503 Q 114.796 17.045 115.023 15.246 A 24.016 24.016 0 0 0 115.2 12.24 L 115.2 10.92 Q 114.24 11.52 111.72 13.2 A 4.344 4.344 0 0 1 109.404 13.868 Q 108.866 13.868 108.3 13.74 Q 106.44 13.32 105.48 11.76 A 5.006 5.006 0 0 1 104.884 10.151 Q 104.719 9.228 104.932 8.256 A 5.549 5.549 0 0 1 104.94 8.22 Q 105.36 6.36 106.92 5.4 Z M 295.4 8.47 A 8.692 8.692 0 0 0 295.44 9.24 Q 294.72 11.16 295.56 12.96 A 32.761 32.761 0 0 0 300.685 20.132 A 38.051 38.051 0 0 0 309.48 27 Q 317.16 31.44 326.52 33 A 54.567 54.567 0 0 0 329.736 33.385 Q 333.832 33.747 337.234 33.356 A 24.007 24.007 0 0 0 341.4 32.52 Q 343.44 31.883 344.904 30.941 A 8.649 8.649 0 0 0 347.04 29.04 A 9.623 9.623 0 0 0 347.807 27.866 Q 349.008 25.685 348.677 23.324 A 8.487 8.487 0 0 0 348.24 21.6 A 17.591 17.591 0 0 0 345.612 17.112 Q 343.896 14.946 341.377 12.939 A 41.533 41.533 0 0 0 336.24 9.48 A 60.71 60.71 0 0 0 330.733 6.586 A 70.771 70.771 0 0 0 318.96 2.4 Q 309 -0.24 303 0.84 A 16.194 16.194 0 0 0 302.303 0.999 Q 300.828 1.37 299.653 1.977 A 8.052 8.052 0 0 0 296.4 4.92 Q 295.388 6.439 295.4 8.47 Z M 305.036 10.038 A 1.673 1.673 0 0 0 304.92 9.72 A 12.676 12.676 0 0 1 305.596 9.643 Q 309.701 9.28 316.56 11.16 Q 324.24 13.2 330.66 16.74 Q 337.08 20.28 339.12 23.64 A 0.356 0.356 0 0 1 339.027 23.707 Q 338.921 23.76 338.76 23.76 Q 335.53 24.71 330.646 24.307 A 45.551 45.551 0 0 1 327.96 24 Q 320.4 22.68 314.04 19.08 A 32.456 32.456 0 0 1 310.446 16.697 A 25.326 25.326 0 0 1 305.16 11.28 Q 305.16 10.504 305.036 10.038 Z M 198 28.56 A 15.98 15.98 0 0 0 195.553 25.621 A 17.812 17.812 0 0 0 195.36 25.44 Q 188.88 18.72 179.76 16.44 A 26.05 26.05 0 0 0 176.937 15.9 Q 172.932 15.372 169.761 16.396 A 12.299 12.299 0 0 0 165.72 18.6 Q 169.32 21.84 171.96 23.52 Q 176.52 26.64 180.96 27.96 A 92.363 92.363 0 0 0 186.491 29.423 Q 191.46 30.563 195.24 30.72 A 21.004 21.004 0 0 0 196.467 30.687 Q 197.629 30.619 198.419 30.411 A 5.431 5.431 0 0 0 198.6 30.36 A 7.291 7.291 0 0 1 198.249 29.543 Q 198.09 29.097 198.019 28.679 A 4.334 4.334 0 0 1 198 28.56 Z M 207.72 24.12 A 11.855 11.855 0 0 0 209.792 23.95 Q 210.963 23.742 211.901 23.279 A 6.19 6.19 0 0 0 212.88 22.68 A 7.508 7.508 0 0 0 216.054 17.858 A 9.947 9.947 0 0 0 216.12 17.52 A 9.407 9.407 0 0 0 216.182 16.876 Q 216.297 15 215.527 13.881 A 3.139 3.139 0 0 0 215.16 13.44 A 1.109 1.109 0 0 0 214.623 13.059 Q 214.431 12.992 214.194 12.97 A 2.597 2.597 0 0 0 213.96 12.96 Q 212.891 12.766 211.428 13.28 A 10.247 10.247 0 0 0 210.72 13.56 Q 207.589 14.917 206.818 16.002 A 1.543 1.543 0 0 0 206.64 16.32 Q 206.16 18.36 206.28 19.32 A 1.831 1.831 0 0 0 206.322 19.647 Q 206.472 20.407 207.156 22.447 A 114.35 114.35 0 0 0 207.48 23.4 Q 207.48 23.492 207.551 23.655 A 2.159 2.159 0 0 0 207.6 23.76 Q 207.692 23.945 207.714 24.058 A 0.338 0.338 0 0 1 207.72 24.12 Z M 70.56 98.52 A 4.482 4.482 0 0 0 70.916 97.664 Q 71.183 96.799 71.269 95.571 A 15.149 15.149 0 0 0 71.28 95.4 A 25.223 25.223 0 0 0 71.403 93.682 Q 71.531 90.437 70.992 85.963 A 87.874 87.874 0 0 0 70.68 83.64 A 5.045 5.045 0 0 0 69.498 84.09 A 3.926 3.926 0 0 0 68.4 84.96 Q 66.6 86.88 66.48 90.12 Q 66.203 92.703 66.99 94.861 A 9.238 9.238 0 0 0 67.56 96.12 A 5.705 5.705 0 0 0 68.275 97.234 A 3.463 3.463 0 0 0 70.56 98.52 Z M 466.183 47.961 A 0.216 0.216 0 0 0 466.2 47.88 A 29.057 29.057 0 0 1 466.356 49.578 Q 466.705 55.103 465.36 63.48 Q 464.323 58.955 464.323 55.096 A 26.797 26.797 0 0 1 464.4 53.04 A 14.818 14.818 0 0 1 464.588 51.599 Q 464.747 50.732 465.005 50.021 A 6.182 6.182 0 0 1 465.72 48.6 Q 465.84 48.36 466.02 48.18 A 1.259 1.259 0 0 0 466.081 48.115 Q 466.154 48.031 466.183 47.961 Z" vector-effect="non-scaling-stroke"/></g></svg>